<svg id="Layer_1" data-name="Layer 1" xmlns="http://www.w3.org/2000/svg" xmlns:xlink="http://www.w3.org/1999/xlink" viewBox="0 0 500 500"><defs><style>.cls-1{fill:#f5f5f5;}.cls-2{fill:#e0e0e0;}.cls-21,.cls-3{fill:#3fcedb;}.cls-12,.cls-14,.cls-15,.cls-16,.cls-17,.cls-20,.cls-21,.cls-4,.cls-6,.cls-7,.cls-8{isolation:isolate;}.cls-4{opacity:0.15;}.cls-14,.cls-17,.cls-5,.cls-6{fill:#fff;}.cls-12,.cls-21,.cls-6{opacity:0.2;}.cls-7{opacity:0.1;}.cls-13,.cls-17,.cls-8{opacity:0.3;}.cls-9{fill:#37474f;}.cls-10{fill:#263238;}.cls-11{fill:#455a64;}.cls-14,.cls-15{opacity:0.5;}.cls-16{opacity:0.4;}.cls-18{fill:#f28f8f;}.cls-19,.cls-20{fill:#fafafa;}.cls-20,.cls-23{opacity:0.8;}.cls-22{opacity:0.6;}</style><image id="image" width="855" height="1155" xlink:href="../../Asset%2031.png"/></defs><g id="freepik--Floor--inject-8"><ellipse id="freepik--floor--inject-8-2" data-name="freepik--floor--inject-8" class="cls-1" cx="250" cy="333.49" rx="236" ry="136.23"/></g><g id="freepik--Shadow--inject-8"><path id="freepik--shadow--inject-8-2" data-name="freepik--shadow--inject-8" class="cls-2" d="M41.12,306.5,298.56,455.13a11.08,11.08,0,0,0,10,0L448.7,374.22c2.76-1.6,2.76-4.18,0-5.78L191.26,219.81a11.08,11.08,0,0,0-10,0L41.12,300.72C38.35,302.32,38.35,304.9,41.12,306.5Z"/></g><g id="plant"><g id="freepik--Plants--inject-8"><path class="cls-3" d="M60.46,290.43l10.36-4.67s4.52-20.73,4.57-37.13c.06-23-11.9-52-30.14-47.33s5.06,30.5,8.81,50.44S60.46,290.43,60.46,290.43Z"/><path class="cls-4" d="M60.46,290.43l10.36-4.67s4.52-20.73,4.57-37.13c.06-23-11.9-52-30.14-47.33s5.06,30.5,8.81,50.44S60.46,290.43,60.46,290.43Z"/><path class="cls-5" d="M65.85,288.57h0a.59.59,0,0,1-.51-.66h0c6.85-50.54-15.82-78.6-16-78.88a.59.59,0,0,1,.07-.83h0a.6.6,0,0,1,.84.08c.23.28,23.23,28.75,16.31,79.8a.6.6,0,0,1-.67.52Z"/><path class="cls-3" d="M54,293.33,61.32,290s2.64-14.27-2.65-32.47c-4.6-15.84-18.57-30-26.5-28.13s-8.3,7.34-5.13,13.42S51.56,264.79,54,293.33Z"/><path class="cls-6" d="M54,293.33,61.32,290s2.64-14.27-2.65-32.47c-4.6-15.84-18.57-30-26.5-28.13s-8.3,7.34-5.13,13.42S51.56,264.79,54,293.33Z"/><path class="cls-5" d="M57.78,292.17h0a.61.61,0,0,1-.53-.65c3.38-32.06-24.54-56.77-24.82-57a.59.59,0,0,1,.78-.89c.29.25,28.67,25.37,25.23,58a.6.6,0,0,1-.65.54Z"/></g></g><g id="freepik--Icons--inject-8"><g id="laik"><path class="cls-3" d="M399.15,114.75a5.49,5.49,0,0,0-.22-1.61l5.85-6.7-7.5-4.21c-.71-.49-1.72-.55-3.09.25l-13,7.55-1.75,1a35.1,35.1,0,0,0,.62-4.57c.05-.64.06-1.25.06-1.86l.24.12,4.39-5.13-7.5-4.22h0c-2.52-1.54-6.78,1.5-6.78,2.73,0,1.48.64,9.23,0,11.45s-7.34,17.53-7.34,17.53V159l24.45-14.14c3.21-1.86,5.44-5.82,5.44-8.5a8.41,8.41,0,0,0-.65-3.5c2.08-1.2,4.15-5.54,4.15-7.38,0-2.78-.95-3.5-.95-3.5A10.55,10.55,0,0,0,399.15,114.75Z"/><path class="cls-7" d="M399.15,114.75a5.49,5.49,0,0,0-.22-1.61l5.85-6.7-7.5-4.21c-.71-.49-1.72-.55-3.09.25l-13,7.55-1.75,1a35.1,35.1,0,0,0,.62-4.57c.05-.64.06-1.25.06-1.86l.24.12,4.39-5.13-7.5-4.22h0c-2.52-1.54-6.78,1.5-6.78,2.73,0,1.48.64,9.23,0,11.45s-7.34,17.53-7.34,17.53V159l24.45-14.14c3.21-1.86,5.44-5.82,5.44-8.5a8.41,8.41,0,0,0-.65-3.5c2.08-1.2,4.15-5.54,4.15-7.38,0-2.78-.95-3.5-.95-3.5A10.55,10.55,0,0,0,399.15,114.75Z"/><polygon class="cls-2" points="370.86 163.37 363.12 158.9 363.1 126.98 370.83 131.45 370.86 163.37"/><polygon class="cls-3" points="370.86 163.37 363.12 158.9 363.1 126.98 370.83 131.45 370.86 163.37"/><polygon class="cls-8" points="370.86 163.37 363.12 158.9 363.1 126.98 370.83 131.45 370.86 163.37"/><path class="cls-3" d="M404.53,130.45c0,4.12-2.35,5.57-4.43,6.77a8.68,8.68,0,0,1,.63,3.52c0,2.66-2.22,6.64-5.42,8.48l-24.45,14.14V131.45s6.72-15.31,7.35-17.54,0-10,0-11.43,6.07-5.54,8-1.3,2.09,8.56,1,14.2L402,106.83c3.12-1.8,4.4.78,4.4,2.8,0,2.87-1.34,5.7-3.12,6.78,0,0,3.4.17,3.4,4.13a8.38,8.38,0,0,1-3.28,6.45S404.53,127.69,404.53,130.45Z"/><polygon class="cls-9" points="356.66 175.87 367.34 169.71 367.31 132.56 356.66 138.72 356.66 175.87"/><polygon class="cls-10" points="356.66 175.87 348.92 171.41 348.92 134.26 356.66 138.72 356.66 175.87"/><polygon class="cls-11" points="359.58 128.1 367.31 132.56 356.66 138.72 348.92 134.26 359.58 128.1"/><path class="cls-3" d="M378.17,113.91c-.63,2.23-7.35,17.54-7.35,17.54l-7.72-4.35s6.7-15.32,7.34-17.53,0-10,0-11.45l7.74,4.36C378.17,104,378.82,111.7,378.17,113.91Z"/><path class="cls-12" d="M378.17,113.91c-.63,2.23-7.35,17.54-7.35,17.54l-7.72-4.35s6.7-15.32,7.34-17.53,0-10,0-11.45l7.74,4.36C378.17,104,378.82,111.7,378.17,113.91Z"/></g><g id="hert"><path class="cls-3" d="M468.91,146.35h0l-7.36-4.59h0c-2.72-1.74-6.86-1.56-11.56,1-6.5,3.47-12.24,12.23-14.72,19.66L430,159.14h0c-2.67-1.93-6.42-2.34-10.65-.08-.52.28-1,.59-1.56.91l-.81.55c-.23.16-.47.31-.7.48l-1.07.83-.4.31c-.41.34-.82.7-1.22,1.07l-.18.17c-.45.41-.88.84-1.31,1.28h0a34.45,34.45,0,0,0-3.6,4.39h0c-3,4.3-4.9,9.1-5,13.36-.26,7.93,4.47,13.15,10.38,16.58h0l5.81,3.61h0a41.5,41.5,0,0,0,11.14,5l9.67,2.91L450.67,197c9.73-12.9,21.41-30.78,21.8-42.74C472.6,150.45,471.24,147.74,468.91,146.35Z"/><path class="cls-3" d="M419.57,202.58,413.84,199c-5.9-3.43-10.64-8.65-10.38-16.58.14-4.25,2.07-9.07,5.05-13.36l7.55,4.69c-3,4.29-4.91,9.11-5.05,13.36C410.78,194.23,414.54,199.16,419.57,202.58Z"/><g class="cls-13"><path d="M419.57,202.58,413.84,199c-5.9-3.43-10.64-8.65-10.38-16.58.14-4.25,2.07-9.07,5.05-13.36l7.55,4.69c-3,4.29-4.91,9.11-5.05,13.36C410.78,194.23,414.54,199.16,419.57,202.58Z"/></g><path class="cls-3" d="M468.88,146.3c-2.73-1.58-6.78-1.33-11.34,1.11-7.84,4.18-14.6,16.06-15.82,24-.74-6.91-6.94-11.87-14.78-7.67a32.27,32.27,0,0,0-10.88,10l-7.55-4.69.38-.54.33-.44.84-1.1a35.24,35.24,0,0,1,2.6-2.87c.22-.24.46-.46.69-.68l.5-.46a29,29,0,0,1,5.54-3.94,11.73,11.73,0,0,1,5.9-1.53A8.55,8.55,0,0,1,430,159.1l5.23,3.22c2.47-7.42,8.22-16.17,14.73-19.64,4.7-2.52,8.83-2.7,11.55-1h0Z"/><path class="cls-7" d="M468.88,146.3c-2.73-1.58-6.78-1.33-11.34,1.11-7.84,4.18-14.6,16.06-15.82,24-.74-6.91-6.94-11.87-14.78-7.67a32.27,32.27,0,0,0-10.88,10l-7.55-4.69.38-.54.33-.44.84-1.1a35.24,35.24,0,0,1,2.6-2.87c.22-.24.46-.46.69-.68l.5-.46a29,29,0,0,1,5.54-3.94,11.73,11.73,0,0,1,5.9-1.53A8.55,8.55,0,0,1,430,159.1l5.23,3.22c2.47-7.42,8.22-16.17,14.73-19.64,4.7-2.52,8.83-2.7,11.55-1h0Z"/></g><g id="twit"><path class="cls-3" d="M349.45,69.31l-7.4-4.6-2.84,5.72,4,4.37s.24.86,2.19-.65A22.9,22.9,0,0,0,349.45,69.31Z"/><path class="cls-8" d="M349.45,69.31l-7.4-4.6-2.84,5.72,4,4.37s.24.86,2.19-.65A22.9,22.9,0,0,0,349.45,69.31Z"/><path class="cls-3" d="M343.86,79.42c0,9-2.59,20-7.39,30.12-5.48,11.58-13.82,22.15-24.4,27.81-6.06,3.24-11.61,3.92-16.21,2.48l-7.4-4.6c4.8-1.83,9.67-5.79,13.87-11.24l-4.54-2.83a7.27,7.27,0,0,1-3-4.59,11,11,0,0,0,3.08-1.48l-3-1.88c-2.27-1.41-3.55-4.61-3.34-8.79a7.53,7.53,0,0,0,4.79-.83,5.26,5.26,0,0,1-1.31-.68c-3.5-2.49-4.09-9.26-1.39-16.26L301,91.24c4.08,1.1,9,.7,14.2-1.74-1.27-7.93,4.08-19.08,11-22.78,3.08-1.64,5.81-1.43,7.67.26a41.61,41.61,0,0,0,6.91-7l7.4,4.6a28.11,28.11,0,0,1-5,10.26,35.66,35.66,0,0,0,6.21-5.49A56,56,0,0,1,343.86,79.42Z"/><path class="cls-3" d="M343.86,79.42c0,9-2.59,20-7.39,30.12-5.48,11.58-13.82,22.15-24.4,27.81-6.06,3.24-11.61,3.92-16.21,2.48,5.65-2.16,11.39-7.25,16-14.27-4.68,2.38-8.5.46-9.68-4.39a12.91,12.91,0,0,0,4.84-2.82c-5.1,1.39-8.46-2.78-8.13-9.33a7.56,7.56,0,0,0,4.8-.83,5.56,5.56,0,0,1-1.07-.52c-3.71-2.34-4.4-9.27-1.63-16.42.79,3.73,7.71,6.61,13.69,6.52,5.78-.09,7.77-3.45,7.88-3.66h0c-1.27-7.93,4.09-19.08,11-22.78,3.07-1.64,5.8-1.43,7.67.25a41.61,41.61,0,0,0,6.91-7,28.11,28.11,0,0,1-5,10.26,35.66,35.66,0,0,0,6.21-5.49A56.15,56.15,0,0,1,343.86,79.42Z"/><path class="cls-7" d="M348.19,64.54h0a41.55,41.55,0,0,1-6.9,7,4.9,4.9,0,0,0-1.65-1L333.88,67a41.61,41.61,0,0,0,6.91-7Z"/><path class="cls-8" d="M307.06,118.35a12.91,12.91,0,0,1-4.84,2.82l-7.39-4.6a11,11,0,0,0,3.08-1.48l4.19,2.6.13.09.19.12A5.92,5.92,0,0,0,307.06,118.35Z"/><path class="cls-7" d="M322.61,94.1h0c-.22.39-2.26,3.54-7.86,3.63-6,.09-12.9-2.79-13.69-6.52h0a17.58,17.58,0,0,0,3.88.58,22.66,22.66,0,0,0,10.32-2.32Z"/><path class="cls-12" d="M301,91.25h0l-7.39-4.59c-2.7,7-2.11,13.77,1.39,16.26l.5.31.68.43,6.46,4C299,105.34,298.26,98.41,301,91.25Z"/><path class="cls-8" d="M303.73,108.19a7.56,7.56,0,0,1-4.8.83l-7.39-4.6a7.52,7.52,0,0,0,4.66-.77l6.46,4A7.15,7.15,0,0,0,303.73,108.19Z"/><path class="cls-8" d="M311.9,125.56c-4.65,7-10.39,12.11-16,14.27l-7.4-4.6c4.8-1.84,9.67-5.79,13.87-11.24l2.88,1.79C307,126.88,309.3,126.88,311.9,125.56Z"/><path class="cls-12" d="M339.69,70.59c-1.68-.69-3.79-.49-6.08.73-6.91,3.7-12.27,14.85-11,22.78l-7.39-4.6c-1.27-7.93,4.08-19.08,11-22.78,3.08-1.64,5.81-1.43,7.67.26Z"/><path class="cls-12" d="M302.1,117.69l-4.19-2.6-3-1.88c-2.27-1.41-3.55-4.61-3.34-8.79L299,109C298.73,113.08,299.94,116.22,302.1,117.69Z"/><path class="cls-12" d="M305,125.64,302.33,124l-4.54-2.82a7.19,7.19,0,0,1-3-4.6l7.39,4.6A7.29,7.29,0,0,0,305,125.64Z"/></g></g><g id="freepik--Target--inject-8"><g id="freepik--target--inject-8-2" data-name="freepik--target--inject-8"><path class="cls-3" d="M442.43,255.5l1.1-1.78-5.59-3.67c-4.79-3.4-11.73-3.25-19.44,1.23-14.38,8.36-26,28.63-25.95,45.26,0,7.88,2.66,13.53,6.95,16.41h0l5.52,3.64.92-1.51c3.77.26,8.11-.86,12.73-3.55,14.39-8.36,26-28.62,26-45.26A24.71,24.71,0,0,0,442.43,255.5Z"/><path class="cls-12" d="M442.43,255.5l1.1-1.78-5.59-3.67c-4.79-3.4-11.73-3.25-19.44,1.23-14.38,8.36-26,28.63-25.95,45.26,0,7.88,2.66,13.53,6.95,16.41h0l5.52,3.64.92-1.51c3.77.26,8.11-.86,12.73-3.55,14.39-8.36,26-28.62,26-45.26A24.71,24.71,0,0,0,442.43,255.5Z"/><path class="cls-3" d="M450.32,270c.05,16.63-11.57,36.9-26,45.26s-26.08,1.65-26.12-15,11.57-36.9,25.95-45.26S450.27,253.38,450.32,270Z"/><path class="cls-5" d="M446,272.54c0,13.86-9.64,30.75-21.62,37.72s-21.74,1.37-21.78-12.49,9.64-30.75,21.63-37.72S445.94,258.67,446,272.54Z"/><path class="cls-3" d="M441.62,275.05c0,11.09-7.72,24.6-17.3,30.18s-17.37,1.11-17.4-10,7.71-24.6,17.3-30.18S441.6,264,441.62,275.05Z"/><path class="cls-5" d="M437.3,277.58c0,8.32-5.79,18.45-13,22.64s-13,.82-13.06-7.49,5.78-18.46,13-22.64S437.27,269.27,437.3,277.58Z"/><path class="cls-3" d="M424.25,275.11c-4.8,2.79-8.67,9.55-8.65,15.09s3.91,7.79,8.71,5,8.67-9.55,8.65-15.09S429.05,272.32,424.25,275.11Z"/><path class="cls-5" d="M424.26,280.13a9.64,9.64,0,0,0-4.32,7.55c0,2.77,1.95,3.89,4.35,2.5a9.64,9.64,0,0,0,4.33-7.55C428.61,279.86,426.66,278.74,424.26,280.13Z"/><polygon class="cls-3" points="467.73 307.55 461.93 305.14 458.33 304.97 458.33 305.62 463.83 308.8 467.73 308.2 467.73 307.55"/><polygon class="cls-3" points="458.33 304.97 461.93 305.14 467.73 307.55 463.83 308.15 458.33 304.97"/><polygon class="cls-12" points="463.83 308.8 463.83 308.15 467.73 307.55 467.73 308.2 463.83 308.8"/><polygon class="cls-7" points="463.83 308.15 458.33 304.97 458.33 305.62 463.83 308.8 463.83 308.15"/><polygon class="cls-9" points="433.62 287.59 424.71 285.15 424.71 286.39 428.63 291.71 430.78 289.65 430.78 289.65 433.62 288.83 433.62 287.59"/><polygon class="cls-11" points="424.71 285.15 428.63 290.47 430.78 288.42 430.78 288.42 433.62 287.59 424.71 285.15"/><polygon class="cls-10" points="428.63 290.47 428.63 291.71 430.78 289.65 430.78 288.42 428.63 290.47"/><polygon class="cls-10" points="430.78 288.42 433.62 287.59 433.62 288.83 430.78 289.65 430.78 288.42"/><path class="cls-11" d="M431.16,288.41a.4.4,0,0,0-.42,0,1.34,1.34,0,0,0-.6,1,.41.41,0,0,0,.18.39h0l36.28,21,.82-1.48Z"/><path class="cls-9" d="M430.27,289a1.28,1.28,0,0,0-.13.51.41.41,0,0,0,.18.39h0l36.28,21,.37-.67Z"/><path class="cls-10" d="M467,309.41a1.3,1.3,0,0,0-.59,1c0,.38.26.54.59.35a1.3,1.3,0,0,0,.59-1C467.6,309.38,467.34,309.22,467,309.41Z"/><polygon class="cls-3" points="463.44 309.02 463.44 309.02 463.44 308.37 457.95 305.19 457.95 305.85 458.24 307.92 462.4 311.28 463.44 309.03 463.44 309.02"/><polygon class="cls-12" points="457.95 305.19 458.25 307.27 458.24 307.92 457.95 305.85 457.95 305.19"/><polygon class="cls-12" points="463.44 308.37 462.4 310.62 462.4 311.27 463.44 309.02 463.44 308.37"/><polygon class="cls-7" points="458.25 307.27 462.4 310.62 462.4 311.27 458.24 307.92 458.25 307.27"/><polygon class="cls-3" points="467.49 261.45 461.69 263.86 458.1 264.03 458.1 263.38 463.59 260.2 467.49 260.8 467.49 261.45"/><polygon class="cls-3" points="458.1 264.03 461.69 263.86 467.49 261.45 463.59 260.85 458.1 264.03"/><polygon class="cls-12" points="463.59 260.2 463.59 260.85 467.49 261.45 467.49 260.8 463.59 260.2"/><polygon class="cls-7" points="463.59 260.85 458.1 264.03 458.1 263.38 463.59 260.2 463.59 260.85"/><polygon class="cls-9" points="433.38 281.41 424.48 283.85 424.48 282.61 428.39 277.3 430.54 279.35 430.54 279.35 433.38 280.17 433.38 281.41"/><polygon class="cls-11" points="424.48 283.85 428.39 278.53 430.54 280.59 430.54 280.59 433.38 281.41 424.48 283.85"/><polygon class="cls-10" points="428.39 278.53 428.39 277.3 430.54 279.35 430.54 280.59 428.39 278.53"/><polygon class="cls-10" points="430.54 280.59 433.38 281.41 433.38 280.17 430.54 279.35 430.54 280.59"/><path class="cls-11" d="M430.92,280.59a.4.4,0,0,1-.42,0,1.34,1.34,0,0,1-.6-1,.41.41,0,0,1,.18-.39h0l36.28-21,.82,1.47Z"/><path class="cls-9" d="M430,280a1,1,0,0,1-.14-.51.41.41,0,0,1,.18-.39h0l36.28-21,.37.66Z"/><path class="cls-10" d="M466.77,259.59a1.3,1.3,0,0,1-.59-1c0-.38.26-.54.59-.35a1.3,1.3,0,0,1,.59,1C467.36,259.62,467.1,259.78,466.77,259.59Z"/><polygon class="cls-3" points="463.2 259.98 463.2 259.98 463.2 260.63 457.71 263.81 457.71 263.15 458 261.08 462.16 257.72 463.2 259.98 463.2 259.98"/><polygon class="cls-12" points="457.71 263.81 458.01 261.73 458 261.08 457.71 263.15 457.71 263.81"/><polygon class="cls-12" points="463.2 260.63 462.16 258.38 462.16 257.73 463.2 259.98 463.2 260.63"/><polygon class="cls-7" points="458.01 261.73 462.16 258.38 462.16 257.73 458 261.08 458.01 261.73"/></g></g><g id="box"><g id="freepik--speech-bubble--inject-8"><g id="freepik--speech-bubble--inject-8-2" data-name="freepik--speech-bubble--inject-8"><path class="cls-3" d="M363.73,279.23l-4.31-11.05,3.47-10V252l-10.62,6.13v6.13l4.57,10.85a.68.68,0,0,0,.31.27h0Z"/><path class="cls-12" d="M363.73,279.23l-4.31-11.05,3.47-10V252l-10.62,6.13v6.13l4.57,10.85a.68.68,0,0,0,.31.27h0Z"/><path class="cls-3" d="M389.36,232.3a7,7,0,0,0-3.18-5.51L385,226a7.05,7.05,0,0,0-6.36,0l-43.27,25a7,7,0,0,0-3.18,5.51v14.62a7,7,0,0,0,3.18,5.51l1.22.75a7,7,0,0,0,6.36,0l16-9.25L363.49,279a.68.68,0,0,0,.93.25.66.66,0,0,0,.3-.36L369.54,262l16.64-9.61a7,7,0,0,0,3.18-5.51Z"/><path class="cls-12" d="M332.15,271.15a7,7,0,0,0,3.18,5.51l1.22.75a7.08,7.08,0,0,0,5.82.26c-1.5.56-2.64-.28-2.64-2.1V261a6.56,6.56,0,0,1,.93-3.14l-7.58-4.42a6.52,6.52,0,0,0-.93,3.13Z"/><path class="cls-14" d="M389.26,231.4c-.37-1.35-1.61-1.78-3.08-.94l-43.27,25a6.15,6.15,0,0,0-2.24,2.37l-7.58-4.41a6.47,6.47,0,0,1,2.24-2.38l43.26-25a7.07,7.07,0,0,1,6.37,0l1.22.75A7.11,7.11,0,0,1,389.26,231.4Z"/></g><path class="cls-5" d="M345.64,270.69a1.6,1.6,0,0,1-1.18,0,.53.53,0,0,1-.22-.46,3,3,0,0,1,.25-1.11,1.59,1.59,0,0,1,.56-.81.89.89,0,0,1,.43-.08h.43a2.6,2.6,0,0,0,1.16-.34,3.25,3.25,0,0,0,.91-.78,1.58,1.58,0,0,0,.39-1.08,1,1,0,0,0-.2-.66.86.86,0,0,0-.5-.23,6,6,0,0,0-.85,0,2.85,2.85,0,0,1-1.86-.46,2.36,2.36,0,0,1-.57-1.85,5.1,5.1,0,0,1,1-2.94,7.89,7.89,0,0,1,2.57-2.34,4.9,4.9,0,0,1,1.22-.53,2.27,2.27,0,0,1,1-.14c.21,0,.31.16.31.41a3.42,3.42,0,0,1-.2,1,1.39,1.39,0,0,1-.48.77,2.13,2.13,0,0,1-.49.15,3.27,3.27,0,0,0-1.1.38,2.42,2.42,0,0,0-.92.82,1.65,1.65,0,0,0-.26.8c0,.42.11.67.33.77a2.81,2.81,0,0,0,1,.12h.39a2.46,2.46,0,0,1,1.68.48,2.35,2.35,0,0,1,.51,1.75,5.49,5.49,0,0,1-.4,2,6.88,6.88,0,0,1-1.23,2,8,8,0,0,1-2.05,1.67A6.89,6.89,0,0,1,345.64,270.69Z"/><path class="cls-5" d="M352.13,266.54v-10.8c0-.36.33-.73,1-1.1l.71-.41c.64-.37,1-.38,1,0v4.17l2.89-1.67v-4.17c0-.36.33-.72,1-1.1l.69-.4c.65-.38,1-.38,1,0v10.81c0,.36-.33.72-1,1.1l-.69.4c-.65.38-1,.38-1,0V259l-2.89,1.67V265c0,.36-.32.73-1,1.1l-.71.41C352.46,266.89,352.13,266.9,352.13,266.54Z"/><path class="cls-5" d="M361.33,261.4a1.26,1.26,0,0,1,.05-.33l2.6-12.24c.08-.36.42-.71,1-1.06l1.1-.64c.62-.35,1-.4,1-.13l2.6,9.23v.29c0,.25-.25.51-.73.79l-.89.52c-.54.31-.84.36-.9.16l-.44-1.81-2.56,1.48L363.7,260c0,.27-.31.54-.79.82l-.88.5C361.6,261.62,361.33,261.65,361.33,261.4Zm5.22-7.11-.76-3.14q-.12-.54-.21-1.17l-.08.05c-.06.48-.12.95-.2,1.4l-.75,4Z"/><path class="cls-5" d="M370.73,255.8V245.17a1.06,1.06,0,0,1,.16-.6,1.44,1.44,0,0,1,.52-.46l2.81-1.63a3.65,3.65,0,0,1,2.5-.67c.63.14.95.82.95,2a5.63,5.63,0,0,1-1.61,3.77v.07a.92.92,0,0,1,.68.29,1.86,1.86,0,0,1,.45.75l1,2.66.05.18q0,.45-1.05,1.05l-.59.35c-.59.34-.93.38-1,.13l-.89-2.69a.55.55,0,0,0-.35-.33,1.08,1.08,0,0,0-.62.21l-.4.23v3.81c0,.36-.34.74-1,1.13l-.58.33C371.07,256.15,370.73,256.16,370.73,255.8Zm3.54-8.32a1.76,1.76,0,0,0,.64-.74,2.75,2.75,0,0,0,.26-1.23c0-.47-.09-.76-.26-.88a.62.62,0,0,0-.69.06l-.89.52V248Z"/><path class="cls-5" d="M379.59,251c-.1,0-.15-.2-.15-.43V240.15a1.2,1.2,0,0,1,.15-.61,1.29,1.29,0,0,1,.47-.43l5-2.87c.17-.1.29-.11.37,0a1,1,0,0,1,.12.58v.52a1.74,1.74,0,0,1-.12.71.84.84,0,0,1-.37.42l-3,1.71v2.45l2.63-1.52c.17-.1.3-.1.37,0a.94.94,0,0,1,.12.57v.52a1.74,1.74,0,0,1-.12.71.8.8,0,0,1-.37.42l-2.63,1.52v2.73l3-1.72q.26-.15.36,0a1.06,1.06,0,0,1,.11.58V247a1.92,1.92,0,0,1-.11.71.85.85,0,0,1-.36.41l-5,2.88A.55.55,0,0,1,379.59,251Z"/></g><g id="freepik--speech-bubble--inject-8-3" data-name="freepik--speech-bubble--inject-8"><g id="freepik--speech-bubble--inject-8-4" data-name="freepik--speech-bubble--inject-8"><path class="cls-3" d="M319,249.5l-4.31-11.05,3.47-10v-6.13l-10.61,6.13v6.12l4.56,10.85a.7.7,0,0,0,.31.28h0Z"/><path class="cls-12" d="M319,249.5l-4.31-11.05,3.47-10v-6.13l-10.61,6.13v6.12l4.56,10.85a.7.7,0,0,0,.31.28h0Z"/><path class="cls-3" d="M347.92,200.62a7,7,0,0,0-3.18-5.51l-1.22-.75a7.05,7.05,0,0,0-6.36,0l-49.93,28.83a7,7,0,0,0-3.18,5.51v14.61a7,7,0,0,0,3.18,5.52l1.22.74a7,7,0,0,0,6.36,0l19.35-11.15,4.56,10.84a.68.68,0,0,0,.93.24.66.66,0,0,0,.3-.36l4.81-16.84,20-11.55a7,7,0,0,0,3.18-5.51Z"/><path class="cls-12" d="M284.05,243.31a7,7,0,0,0,3.18,5.52l1.22.74a7.08,7.08,0,0,0,5.82.26c-1.5.57-2.64-.28-2.64-2.09V233.12a6.56,6.56,0,0,1,.93-3.14L285,225.56a6.56,6.56,0,0,0-.93,3.14Z"/><path class="cls-14" d="M347.82,199.72c-.37-1.35-1.61-1.78-3.08-.94l-49.93,28.83a6.25,6.25,0,0,0-2.24,2.38L285,225.57a6.5,6.5,0,0,1,2.25-2.38l49.91-28.83a7.07,7.07,0,0,1,6.37,0l1.22.75A7,7,0,0,1,347.82,199.72Z"/></g><path class="cls-5" d="M296.81,241.93v-9.57a1,1,0,0,1,.14-.55,1.31,1.31,0,0,1,.42-.39l4.18-2.41q.22-.13.33,0a.86.86,0,0,1,.11.52V230a1.54,1.54,0,0,1-.11.64.75.75,0,0,1-.33.37l-2.37,1.37v2.22l2.23-1.29c.15-.09.26-.09.34,0a.83.83,0,0,1,.1.51v.47a1.54,1.54,0,0,1-.1.64.84.84,0,0,1-.34.38l-2.23,1.29v4c0,.32-.3.65-.88,1l-.61.35C297.1,242.24,296.81,242.25,296.81,241.93Z"/><path class="cls-5" d="M303,233.52c0-3.62,1.32-6.2,4-7.74,1.29-.74,2.28-.87,2.95-.38s1,1.67,1,3.53a10.06,10.06,0,0,1-1,4.7,7.53,7.53,0,0,1-2.95,3C304.27,238.19,303,237.15,303,233.52Zm4.87.33a3.82,3.82,0,0,0,.5-1.34,12.36,12.36,0,0,0,.17-2.19,9,9,0,0,0-.17-2c-.11-.43-.28-.69-.5-.76a1.1,1.1,0,0,0-.88.2,2.59,2.59,0,0,0-.89.82,3.63,3.63,0,0,0-.51,1.35,11.39,11.39,0,0,0-.18,2.18,8.42,8.42,0,0,0,.18,2c.11.44.28.69.51.76a1.18,1.18,0,0,0,.89-.21,2.47,2.47,0,0,0,.83-.81Z"/><path class="cls-5" d="M312.47,233.19c-.09,0-.14-.17-.14-.38v-9.57c0-.32.3-.66.89-1l.6-.36c.59-.34.88-.34.88,0v8.19l2.27-1.31c.16-.09.28-.1.35,0a.86.86,0,0,1,.1.52v.47a1.54,1.54,0,0,1-.1.64.76.76,0,0,1-.35.38l-4.07,2.35C312.7,233.21,312.56,233.24,312.47,233.19Z"/><path class="cls-5" d="M318.67,229.62c-.09-.05-.14-.17-.14-.39v-9.57c0-.32.3-.65.88-1l.61-.35c.59-.34.88-.35.88,0v8.19l2.27-1.3c.16-.1.27-.11.35,0a.83.83,0,0,1,.1.51v.47a1.54,1.54,0,0,1-.1.64.94.94,0,0,1-.35.39l-4.07,2.34A.62.62,0,0,1,318.67,229.62Z"/><path class="cls-5" d="M324.14,221.29q0-5.44,4-7.74c1.3-.75,2.28-.88,2.95-.38s1,1.67,1,3.53a9.79,9.79,0,0,1-1,4.7,7.53,7.53,0,0,1-2.95,3C325.48,226,324.15,224.92,324.14,221.29Zm4.88.32a3.75,3.75,0,0,0,.5-1.34,12.24,12.24,0,0,0,.16-2.18,9,9,0,0,0-.16-2c-.11-.44-.28-.69-.5-.77a1.18,1.18,0,0,0-.89.21,2.73,2.73,0,0,0-.88.81,3.76,3.76,0,0,0-.52,1.36,11.29,11.29,0,0,0-.18,2.17,8.42,8.42,0,0,0,.18,2c.12.44.29.7.52.77a1.15,1.15,0,0,0,.88-.21,2.53,2.53,0,0,0,.87-.82Z"/><path class="cls-5" d="M334.7,220.46a.14.14,0,0,1-.19-.09.06.06,0,0,1,0,0l-2-8.6a.29.29,0,0,1,0-.13v-.1c0-.26.3-.57.9-.91l.44-.26c.6-.35.93-.38,1-.09l.71,5.2.14,1,.14,1.11.27-2a4,4,0,0,0,.07-.48l.93-6.3a.58.58,0,0,1,.19-.35,2.45,2.45,0,0,1,.53-.38l.76-.44a2,2,0,0,1,.52-.23c.11,0,.17,0,.19.14l.91,5.23.34,2.14.21-1.75.09-.75.73-6c0-.34.36-.68,1-1l.35-.21q.9-.51.9-.12a1,1,0,0,1,0,.24l-2,10.92c0,.23-.28.48-.71.73l-1,.58c-.4.23-.63.26-.68.07l-1-4.76-.17-1.53L338,213,337,219c0,.23-.27.47-.68.71l-1,.58A1.63,1.63,0,0,1,334.7,220.46Z"/></g></g><g id="freepik--Envelopes--inject-8"><g id="freepik--Mails--inject-8"><g id="freepik--Letter--inject-8"><path class="cls-3" d="M229.33,173.21l42-24.25a.86.86,0,0,1,1.05,0c.25.2,2.62,1.45,2.88,1.64a1.33,1.33,0,0,1,.44,1.13v37.8a3.47,3.47,0,0,1-1.45,2.77l-7.37,4.26-38.55-22.25A2.79,2.79,0,0,1,229.33,173.21Z"/><path class="cls-14" d="M229.33,173.21l42-24.25a.86.86,0,0,1,1.05,0c.25.2,2.62,1.45,2.88,1.64a1.33,1.33,0,0,1,.44,1.13v37.8a3.47,3.47,0,0,1-1.45,2.77l-7.37,4.26-38.55-22.25A2.79,2.79,0,0,1,229.33,173.21Z"/><path class="cls-3" d="M231.28,216.61c-.29-.19-2.68-1.51-2.94-1.69a1.34,1.34,0,0,1-.46-1.14V176a3.49,3.49,0,0,1,.46-1.67l38.55,22.25-34.63,20A.91.91,0,0,1,231.28,216.61Z"/><path class="cls-12" d="M231.28,216.61c-.29-.19-2.68-1.51-2.94-1.69a1.34,1.34,0,0,1-.46-1.14V176a3.49,3.49,0,0,1,.46-1.67l38.55,22.25-34.63,20A.91.91,0,0,1,231.28,216.61Z"/><path class="cls-3" d="M232.26,216.55l42-24.25a3.47,3.47,0,0,0,1.45-2.77v-37.8c0-1.06-.65-1.55-1.45-1.09l-42,24.25a3.47,3.47,0,0,0-1.45,2.77v37.8C230.81,216.52,231.46,217,232.26,216.55Z"/><path class="cls-12" d="M230.81,215.46v-.75l17.37-28.78L231,176.43l.13-.31L252.52,185c.45.18,1-.15,1.49-.86l21.33-33.52.13.15L258.35,180l17.36,8.73v.74a3.9,3.9,0,0,1-.43,1.71l-17.81-9.67-2.53,4.31c-1,1.71-2.36,2.5-3.36,1.94l-2.52-1.4-17.78,30.19A1.33,1.33,0,0,1,230.81,215.46Z"/></g><g id="freepik--letter--inject-8-2" data-name="freepik--letter--inject-8"><path class="cls-3" d="M239.76,179.34l42-24.25a.9.9,0,0,1,1.06,0c.24.21,2.62,1.46,2.88,1.64a1.36,1.36,0,0,1,.44,1.14v37.8a3.5,3.5,0,0,1-1.45,2.77l-7.38,4.25-38.54-22.25A2.84,2.84,0,0,1,239.76,179.34Z"/><path class="cls-14" d="M239.76,179.34l42-24.25a.9.9,0,0,1,1.06,0c.24.21,2.62,1.46,2.88,1.64a1.36,1.36,0,0,1,.44,1.14v37.8a3.5,3.5,0,0,1-1.45,2.77l-7.38,4.25-38.54-22.25A2.84,2.84,0,0,1,239.76,179.34Z"/><path class="cls-3" d="M241.7,222.74c-.28-.18-2.67-1.51-2.93-1.68a1.36,1.36,0,0,1-.46-1.15v-37.8a3.61,3.61,0,0,1,.46-1.67l38.54,22.25-34.62,20A.91.91,0,0,1,241.7,222.74Z"/><path class="cls-12" d="M241.7,222.74c-.28-.18-2.67-1.51-2.93-1.68a1.36,1.36,0,0,1-.46-1.15v-37.8a3.61,3.61,0,0,1,.46-1.67l38.54,22.25-34.62,20A.91.91,0,0,1,241.7,222.74Z"/><path class="cls-3" d="M242.69,222.69l42-24.25a3.5,3.5,0,0,0,1.45-2.77v-37.8c0-1.07-.65-1.56-1.45-1.1l-42,24.25a3.5,3.5,0,0,0-1.45,2.77v37.8C241.24,222.66,241.89,223.15,242.69,222.69Z"/><path class="cls-12" d="M241.24,221.59v-.74l17.36-28.78-17.14-9.5a2.88,2.88,0,0,1,.13-.31l21.35,8.9c.46.19,1-.15,1.49-.86l21.33-33.51a.86.86,0,0,1,.13.14L268.78,186.2l17.36,8.72v.75a3.74,3.74,0,0,1-.44,1.7l-17.81-9.67-2.52,4.3c-1,1.71-2.36,2.5-3.36,2l-2.53-1.4L241.7,222.74A1.37,1.37,0,0,1,241.24,221.59Z"/></g><g id="freepik--letter--inject-8-3" data-name="freepik--letter--inject-8"><path class="cls-3" d="M250.18,185.48l42-24.25a.87.87,0,0,1,1.06,0c.24.2,2.61,1.45,2.87,1.64a1.3,1.3,0,0,1,.44,1.13v37.8a3.44,3.44,0,0,1-1.45,2.77l-7.37,4.26-38.55-22.25A2.79,2.79,0,0,1,250.18,185.48Z"/><path class="cls-14" d="M250.18,185.48l42-24.25a.87.87,0,0,1,1.06,0c.24.2,2.61,1.45,2.87,1.64a1.3,1.3,0,0,1,.44,1.13v37.8a3.44,3.44,0,0,1-1.45,2.77l-7.37,4.26-38.55-22.25A2.79,2.79,0,0,1,250.18,185.48Z"/><path class="cls-3" d="M252.13,228.88c-.29-.19-2.68-1.51-2.94-1.69a1.34,1.34,0,0,1-.46-1.14v-37.8a3.49,3.49,0,0,1,.46-1.67l38.55,22.25-34.63,20A.9.9,0,0,1,252.13,228.88Z"/><path class="cls-12" d="M252.13,228.88c-.29-.19-2.68-1.51-2.94-1.69a1.34,1.34,0,0,1-.46-1.14v-37.8a3.49,3.49,0,0,1,.46-1.67l38.55,22.25-34.63,20A.9.9,0,0,1,252.13,228.88Z"/><path class="cls-3" d="M253.11,228.82l42-24.25a3.44,3.44,0,0,0,1.45-2.77V164c0-1.06-.64-1.55-1.45-1.09l-42,24.25a3.47,3.47,0,0,0-1.45,2.77v37.8C251.66,228.79,252.31,229.28,253.11,228.82Z"/><path class="cls-12" d="M251.66,227.73V227L269,198.2l-17.15-9.5.13-.31,21.36,8.91c.45.18,1-.15,1.49-.86l21.33-33.52a.86.86,0,0,1,.13.14L279.2,192.33l17.36,8.73v.74a3.9,3.9,0,0,1-.43,1.71l-17.81-9.67-2.52,4.31c-1,1.71-2.37,2.5-3.37,1.94l-2.52-1.4-17.78,30.19A1.35,1.35,0,0,1,251.66,227.73Z"/></g></g></g><g id="freepik--Device--inject-8"><g id="freepik--Mobile--inject-8"><g id="freepik--mobile--inject-8-2" data-name="freepik--mobile--inject-8"><path class="cls-3" d="M433.31,372.84,313.63,441.93a12.93,12.93,0,0,1-12.49.24L60.19,303c-3.8-2.19-6.88-7.09-6.88-11s3.08-8.75,6.87-10.95L179.43,212.3a15.25,15.25,0,0,1,13.74,0L433.31,351c3.8,2.19,6.88,7.09,6.88,10.95S437.11,370.65,433.31,372.84Z"/><path class="cls-15" d="M179.43,212.3,60.18,281.14c-3.79,2.2-6.87,7.1-6.87,10.95s3.08,8.76,6.88,11l241,139.13a13.47,13.47,0,0,0,6,1.48V278.09l-114-65.79A15.23,15.23,0,0,0,179.43,212.3Z"/><path class="cls-16" d="M313.63,441.93l119.68-69.09c3.8-2.19,6.88-7.09,6.88-10.94s-3.08-8.76-6.88-10.95L307.12,278.09V443.65A12.71,12.71,0,0,0,313.63,441.93Z"/><path class="cls-3" d="M310.78,429.62a13.41,13.41,0,0,1-12.12,0L60.16,291.92c-5.13-3-5.13-7.8,0-10.76L179.42,212.3a15.25,15.25,0,0,1,13.74,0L433.3,351c3.78,2.18,3.78,5.75,0,7.93Z"/><path class="cls-8" d="M310.78,429.62a13.41,13.41,0,0,1-12.12,0L60.16,291.92c-5.13-3-5.13-7.8,0-10.76L179.42,212.3a15.25,15.25,0,0,1,13.74,0L433.3,351c3.78,2.18,3.78,5.75,0,7.93Z"/><path class="cls-9" d="M299.2,415.76a14.45,14.45,0,0,1-13.06,0L80.91,297.27c-3.61-2.08-3.61-5.46,0-7.54L193.1,225a14.51,14.51,0,0,1,13.06,0L411.39,343.45c3.59,2.07,3.59,5.47,0,7.54Z"/><path class="cls-10" d="M199.23,223.43A13,13,0,0,0,193.1,225L80.91,289.73c-3.61,2.08-3.61,5.46,0,7.54l22.24,12.84,96.08-61.36Z"/><path class="cls-11" d="M206.24,229.86a14.51,14.51,0,0,0-13.06,0L81,294.63A6.34,6.34,0,0,0,79.28,296a7.16,7.16,0,0,0,1.63,1.27L286.14,415.76a14.45,14.45,0,0,0,13.06,0L411.39,351a6.66,6.66,0,0,0,1.69-1.35,6.67,6.67,0,0,0-1.61-1.29Z"/><path class="cls-9" d="M121.92,259.43,141.8,248c1.19-.68,1.25-1.76.13-2.4a4.59,4.59,0,0,0-4.16.08l-19.88,11.48c-1.19.68-1.25,1.76-.13,2.4A4.59,4.59,0,0,0,121.92,259.43Z"/><path class="cls-9" d="M156.06,239.75a1.23,1.23,0,0,0,0-2.33,4.47,4.47,0,0,0-4,0,1.23,1.23,0,0,0,0,2.33A4.47,4.47,0,0,0,156.06,239.75Z"/><path class="cls-9" d="M164.12,235.09a1.23,1.23,0,0,0,0-2.33,4.47,4.47,0,0,0-4,0,1.23,1.23,0,0,0,0,2.33A4.47,4.47,0,0,0,164.12,235.09Z"/><path class="cls-9" d="M99.64,272.32a1.23,1.23,0,0,0,0-2.33,4.47,4.47,0,0,0-4,0,1.23,1.23,0,0,0,0,2.33A4.47,4.47,0,0,0,99.64,272.32Z"/><path class="cls-9" d="M107.7,267.66a1.23,1.23,0,0,0,0-2.33,4.47,4.47,0,0,0-4,0,1.23,1.23,0,0,0,0,2.33A4.47,4.47,0,0,0,107.7,267.66Z"/><path class="cls-3" d="M135.77,338.8a4.62,4.62,0,0,1,2.15,3.56,1.36,1.36,0,0,1-.59,1.26l-1.51.87a1.57,1.57,0,0,1-1.55-.17l-27.94-16.14a4.62,4.62,0,0,1-2.15-3.56,1.37,1.37,0,0,1,.54-1.23c.27-.17,1.29-.75,1.55-.9a1.59,1.59,0,0,1,1.56.17Z"/><path class="cls-16" d="M135.77,338.8a4.62,4.62,0,0,1,2.15,3.56,1.36,1.36,0,0,1-.59,1.26l-1.51.87a1.57,1.57,0,0,1-1.55-.17l-27.94-16.14a4.62,4.62,0,0,1-2.15-3.56,1.37,1.37,0,0,1,.54-1.23c.27-.17,1.29-.75,1.55-.9a1.59,1.59,0,0,1,1.56.17Z"/><path class="cls-3" d="M134.27,339.66l-27.94-16.13c-1.19-.69-2.15-.2-2.15,1.09a4.62,4.62,0,0,0,2.15,3.56l27.94,16.14c1.19.68,2.15.19,2.15-1.09A4.61,4.61,0,0,0,134.27,339.66Z"/><path class="cls-8" d="M134.27,339.66l-27.94-16.13c-1.19-.69-2.15-.2-2.15,1.09a4.62,4.62,0,0,0,2.15,3.56l27.94,16.14c1.19.68,2.15.19,2.15-1.09A4.61,4.61,0,0,0,134.27,339.66Z"/><path class="cls-3" d="M98.37,317.2a4.63,4.63,0,0,1,2.14,3.57,1.32,1.32,0,0,1-.59,1.25c-.26.14-1.23.73-1.5.88a1.62,1.62,0,0,1-1.55-.18L83.7,315.11a4.62,4.62,0,0,1-2.15-3.56,1.37,1.37,0,0,1,.54-1.23l1.55-.9a1.57,1.57,0,0,1,1.55.18Z"/><path class="cls-16" d="M98.37,317.2a4.63,4.63,0,0,1,2.14,3.57,1.32,1.32,0,0,1-.59,1.25c-.26.14-1.23.73-1.5.88a1.62,1.62,0,0,1-1.55-.18L83.7,315.11a4.62,4.62,0,0,1-2.15-3.56,1.37,1.37,0,0,1,.54-1.23l1.55-.9a1.57,1.57,0,0,1,1.55.18Z"/><path class="cls-3" d="M96.87,318.07,83.7,310.46c-1.19-.68-2.15-.2-2.15,1.09a4.62,4.62,0,0,0,2.15,3.56l13.17,7.61c1.19.69,2.15.2,2.15-1.09A4.62,4.62,0,0,0,96.87,318.07Z"/><path class="cls-8" d="M96.87,318.07,83.7,310.46c-1.19-.68-2.15-.2-2.15,1.09a4.62,4.62,0,0,0,2.15,3.56l13.17,7.61c1.19.69,2.15.2,2.15-1.09A4.62,4.62,0,0,0,96.87,318.07Z"/></g></g><g id="freepik--Message--inject-8"><g id="freepik--message--inject-8-2" data-name="freepik--message--inject-8"><path class="cls-3" d="M246.17,362.78v.81a4.47,4.47,0,0,0,2,3.51l43.51,25.12a4.47,4.47,0,0,0,4.06,0l72.05-41.6a4.46,4.46,0,0,0,2-3.51v-.81a4.47,4.47,0,0,0-2-3.51l-43.51-25.12a4.47,4.47,0,0,0-4.06,0l-72.05,41.6A4.46,4.46,0,0,0,246.17,362.78Z"/><path class="cls-3" d="M246.17,362.78v.81a4.47,4.47,0,0,0,2,3.51l43.51,25.12a4.47,4.47,0,0,0,4.06,0l72.05-41.6a4.46,4.46,0,0,0,2-3.51v-.81a4.47,4.47,0,0,0-2-3.51l-43.51-25.12a4.47,4.47,0,0,0-4.06,0l-72.05,41.6A4.46,4.46,0,0,0,246.17,362.78Z"/><path class="cls-17" d="M367.82,342.79l-43.51-25.12a4.47,4.47,0,0,0-4.06,0L293.74,333v59.74h0a4.09,4.09,0,0,0,2-.49l72.05-41.6a4.46,4.46,0,0,0,2-3.51v-.81A4.5,4.5,0,0,0,367.82,342.79Z"/><path class="cls-4" d="M367.82,342.79l-43.51-25.12a4.47,4.47,0,0,0-4.06,0L293.74,333v59.74h0a4.09,4.09,0,0,0,2-.49l72.05-41.6a4.46,4.46,0,0,0,2-3.51v-.81A4.5,4.5,0,0,0,367.82,342.79Z"/><path class="cls-17" d="M293.74,333,248.2,359.3a4.46,4.46,0,0,0-2,3.51v.81a4.47,4.47,0,0,0,2,3.51l43.51,25.12a4.09,4.09,0,0,0,2,.49h0Z"/><path class="cls-12" d="M293.74,333,248.2,359.3a4.46,4.46,0,0,0-2,3.51v.81a4.47,4.47,0,0,0,2,3.51l43.51,25.12a4.09,4.09,0,0,0,2,.49h0Z"/><path class="cls-3" d="M284.74,382.71l-36.54-21.1a1.23,1.23,0,0,1-.79-1.55,1.24,1.24,0,0,1,.79-.79l72.05-41.6a4.47,4.47,0,0,1,4.06,0l43.51,25.12a1.23,1.23,0,0,1,.79,1.55,1.24,1.24,0,0,1-.79.79L355.87,352l-4.19,2.42L295.77,386.7a4.47,4.47,0,0,1-4.06,0l-3.54-2.05Z"/><path class="cls-17" d="M284.74,382.71l-36.54-21.1a1.23,1.23,0,0,1-.79-1.55,1.24,1.24,0,0,1,.79-.79l72.05-41.6a4.47,4.47,0,0,1,4.06,0l43.51,25.12a1.23,1.23,0,0,1,.79,1.55,1.24,1.24,0,0,1-.79.79L355.87,352l-4.19,2.42L295.77,386.7a4.47,4.47,0,0,1-4.06,0l-3.54-2.05Z"/><path class="cls-4" d="M317.92,347.66l49.9-4.87-49.46,2.8,5.95-27.92a4.23,4.23,0,0,0-2.21-.47L312.77,355l-65.39,5.39a1.35,1.35,0,0,0,.82,1.27l52.8-3.12-7.27,28.68L303,358.43h0l9-.53a4.8,4.8,0,0,0,3-1.24h0a4.86,4.86,0,0,0,1.52-2.62Z"/><path class="cls-17" d="M263,359.05l49.79-4.1,1.78-7.14,1-4,6.58-26.64a4.14,4.14,0,0,0-1.86.47l-36,20.8-36,20.8a1.45,1.45,0,0,0-.82,1.07l10-.82Z"/><path class="cls-18" d="M314,311.71c4.55-2.63,11.93-2.63,16.48,0s4.55,6.89,0,9.51-11.93,2.63-16.48,0S309.49,314.34,314,311.71Z"/><path class="cls-19" d="M316.52,318a.61.61,0,0,1-.34-.12.21.21,0,0,1-.09-.23l.68-3a.41.41,0,0,1,.08-.27.47.47,0,0,1,.25-.27l1.66-1a.81.81,0,0,1,.74,0l8.83,5.1a.23.23,0,0,1,.15.21.25.25,0,0,1-.15.21l-1.79,1a.81.81,0,0,1-.74,0l-6-3.44-.4,1.65c0,.08-.08.15-.19.2a.86.86,0,0,1-.39.06Z"/></g><path class="cls-19" d="M204.64,346.33l32.23-18.6,22,5.45a2.37,2.37,0,0,0,2.47-3.71l-8.26-11.12,32.22-18.61c2.38-1.38,2.38-3.63,0-5L220.85,257.5a9.64,9.64,0,0,0-8.66,0l-80.67,46.62c-2.38,1.37-2.38,3.62,0,5L196,346.33A9.6,9.6,0,0,0,204.64,346.33Z"/><path class="cls-3" d="M164.85,297.27a26.07,26.07,0,0,1,6.05-2.58,28.23,28.23,0,0,1,5.77-1,20.69,20.69,0,0,1,5.15.31,18,18,0,0,1,4.18,1.33c1.33.67,2.71,1.4,4.12,2.19a41.59,41.59,0,0,1,3.78,2.37,8,8,0,0,1,2.3,2.42,4.22,4.22,0,0,1,.55,3A7.07,7.07,0,0,1,195,308.6a17.19,17.19,0,0,1-4.52,3.47,26.07,26.07,0,0,1-11.74,3.61,20.7,20.7,0,0,1-5.15-.32A18.07,18.07,0,0,1,169.4,314q-2-1-4.11-2.19a43.24,43.24,0,0,1-3.79-2.38,7.75,7.75,0,0,1-2.29-2.41,4.27,4.27,0,0,1-.55-3,7.53,7.53,0,0,1,1.71-3.33A16.76,16.76,0,0,1,164.85,297.27Zm20.45,6.78a8.94,8.94,0,0,0-1.27-.83l-1.92-1.11L180.18,301a10.68,10.68,0,0,0-1.43-.73,8.79,8.79,0,0,0-3.49-.78,8.16,8.16,0,0,0-4.28,1.32c-1.59.92-2.36,1.74-2.3,2.47a2.92,2.92,0,0,0,1.36,2,11.68,11.68,0,0,0,1.23.85c.58.37,1.21.75,1.88,1.13s1.32.75,2,1.09a15.48,15.48,0,0,0,1.48.71,8.79,8.79,0,0,0,3.49.78,8.25,8.25,0,0,0,4.28-1.32c1.59-.92,2.36-1.74,2.29-2.48A2.82,2.82,0,0,0,185.3,304.05Zm14.23-24.82a2.41,2.41,0,0,1,.19-1.27,3.43,3.43,0,0,1,1.42-1.22l4.93-2.85a4.56,4.56,0,0,1,1.83-.61,2.75,2.75,0,0,1,1.57.29,1.27,1.27,0,0,1,.27.25,1,1,0,0,1,.18.39l5.67,50.17a2.49,2.49,0,0,1-.2,1.26,3.23,3.23,0,0,1-1.41,1.23l-4.93,2.85a4.4,4.4,0,0,1-1.83.6,2.67,2.67,0,0,1-1.57-.28,1.16,1.16,0,0,1-.28-.26,1.38,1.38,0,0,1-.18-.39Zm25.91,11.92a26.53,26.53,0,0,1,6.05-2.59,27.56,27.56,0,0,1,5.77-1,20.69,20.69,0,0,1,5.15.31,18,18,0,0,1,4.18,1.33c1.33.67,2.71,1.39,4.12,2.18a39.48,39.48,0,0,1,3.78,2.38,7.9,7.9,0,0,1,2.3,2.41,4.27,4.27,0,0,1,.55,3,7.14,7.14,0,0,1-1.75,3.31,17.35,17.35,0,0,1-4.52,3.47,26.2,26.2,0,0,1-6,2.6,25.4,25.4,0,0,1-5.73,1,20.69,20.69,0,0,1-5.15-.31,18.09,18.09,0,0,1-4.19-1.33c-1.34-.65-2.71-1.37-4.11-2.18s-2.66-1.6-3.79-2.38a8.14,8.14,0,0,1-2.29-2.42,4.22,4.22,0,0,1-.55-3A7.53,7.53,0,0,1,221,294.6,16.32,16.32,0,0,1,225.44,291.15Zm20.45,6.77a9.48,9.48,0,0,0-1.27-.82L242.7,296l-1.93-1.11a11.39,11.39,0,0,0-1.43-.74,9.14,9.14,0,0,0-3.49-.78,8.38,8.38,0,0,0-4.29,1.32c-1.58.92-2.35,1.75-2.29,2.48a2.92,2.92,0,0,0,1.36,2,12.78,12.78,0,0,0,1.22.86c.59.37,1.22.75,1.89,1.13s1.32.75,2,1.09,1.14.57,1.48.71a9,9,0,0,0,3.49.78,8.26,8.26,0,0,0,4.28-1.33c1.59-.91,2.35-1.74,2.29-2.47a2.87,2.87,0,0,0-1.39-2Z"/></g></g><g id="megaphone"><g id="freepik--megaphone--inject-8"><path class="cls-9" d="M83.75,101.58,96.87,94v60.36c0,2.27,2.63,4.54,2.63,4.54l-13.12,7.58s-2.63-2.28-2.63-4.55Z"/><path class="cls-11" d="M67.8,101.45l5.53,7v26.23a39.09,39.09,0,0,1-6,20.75h0l19,11a7,7,0,0,1-2.63-4.55V110.66Z"/><polygon class="cls-3" points="67.33 155.48 67.33 158.51 86.38 169.51 86.38 166.48 67.33 155.48"/><polygon class="cls-3" points="86.38 169.51 99.5 161.93 99.5 158.9 86.38 166.48 86.38 169.51"/><polygon class="cls-7" points="86.38 169.51 99.5 161.93 99.5 158.9 86.38 166.48 86.38 169.51"/><path class="cls-3" d="M83.15,69.71h0c-2.23-1.34-5.33-1.17-8.76.81l-.13.07C67.48,74.52,62,84,62,91.87V92c0,4,1.48,6.86,3.84,8.08h0l9.93,5.84L92.33,75.13Z"/><path class="cls-20" d="M83.15,69.71h0c-2.23-1.34-5.33-1.17-8.76.81l-.13.07C67.48,74.52,62,84,62,91.87V92c0,4,1.48,6.86,3.84,8.08h0l9.93,5.84L92.33,75.13Z"/><path class="cls-21" d="M65.82,100.1h0l9.93,5.84,5.5-10.21L63.12,85.26A21.83,21.83,0,0,0,62,91.87V92C62,96.07,63.46,98.88,65.82,100.1Z"/><path class="cls-3" d="M104.59,77.26h0c-2.52-1.44-5.92-1.39-9.68.45-.4.19-.8.4-1.2.64s-.95.57-1.41.89A23.88,23.88,0,0,0,90.05,81a30.79,30.79,0,0,0-3.78,3.88,36.93,36.93,0,0,0-6.94,13.21,25.91,25.91,0,0,0-1,7c0,4.79,1.64,8.19,4.31,9.85l-9.49-5.47h0a12.23,12.23,0,0,1-5.6-10.57,25.87,25.87,0,0,1,.94-6.66,36.69,36.69,0,0,1,7-13.52,30.79,30.79,0,0,1,3.78-3.88A25,25,0,0,1,81.54,73c.47-.32.94-.62,1.41-.89s.81-.44,1.22-.63a12.17,12.17,0,0,1,10.74.18h0l.27.15.34.2Z"/><path class="cls-7" d="M73.13,109.41h0a12.23,12.23,0,0,1-5.6-10.57,25.87,25.87,0,0,1,.94-6.66l10.84,5.9a25.91,25.91,0,0,0-1,7c0,4.79,1.64,8.19,4.31,9.85Z"/><path class="cls-3" d="M109.11,87.24c0,9.83-6.89,21.77-15.4,26.68-4.27,2.48-8.15,2.69-10.94,1l-.15-.09c-2.67-1.66-4.31-5.06-4.31-9.85,0-9.82,6.89-21.77,15.4-26.68,4.24-2.45,8.09-2.69,10.88-1.09S109.11,82.32,109.11,87.24Z"/><path class="cls-12" d="M109.11,87.24c0,9.83-6.89,21.77-15.4,26.68-4.27,2.48-8.15,2.69-10.94,1l-.15-.09c-2.67-1.66-4.31-5.06-4.31-9.85,0-9.82,6.89-21.77,15.4-26.68,4.24-2.45,8.09-2.69,10.88-1.09S109.11,82.32,109.11,87.24Z"/><path class="cls-3" d="M156.34,84.7s-15.54,8-28.81,31a105.73,105.73,0,0,0-6.3,12.82c-6.66,16.35-6.11,27.62-6.11,27.62-4.63-11.35-10.39-23.09-20-32.08a144.66,144.66,0,0,0-11.81-9.88h0c-2.54-1.48-4-4.68-4-9.1A26.61,26.61,0,0,1,81,96a35.73,35.73,0,0,1,2.64-5.64A30.53,30.53,0,0,1,94.2,79.21c3.83-2.21,7.35-2.53,9.89-1.07h0a145.31,145.31,0,0,0,14.46,5.29C131.15,87.25,144.2,86.36,156.34,84.7Z"/><path class="cls-20" d="M156.34,84.7s-15.54,8-28.81,31a105.73,105.73,0,0,0-6.3,12.82c-6.66,16.35-6.11,27.62-6.11,27.62-4.63-11.35-10.39-23.09-20-32.08a144.66,144.66,0,0,0-11.81-9.88h0c-2.54-1.48-4-4.68-4-9.1A26.61,26.61,0,0,1,81,96a35.73,35.73,0,0,1,2.64-5.64A30.53,30.53,0,0,1,94.2,79.21c3.83-2.21,7.35-2.53,9.89-1.07h0a145.31,145.31,0,0,0,14.46,5.29C131.15,87.25,144.2,86.36,156.34,84.7Z"/><path class="cls-21" d="M121.23,128.48c-6.66,16.35-6.11,27.62-6.11,27.62-4.63-11.35-10.39-23.09-20-32.08a144.66,144.66,0,0,0-11.81-9.88h0c-2.54-1.48-4-4.68-4-9.1A26.82,26.82,0,0,1,81,96C92.81,101.88,111.86,112.75,121.23,128.48Z"/><path class="cls-3" d="M185.62,106.87c0,10.25-3.16,21.46-8.41,31.82h0C170.48,152,160.33,163.8,149,170.36c-20.25,11.69-36.66,2.21-36.66-21.16a62,62,0,0,1,2.43-16.57A87.25,87.25,0,0,1,136.94,95q2.15-2.11,4.41-4c.63-.52,1.27-1,1.91-1.51h0c.91-.69,1.82-1.35,2.75-2s2-1.21,3-1.78C169.2,74,185.62,83.5,185.62,106.87Z"/><path class="cls-7" d="M177.21,138.69C170.48,152,160.33,163.8,149,170.36c-20.25,11.69-36.66,2.21-36.66-21.16a62,62,0,0,1,2.43-16.57h0c1.37,3,6.29,7.34,8.5,4.31a55.81,55.81,0,0,0-2.13,14.7c0,6.72,1.5,12.14,4.33,15.68a12,12,0,0,0,9.86,4.56c4,0,8.68-1.47,13.49-4.25,9.67-5.58,18.56-15.61,24.87-27C173.65,140.66,174.91,141.72,177.21,138.69Z"/><path class="cls-3" d="M183.11,108.18c0,10.32-3.62,22-9.46,32.48-6.31,11.36-15.2,21.39-24.87,27-4.81,2.78-9.47,4.25-13.49,4.25a12,12,0,0,1-9.86-4.56c-2.83-3.54-4.33-9-4.33-15.68a55.81,55.81,0,0,1,2.13-14.7c.51-1.9,1.12-3.8,1.81-5.7a83.17,83.17,0,0,1,4.32-9.81l1-2c.59-1.08,1.2-2.15,1.84-3.2a82.49,82.49,0,0,1,7.23-10.17l.09-.1a72.37,72.37,0,0,1,5.47-5.88,53.65,53.65,0,0,1,4.18-3.66q.9-.72,1.8-1.38c.73-.53,1.47-1,2.21-1.53s1.46-.92,2.19-1.35c4.82-2.79,9.49-4.25,13.5-4.25C177.81,88,183.11,95.52,183.11,108.18Z"/><path class="cls-8" d="M183.11,108.18c0,10.32-3.62,22-9.46,32.48-6.31,11.36-15.2,21.39-24.87,27-4.81,2.78-9.47,4.25-13.49,4.25a12,12,0,0,1-9.86-4.56c-2.83-3.54-4.33-9-4.33-15.68a55.81,55.81,0,0,1,2.13-14.7c.51-1.9,1.12-3.8,1.81-5.7a83.17,83.17,0,0,1,4.32-9.81l1-2c.59-1.08,1.2-2.15,1.84-3.2a82.49,82.49,0,0,1,7.23-10.17l.09-.1a72.37,72.37,0,0,1,5.47-5.88,53.65,53.65,0,0,1,4.18-3.66q.9-.72,1.8-1.38c.73-.53,1.47-1,2.21-1.53s1.46-.92,2.19-1.35c4.82-2.79,9.49-4.25,13.5-4.25C177.81,88,183.11,95.52,183.11,108.18Z"/><path class="cls-3" d="M152,113.92l-12.86,24c-3.62-1.36-9.73-3.53-14.71-4.8.2-.64.42-1.26.66-1.9a81.56,81.56,0,0,1,4.32-9.81c.34-.66.69-1.31,1-2,.59-1.08,1.2-2.15,1.84-3.19a82.49,82.49,0,0,1,7.23-10.17.31.31,0,0,0,.09-.11c.39-.46.78-.92,1.17-1.36A83.2,83.2,0,0,0,152,113.92Z"/><g class="cls-22"><path class="cls-19" d="M152,113.92l-12.86,24c-3.62-1.36-9.73-3.53-14.71-4.8.2-.64.42-1.26.66-1.9a81.56,81.56,0,0,1,4.32-9.81c.34-.66.69-1.31,1-2,.59-1.08,1.2-2.15,1.84-3.19a82.49,82.49,0,0,1,7.23-10.17.31.31,0,0,0,.09-.11c.39-.46.78-.92,1.17-1.36A83.2,83.2,0,0,0,152,113.92Z"/></g><path class="cls-3" d="M140.17,137.87c-2.91,0-4.64-2.35-4.64-6.28v-.12c0-6.18,4.35-13.73,9.71-16.82l.1-.06a8.45,8.45,0,0,1,4.06-1.26c2.9,0,4.64,2.35,4.64,6.29v.12c0,6.18-4.36,13.72-9.71,16.81l-.1.06A8.24,8.24,0,0,1,140.17,137.87Z"/><g class="cls-23"><path class="cls-19" d="M140.17,137.87c-2.91,0-4.64-2.35-4.64-6.28v-.12c0-6.18,4.35-13.73,9.71-16.82l.1-.06a8.45,8.45,0,0,1,4.06-1.26c2.9,0,4.64,2.35,4.64,6.29v.12c0,6.18-4.36,13.72-9.71,16.81l-.1.06A8.24,8.24,0,0,1,140.17,137.87Z"/></g><path class="cls-2" d="M154,70.24a2.89,2.89,0,0,1-2.89-2.89v-28a2.89,2.89,0,1,1,5.78,0v28A2.89,2.89,0,0,1,154,70.24Z"/><path class="cls-2" d="M128.59,77.06a2.9,2.9,0,0,1-2.5-1.44l-14-24.22a2.89,2.89,0,0,1,5-2.9l14,24.22a2.89,2.89,0,0,1-2.51,4.34Z"/><path class="cls-2" d="M102.12,211.84a2.9,2.9,0,0,1-2.88-2.92,2.82,2.82,0,0,1,.38-1.42l14-24.22a2.89,2.89,0,0,1,5.12,2.68l-.12.21-14,24.22A2.91,2.91,0,0,1,102.12,211.84Z"/><path class="cls-2" d="M154,215.58a2.89,2.89,0,0,1-2.89-2.89v-28a2.89,2.89,0,0,1,5.78,0h0v28A2.89,2.89,0,0,1,154,215.58Z"/><path class="cls-2" d="M193.48,189.44A2.89,2.89,0,0,1,191,188l-14-24.22a2.89,2.89,0,0,1,5-2.89l14,24.22a2.9,2.9,0,0,1-1.08,4,2.82,2.82,0,0,1-1.42.38Z"/><path class="cls-2" d="M222.33,160.57a2.92,2.92,0,0,1-1.44-.38l-24.22-14a2.89,2.89,0,1,1,2.9-5h0l24.21,14a2.89,2.89,0,0,1-1.45,5.39Z"/><path class="cls-2" d="M232.9,121.14h-28a2.89,2.89,0,0,1,0-5.78h28a2.89,2.89,0,0,1,0,5.78Z"/><path class="cls-2" d="M198.12,95.69a2.89,2.89,0,0,1-1.45-5.4l24.22-14a2.89,2.89,0,1,1,3.1,4.88l-.21.12-24.21,14A2.85,2.85,0,0,1,198.12,95.69Z"/><path class="cls-2" d="M179.49,77.06A2.89,2.89,0,0,1,177,72.72L191,48.5a2.89,2.89,0,0,1,5,2.9L182,75.62A2.87,2.87,0,0,1,179.49,77.06Z"/></g></g><use id="b-nino" transform="translate(15.78 317.19) scale(0.15)" xlink:href="#image"/><use id="m-nino" transform="matrix(-0.1, 0, 0, 0.1, 494.38, 366.83)" xlink:href="#image"/></svg>