<svg xmlns="http://www.w3.org/2000/svg" xmlns:xlink="http://www.w3.org/1999/xlink" viewBox="0 0 480.38 452.37"><defs><style>.cls-1{fill:#f5f5f5;}.cls-2{fill:#e0e0e0;}.cls-21,.cls-3{fill:#3fcedb;}.cls-12,.cls-14,.cls-15,.cls-16,.cls-17,.cls-20,.cls-21,.cls-4,.cls-6,.cls-7,.cls-8{isolation:isolate;}.cls-4{opacity:0.15;}.cls-14,.cls-17,.cls-5,.cls-6{fill:#fff;}.cls-12,.cls-21,.cls-6{opacity:0.2;}.cls-7{opacity:0.1;}.cls-13,.cls-17,.cls-8{opacity:0.3;}.cls-9{fill:#37474f;}.cls-10{fill:#263238;}.cls-11{fill:#455a64;}.cls-14,.cls-15{opacity:0.5;}.cls-16{opacity:0.4;}.cls-18{fill:#f28f8f;}.cls-19,.cls-20{fill:#fafafa;}.cls-20,.cls-23{opacity:0.8;}.cls-22{opacity:0.6;}</style><image id="image" width="855" height="1155" xlink:href="C:%5CUsers%5CUser%5CDownloads%5CAsset%2031.png"/></defs><g id="Layer_2" data-name="Layer 2"><g id="Layer_1-2" data-name="Layer 1"><g id="freepik--Floor--inject-8"><ellipse id="freepik--floor--inject-8-2" data-name="freepik--floor--inject-8" class="cls-1" cx="236" cy="297.03" rx="236" ry="136.23"/></g><g id="freepik--Shadow--inject-8"><path id="freepik--shadow--inject-8-2" data-name="freepik--shadow--inject-8" class="cls-2" d="M27.12,270,284.56,418.67a11.08,11.08,0,0,0,10,0L434.7,337.76c2.76-1.6,2.76-4.18,0-5.78L177.26,183.35a11.08,11.08,0,0,0-10,0L27.12,264.26C24.35,265.86,24.35,268.44,27.12,270Z"/></g><g id="plant"><g id="freepik--Plants--inject-8"><path class="cls-3" d="M46.46,254l10.36-4.67s4.52-20.73,4.57-37.13c.06-23-11.9-52-30.14-47.33s5.06,30.5,8.81,50.44S46.46,254,46.46,254Z"/><path class="cls-4" d="M46.46,254l10.36-4.67s4.52-20.73,4.57-37.13c.06-23-11.9-52-30.14-47.33s5.06,30.5,8.81,50.44S46.46,254,46.46,254Z"/><path class="cls-5" d="M51.85,252.11h0a.59.59,0,0,1-.51-.66h0c6.85-50.54-15.82-78.6-16-78.88a.59.59,0,0,1,.07-.83h0a.6.6,0,0,1,.84.08c.23.28,23.23,28.75,16.31,79.8a.6.6,0,0,1-.67.52Z"/><path class="cls-3" d="M40,256.87l7.32-3.33s2.64-14.27-2.65-32.47c-4.6-15.84-18.57-30-26.5-28.13s-8.3,7.34-5.13,13.42S37.56,228.33,40,256.87Z"/><path class="cls-6" d="M40,256.87l7.32-3.33s2.64-14.27-2.65-32.47c-4.6-15.84-18.57-30-26.5-28.13s-8.3,7.34-5.13,13.42S37.56,228.33,40,256.87Z"/><path class="cls-5" d="M43.78,255.71h0a.61.61,0,0,1-.53-.65c3.38-32.06-24.54-56.77-24.82-57a.59.59,0,0,1,.78-.89c.29.25,28.67,25.37,25.23,58a.6.6,0,0,1-.65.54Z"/></g></g><g id="freepik--Icons--inject-8"><g id="laik"><path class="cls-3" d="M385.15,78.29a5.44,5.44,0,0,0-.22-1.61l5.85-6.7-7.5-4.21c-.71-.49-1.72-.55-3.09.25l-13,7.55-1.75,1a35.33,35.33,0,0,0,.62-4.57c.05-.64.06-1.25.06-1.86l.24.12,4.39-5.13-7.5-4.22h0c-2.52-1.54-6.78,1.5-6.78,2.73,0,1.48.64,9.23,0,11.45s-7.34,17.53-7.34,17.53v31.9l24.45-14.14c3.21-1.86,5.44-5.82,5.44-8.5a8.38,8.38,0,0,0-.65-3.5c2.08-1.2,4.15-5.54,4.15-7.38,0-2.78-.95-3.5-.95-3.5A10.55,10.55,0,0,0,385.15,78.29Z"/><path class="cls-7" d="M385.15,78.29a5.44,5.44,0,0,0-.22-1.61l5.85-6.7-7.5-4.21c-.71-.49-1.72-.55-3.09.25l-13,7.55-1.75,1a35.33,35.33,0,0,0,.62-4.57c.05-.64.06-1.25.06-1.86l.24.12,4.39-5.13-7.5-4.22h0c-2.52-1.54-6.78,1.5-6.78,2.73,0,1.48.64,9.23,0,11.45s-7.34,17.53-7.34,17.53v31.9l24.45-14.14c3.21-1.86,5.44-5.82,5.44-8.5a8.38,8.38,0,0,0-.65-3.5c2.08-1.2,4.15-5.54,4.15-7.38,0-2.78-.95-3.5-.95-3.5A10.55,10.55,0,0,0,385.15,78.29Z"/><polygon class="cls-2" points="356.86 126.91 349.12 122.44 349.1 90.52 356.83 94.99 356.86 126.91"/><polygon class="cls-3" points="356.86 126.91 349.12 122.44 349.1 90.52 356.83 94.99 356.86 126.91"/><polygon class="cls-8" points="356.86 126.91 349.12 122.44 349.1 90.52 356.83 94.99 356.86 126.91"/><path class="cls-3" d="M390.53,94c0,4.12-2.35,5.57-4.43,6.77a8.62,8.62,0,0,1,.63,3.52c0,2.66-2.22,6.64-5.42,8.48L356.86,126.9V95s6.72-15.31,7.35-17.54,0-10,0-11.43,6.07-5.54,8-1.3,2.09,8.56,1,14.2L388,70.37c3.12-1.8,4.4.78,4.4,2.8,0,2.87-1.34,5.7-3.12,6.78,0,0,3.4.17,3.4,4.13a8.39,8.39,0,0,1-3.28,6.45S390.53,91.23,390.53,94Z"/><polygon class="cls-9" points="342.66 139.41 353.34 133.25 353.31 96.1 342.66 102.26 342.66 139.41"/><polygon class="cls-10" points="342.66 139.41 334.92 134.95 334.92 97.8 342.66 102.26 342.66 139.41"/><polygon class="cls-11" points="345.58 91.64 353.31 96.1 342.66 102.26 334.92 97.8 345.58 91.64"/><path class="cls-3" d="M364.17,77.45c-.63,2.23-7.35,17.54-7.35,17.54l-7.72-4.35s6.7-15.32,7.34-17.53,0-10,0-11.45L364.18,66C364.17,67.54,364.82,75.24,364.17,77.45Z"/><path class="cls-12" d="M364.17,77.45c-.63,2.23-7.35,17.54-7.35,17.54l-7.72-4.35s6.7-15.32,7.34-17.53,0-10,0-11.45L364.18,66C364.17,67.54,364.82,75.24,364.17,77.45Z"/></g><g id="hert"><path class="cls-3" d="M454.91,109.89h0l-7.36-4.59h0c-2.72-1.74-6.86-1.56-11.56,1-6.5,3.47-12.24,12.23-14.72,19.66L416,122.68h0c-2.67-1.93-6.42-2.34-10.65-.08-.52.28-1,.59-1.56.91l-.81.55c-.23.16-.47.31-.7.48l-1.07.83-.4.31c-.41.34-.82.7-1.22,1.07l-.18.17c-.45.41-.88.84-1.31,1.28h0a34.45,34.45,0,0,0-3.6,4.39h0c-3,4.3-4.9,9.1-5,13.36-.26,7.93,4.47,13.15,10.38,16.58h0l5.81,3.61h0a41.5,41.5,0,0,0,11.14,5l9.67,2.91,10.17-13.51c9.73-12.9,21.41-30.78,21.8-42.74C458.6,114,457.24,111.28,454.91,109.89Z"/><path class="cls-3" d="M405.57,166.12l-5.73-3.58c-5.9-3.43-10.64-8.65-10.38-16.58.14-4.25,2.07-9.07,5.05-13.36l7.55,4.69c-3,4.29-4.91,9.11-5.05,13.36C396.78,157.77,400.54,162.7,405.57,166.12Z"/><g class="cls-13"><path d="M405.57,166.12l-5.73-3.58c-5.9-3.43-10.64-8.65-10.38-16.58.14-4.25,2.07-9.07,5.05-13.36l7.55,4.69c-3,4.29-4.91,9.11-5.05,13.36C396.78,157.77,400.54,162.7,405.57,166.12Z"/></g><path class="cls-3" d="M454.88,109.84c-2.73-1.58-6.78-1.33-11.34,1.11-7.84,4.18-14.6,16.06-15.82,24-.74-6.91-6.94-11.87-14.78-7.67a32.17,32.17,0,0,0-10.88,10l-7.55-4.69.38-.54c.11-.15.21-.29.33-.44l.84-1.1a33.65,33.65,0,0,1,2.6-2.87c.22-.24.46-.46.69-.68l.5-.46a29,29,0,0,1,5.54-3.94,11.73,11.73,0,0,1,5.9-1.53,8.48,8.48,0,0,1,4.75,1.61l5.23,3.22c2.47-7.42,8.22-16.17,14.73-19.64,4.7-2.52,8.83-2.7,11.55-1h0Z"/><path class="cls-7" d="M454.88,109.84c-2.73-1.58-6.78-1.33-11.34,1.11-7.84,4.18-14.6,16.06-15.82,24-.74-6.91-6.94-11.87-14.78-7.67a32.17,32.17,0,0,0-10.88,10l-7.55-4.69.38-.54c.11-.15.21-.29.33-.44l.84-1.1a33.65,33.65,0,0,1,2.6-2.87c.22-.24.46-.46.69-.68l.5-.46a29,29,0,0,1,5.54-3.94,11.73,11.73,0,0,1,5.9-1.53,8.48,8.48,0,0,1,4.75,1.61l5.23,3.22c2.47-7.42,8.22-16.17,14.73-19.64,4.7-2.52,8.83-2.7,11.55-1h0Z"/></g><g id="twit"><path class="cls-3" d="M335.45,32.85l-7.4-4.6L325.21,34l4,4.37s.24.86,2.19-.65A22.9,22.9,0,0,0,335.45,32.85Z"/><path class="cls-8" d="M335.45,32.85l-7.4-4.6L325.21,34l4,4.37s.24.86,2.19-.65A22.9,22.9,0,0,0,335.45,32.85Z"/><path class="cls-3" d="M329.86,43c0,9-2.59,20-7.39,30.12-5.48,11.58-13.82,22.15-24.4,27.81-6.06,3.24-11.61,3.92-16.21,2.48l-7.4-4.6c4.8-1.83,9.67-5.79,13.87-11.24l-4.54-2.83a7.27,7.27,0,0,1-3-4.59,11,11,0,0,0,3.08-1.48l-3-1.88c-2.27-1.41-3.55-4.61-3.34-8.79a7.59,7.59,0,0,0,4.79-.83,5.62,5.62,0,0,1-1.31-.68c-3.5-2.49-4.09-9.26-1.39-16.26L287,54.78c4.08,1.1,9,.7,14.2-1.74-1.27-7.93,4.08-19.08,11-22.78,3.08-1.64,5.81-1.43,7.67.26a41.61,41.61,0,0,0,6.91-7l7.4,4.6a28.19,28.19,0,0,1-5,10.26,36.08,36.08,0,0,0,6.21-5.49A56.34,56.34,0,0,1,329.86,43Z"/><path class="cls-3" d="M329.86,43c0,9-2.59,20-7.39,30.12-5.48,11.58-13.82,22.15-24.4,27.81-6.06,3.24-11.61,3.92-16.21,2.48,5.65-2.16,11.39-7.25,16-14.27-4.68,2.38-8.5.46-9.68-4.39A12.91,12.91,0,0,0,293,81.89c-5.1,1.39-8.46-2.78-8.13-9.33a7.62,7.62,0,0,0,4.8-.83,6.22,6.22,0,0,1-1.07-.52c-3.71-2.34-4.4-9.27-1.63-16.42.79,3.73,7.71,6.61,13.69,6.52,5.78-.09,7.77-3.45,7.88-3.66h0c-1.27-7.93,4.09-19.08,11-22.78,3.07-1.64,5.8-1.43,7.67.25a41.61,41.61,0,0,0,6.91-7,28.19,28.19,0,0,1-5,10.26,36.08,36.08,0,0,0,6.21-5.49A56.15,56.15,0,0,1,329.86,43Z"/><path class="cls-7" d="M334.19,28.08h0a41.92,41.92,0,0,1-6.9,7,4.9,4.9,0,0,0-1.65-1l-5.76-3.54a41.61,41.61,0,0,0,6.91-7Z"/><path class="cls-8" d="M293.06,81.89a12.91,12.91,0,0,1-4.84,2.82l-7.39-4.6a11,11,0,0,0,3.08-1.48l4.19,2.6.13.09.19.12A5.92,5.92,0,0,0,293.06,81.89Z"/><path class="cls-7" d="M308.61,57.64h0c-.22.39-2.26,3.54-7.86,3.63-6,.09-12.9-2.79-13.69-6.52h0a17.58,17.58,0,0,0,3.88.58A22.66,22.66,0,0,0,301.26,53Z"/><path class="cls-12" d="M287,54.79h0l-7.39-4.59c-2.7,7-2.11,13.77,1.39,16.26l.5.31.68.43,6.46,4C285,68.88,284.26,62,287,54.79Z"/><path class="cls-8" d="M289.73,71.73a7.62,7.62,0,0,1-4.8.83L277.54,68a7.52,7.52,0,0,0,4.66-.77l6.46,4A7.15,7.15,0,0,0,289.73,71.73Z"/><path class="cls-8" d="M297.9,89.1c-4.65,7-10.39,12.11-16,14.27l-7.4-4.6c4.8-1.84,9.67-5.79,13.87-11.24l2.88,1.79C293,90.42,295.3,90.42,297.9,89.1Z"/><path class="cls-12" d="M325.69,34.13c-1.68-.69-3.79-.49-6.08.73-6.91,3.7-12.27,14.85-11,22.78L301.22,53c-1.27-7.93,4.08-19.08,11-22.78,3.08-1.64,5.81-1.43,7.67.26Z"/><path class="cls-12" d="M288.1,81.23l-4.19-2.6-3-1.88c-2.27-1.41-3.55-4.61-3.34-8.79l7.39,4.6C284.73,76.62,285.94,79.76,288.1,81.23Z"/><path class="cls-12" d="M291,89.18l-2.67-1.64-4.54-2.82a7.19,7.19,0,0,1-3-4.6l7.39,4.6A7.35,7.35,0,0,0,291,89.18Z"/></g></g><g id="freepik--Target--inject-8"><g id="freepik--target--inject-8-2" data-name="freepik--target--inject-8"><path class="cls-3" d="M428.43,219l1.1-1.78-5.59-3.67c-4.79-3.4-11.73-3.25-19.44,1.23-14.38,8.36-26,28.63-25.95,45.26,0,7.88,2.66,13.53,6.95,16.41h0l5.52,3.64.92-1.51c3.77.26,8.11-.86,12.73-3.55,14.39-8.36,26-28.62,26-45.26A24.68,24.68,0,0,0,428.43,219Z"/><path class="cls-12" d="M428.43,219l1.1-1.78-5.59-3.67c-4.79-3.4-11.73-3.25-19.44,1.23-14.38,8.36-26,28.63-25.95,45.26,0,7.88,2.66,13.53,6.95,16.41h0l5.52,3.64.92-1.51c3.77.26,8.11-.86,12.73-3.55,14.39-8.36,26-28.62,26-45.26A24.68,24.68,0,0,0,428.43,219Z"/><path class="cls-3" d="M436.32,233.54c.05,16.63-11.57,36.9-26,45.26s-26.08,1.65-26.12-15,11.57-36.9,25.95-45.26S436.27,216.92,436.32,233.54Z"/><path class="cls-5" d="M432,236.08c0,13.86-9.64,30.75-21.62,37.72s-21.74,1.37-21.78-12.49,9.64-30.75,21.63-37.72S431.94,222.21,432,236.08Z"/><path class="cls-3" d="M427.62,238.59c0,11.09-7.72,24.6-17.3,30.18s-17.37,1.11-17.4-10,7.71-24.6,17.3-30.18S427.6,227.54,427.62,238.59Z"/><path class="cls-5" d="M423.3,241.12c0,8.32-5.79,18.45-13,22.64s-13,.82-13.06-7.49,5.78-18.46,13-22.64S423.27,232.81,423.3,241.12Z"/><path class="cls-3" d="M410.25,238.65c-4.8,2.79-8.67,9.55-8.65,15.09s3.91,7.79,8.71,5,8.67-9.55,8.65-15.09S415.05,235.86,410.25,238.65Z"/><path class="cls-5" d="M410.26,243.67a9.64,9.64,0,0,0-4.32,7.55c0,2.77,1.95,3.89,4.35,2.5a9.66,9.66,0,0,0,4.33-7.55C414.61,243.4,412.66,242.28,410.26,243.67Z"/><polygon class="cls-3" points="453.73 271.09 447.93 268.68 444.33 268.51 444.33 269.16 449.83 272.34 453.73 271.74 453.73 271.09"/><polygon class="cls-3" points="444.33 268.51 447.93 268.68 453.73 271.09 449.83 271.69 444.33 268.51"/><polygon class="cls-12" points="449.83 272.34 449.83 271.69 453.73 271.09 453.73 271.74 449.83 272.34"/><polygon class="cls-7" points="449.83 271.69 444.33 268.51 444.33 269.16 449.83 272.34 449.83 271.69"/><polygon class="cls-9" points="419.62 251.13 410.71 248.69 410.71 249.93 414.63 255.25 416.78 253.19 416.78 253.19 419.62 252.37 419.62 251.13"/><polygon class="cls-11" points="410.71 248.69 414.63 254.01 416.78 251.96 416.78 251.96 419.62 251.13 410.71 248.69"/><polygon class="cls-10" points="414.63 254.01 414.63 255.25 416.78 253.19 416.78 251.96 414.63 254.01"/><polygon class="cls-10" points="416.78 251.96 419.62 251.13 419.62 252.37 416.78 253.19 416.78 251.96"/><path class="cls-11" d="M417.16,252a.4.4,0,0,0-.42,0,1.34,1.34,0,0,0-.6,1,.41.41,0,0,0,.18.39h0l36.28,21,.82-1.48Z"/><path class="cls-9" d="M416.27,252.54a1.28,1.28,0,0,0-.13.51.41.41,0,0,0,.18.39h0l36.28,21,.37-.67Z"/><path class="cls-10" d="M453,273a1.3,1.3,0,0,0-.59,1c0,.38.26.54.59.35a1.3,1.3,0,0,0,.59-1C453.6,272.92,453.34,272.76,453,273Z"/><polygon class="cls-3" points="449.44 272.56 449.44 272.56 449.44 271.91 443.95 268.73 443.95 269.39 444.24 271.46 448.4 274.82 449.44 272.57 449.44 272.56"/><polygon class="cls-12" points="443.95 268.73 444.25 270.81 444.24 271.46 443.95 269.39 443.95 268.73"/><polygon class="cls-12" points="449.44 271.91 448.4 274.16 448.4 274.81 449.44 272.56 449.44 271.91"/><polygon class="cls-7" points="444.25 270.81 448.4 274.16 448.4 274.81 444.24 271.46 444.25 270.81"/><polygon class="cls-3" points="453.49 224.99 447.69 227.4 444.1 227.57 444.1 226.92 449.59 223.74 453.49 224.34 453.49 224.99"/><polygon class="cls-3" points="444.1 227.57 447.69 227.4 453.49 224.99 449.59 224.39 444.1 227.57"/><polygon class="cls-12" points="449.59 223.74 449.59 224.39 453.49 224.99 453.49 224.34 449.59 223.74"/><polygon class="cls-7" points="449.59 224.39 444.1 227.57 444.1 226.92 449.59 223.74 449.59 224.39"/><polygon class="cls-9" points="419.38 244.95 410.48 247.39 410.48 246.15 414.39 240.84 416.54 242.89 416.54 242.89 419.38 243.71 419.38 244.95"/><polygon class="cls-11" points="410.48 247.39 414.39 242.07 416.54 244.13 416.54 244.13 419.38 244.95 410.48 247.39"/><polygon class="cls-10" points="414.39 242.07 414.39 240.84 416.54 242.89 416.54 244.13 414.39 242.07"/><polygon class="cls-10" points="416.54 244.13 419.38 244.95 419.38 243.71 416.54 242.89 416.54 244.13"/><path class="cls-11" d="M416.92,244.13a.4.4,0,0,1-.42,0,1.36,1.36,0,0,1-.6-1,.4.4,0,0,1,.18-.39h0l36.28-21,.82,1.47Z"/><path class="cls-9" d="M416,243.54a1,1,0,0,1-.14-.51.4.4,0,0,1,.18-.39h0l36.28-21,.37.66Z"/><path class="cls-10" d="M452.77,223.13a1.32,1.32,0,0,1-.59-1c0-.38.26-.54.59-.35a1.3,1.3,0,0,1,.59,1C453.36,223.16,453.1,223.32,452.77,223.13Z"/><polygon class="cls-3" points="449.2 223.52 449.2 223.52 449.2 224.17 443.71 227.35 443.71 226.69 444 224.62 448.16 221.26 449.2 223.52 449.2 223.52"/><polygon class="cls-12" points="443.71 227.35 444.01 225.27 444 224.62 443.71 226.69 443.71 227.35"/><polygon class="cls-12" points="449.2 224.17 448.16 221.92 448.16 221.27 449.2 223.52 449.2 224.17"/><polygon class="cls-7" points="444.01 225.27 448.16 221.92 448.16 221.27 444 224.62 444.01 225.27"/></g></g><g id="box"><g id="freepik--speech-bubble--inject-8"><g id="freepik--speech-bubble--inject-8-2" data-name="freepik--speech-bubble--inject-8"><path class="cls-3" d="M349.73,242.77l-4.31-11.05,3.47-10v-6.18l-10.62,6.13v6.13l4.57,10.85a.68.68,0,0,0,.31.27h0Z"/><path class="cls-12" d="M349.73,242.77l-4.31-11.05,3.47-10v-6.18l-10.62,6.13v6.13l4.57,10.85a.68.68,0,0,0,.31.27h0Z"/><path class="cls-3" d="M375.36,195.84a7,7,0,0,0-3.18-5.51l-1.18-.79a7.05,7.05,0,0,0-6.36,0l-43.27,25a7,7,0,0,0-3.18,5.51v14.62a7,7,0,0,0,3.18,5.51l1.22.75a7,7,0,0,0,6.36,0l16-9.25,4.54,10.86a.68.68,0,0,0,.93.25.66.66,0,0,0,.3-.36l4.82-16.89,16.64-9.61a7,7,0,0,0,3.18-5.51Z"/><path class="cls-12" d="M318.15,234.69a7,7,0,0,0,3.18,5.51l1.22.75a7.12,7.12,0,0,0,5.82.26c-1.5.56-2.64-.28-2.64-2.1V224.54a6.56,6.56,0,0,1,.93-3.14L319.08,217a6.49,6.49,0,0,0-.93,3.13Z"/><path class="cls-14" d="M375.26,194.94c-.37-1.35-1.61-1.78-3.08-.94l-43.27,25a6.08,6.08,0,0,0-2.24,2.37L319.09,217a6.47,6.47,0,0,1,2.24-2.38l43.26-25a7.07,7.07,0,0,1,6.37,0l1.22.75A7.09,7.09,0,0,1,375.26,194.94Z"/></g><path class="cls-5" d="M331.64,234.23a1.6,1.6,0,0,1-1.18,0,.53.53,0,0,1-.22-.46,3,3,0,0,1,.25-1.11,1.59,1.59,0,0,1,.56-.81.89.89,0,0,1,.43-.08h.43a2.6,2.6,0,0,0,1.16-.34,3.25,3.25,0,0,0,.91-.78,1.6,1.6,0,0,0,.39-1.08,1,1,0,0,0-.2-.66.86.86,0,0,0-.5-.23,6,6,0,0,0-.85,0,2.85,2.85,0,0,1-1.86-.46,2.36,2.36,0,0,1-.57-1.85,5.1,5.1,0,0,1,1-2.94,7.68,7.68,0,0,1,2.57-2.34,4.9,4.9,0,0,1,1.22-.53,2.27,2.27,0,0,1,1-.14c.21,0,.31.16.31.41a3.42,3.42,0,0,1-.2,1,1.39,1.39,0,0,1-.48.77,2.13,2.13,0,0,1-.49.15,3.27,3.27,0,0,0-1.1.38,2.42,2.42,0,0,0-.92.82,1.62,1.62,0,0,0-.26.8c0,.42.11.67.33.77a2.81,2.81,0,0,0,1,.12h.39a2.41,2.41,0,0,1,1.68.48,2.35,2.35,0,0,1,.51,1.75,5.53,5.53,0,0,1-.4,2,6.88,6.88,0,0,1-1.23,2,8.25,8.25,0,0,1-2.05,1.67A6.89,6.89,0,0,1,331.64,234.23Z"/><path class="cls-5" d="M338.13,230.08v-10.8c0-.36.33-.73,1-1.1l.71-.41c.64-.37,1-.38,1,0v4.17l2.89-1.67V216.1c0-.36.33-.72,1-1.1l.69-.4c.65-.38,1-.38,1,0v10.81c0,.36-.33.72-1,1.1l-.69.4c-.65.38-1,.38-1,0v-4.4l-2.89,1.67v4.36c0,.36-.32.73-1,1.1l-.71.41C338.46,230.43,338.13,230.44,338.13,230.08Z"/><path class="cls-5" d="M347.33,224.94a1.26,1.26,0,0,1,.05-.33l2.6-12.24c.08-.36.42-.71,1-1.06l1.1-.64c.62-.35,1-.4,1-.13l2.6,9.23v.29c0,.25-.25.51-.73.79l-.89.52c-.54.31-.84.36-.9.16l-.44-1.81-2.56,1.48-.46,2.32c0,.27-.31.54-.79.82l-.88.5C347.6,225.16,347.33,225.19,347.33,224.94Zm5.22-7.11-.76-3.14q-.12-.54-.21-1.17l-.08,0c-.06.48-.12,1-.2,1.4l-.75,4Z"/><path class="cls-5" d="M356.73,219.34V208.71a1.06,1.06,0,0,1,.16-.6,1.44,1.44,0,0,1,.52-.46l2.81-1.63a3.65,3.65,0,0,1,2.5-.67c.63.14.95.82.95,2a5.63,5.63,0,0,1-1.61,3.77v.07a.92.92,0,0,1,.68.29,1.86,1.86,0,0,1,.45.75l1,2.66.05.18q0,.45-1.05,1.05l-.59.35c-.59.34-.93.38-1,.13l-.89-2.69a.55.55,0,0,0-.35-.33,1,1,0,0,0-.62.21l-.4.23v3.81c0,.36-.34.74-1,1.13l-.58.33C357.07,219.69,356.73,219.7,356.73,219.34Zm3.54-8.32a1.76,1.76,0,0,0,.64-.74,2.78,2.78,0,0,0,.26-1.23c0-.47-.09-.76-.26-.88a.62.62,0,0,0-.69.06l-.89.52v2.79Z"/><path class="cls-5" d="M365.59,214.54c-.1,0-.15-.2-.15-.43V203.69a1.15,1.15,0,0,1,.15-.61,1.29,1.29,0,0,1,.47-.43l5-2.87c.17-.1.29-.11.37,0a1,1,0,0,1,.12.58v.52a1.74,1.74,0,0,1-.12.71.88.88,0,0,1-.37.42l-3,1.71v2.45l2.63-1.52c.17-.1.3-.1.37,0a.94.94,0,0,1,.12.57v.52a1.74,1.74,0,0,1-.12.71.84.84,0,0,1-.37.42l-2.63,1.52v2.73l3-1.72q.26-.15.36,0a1.06,1.06,0,0,1,.11.58v.52a1.92,1.92,0,0,1-.11.71.85.85,0,0,1-.36.41l-5,2.88A.59.59,0,0,1,365.59,214.54Z"/></g><g id="freepik--speech-bubble--inject-8-3" data-name="freepik--speech-bubble--inject-8"><g id="freepik--speech-bubble--inject-8-4" data-name="freepik--speech-bubble--inject-8"><path class="cls-3" d="M305,213l-4.31-11,3.47-10v-6.13L293.55,192v6.12L298.11,209a.7.7,0,0,0,.31.28h0Z"/><path class="cls-12" d="M305,213l-4.31-11,3.47-10v-6.13L293.55,192v6.12L298.11,209a.7.7,0,0,0,.31.28h0Z"/><path class="cls-3" d="M333.92,164.16a7,7,0,0,0-3.18-5.51l-1.22-.75a7.05,7.05,0,0,0-6.36,0l-49.93,28.83a7,7,0,0,0-3.18,5.51v14.61a7,7,0,0,0,3.18,5.52l1.22.74a7,7,0,0,0,6.36,0L300.16,202l4.56,10.84a.68.68,0,0,0,.93.24.66.66,0,0,0,.3-.36l4.81-16.84,20-11.55a7,7,0,0,0,3.18-5.51Z"/><path class="cls-12" d="M270.05,206.85a7,7,0,0,0,3.18,5.52l1.22.74a7.12,7.12,0,0,0,5.82.26c-1.5.57-2.64-.28-2.64-2.09V196.66a6.56,6.56,0,0,1,.93-3.14L271,189.1a6.56,6.56,0,0,0-.93,3.14Z"/><path class="cls-14" d="M333.82,163.26c-.37-1.35-1.61-1.78-3.08-.94l-49.93,28.83a6.25,6.25,0,0,0-2.24,2.38L271,189.11a6.43,6.43,0,0,1,2.25-2.38l49.91-28.83a7.07,7.07,0,0,1,6.37,0l1.22.75A7,7,0,0,1,333.82,163.26Z"/></g><path class="cls-5" d="M282.81,205.47V195.9a1,1,0,0,1,.14-.55,1.21,1.21,0,0,1,.42-.39l4.18-2.41q.22-.13.33,0a.86.86,0,0,1,.11.52v.47a1.57,1.57,0,0,1-.11.64.84.84,0,0,1-.33.37l-2.37,1.37v2.22l2.23-1.29c.15-.09.26-.09.34,0a.81.81,0,0,1,.1.51v.47a1.56,1.56,0,0,1-.1.64.84.84,0,0,1-.34.38l-2.23,1.29v4c0,.32-.3.65-.88,1l-.61.35C283.1,205.78,282.81,205.79,282.81,205.47Z"/><path class="cls-5" d="M289,197.06c0-3.62,1.32-6.2,4-7.74,1.29-.74,2.28-.87,2.95-.38s1,1.67,1,3.53a10.06,10.06,0,0,1-1,4.7,7.53,7.53,0,0,1-2.95,3C290.27,201.73,289,200.69,289,197.06Zm4.87.33a3.82,3.82,0,0,0,.5-1.34,12.43,12.43,0,0,0,.17-2.19,9,9,0,0,0-.17-2c-.11-.43-.28-.69-.5-.76a1.1,1.1,0,0,0-.88.2,2.59,2.59,0,0,0-.89.82,3.63,3.63,0,0,0-.51,1.35,11.39,11.39,0,0,0-.18,2.18,8.42,8.42,0,0,0,.18,2c.11.44.28.69.51.76a1.18,1.18,0,0,0,.89-.21,2.47,2.47,0,0,0,.83-.81Z"/><path class="cls-5" d="M298.47,196.73c-.09,0-.14-.17-.14-.38v-9.57c0-.32.3-.66.89-1l.6-.36c.59-.34.88-.34.88,0v8.19L303,192.3c.16-.09.28-.1.35,0a.86.86,0,0,1,.1.52v.47a1.56,1.56,0,0,1-.1.64.8.8,0,0,1-.35.38l-4.07,2.35C298.7,196.75,298.56,196.78,298.47,196.73Z"/><path class="cls-5" d="M304.67,193.16c-.09,0-.14-.17-.14-.39V183.2c0-.32.3-.65.88-1l.61-.35c.59-.34.88-.35.88,0V190l2.27-1.3c.16-.1.27-.11.35,0a.81.81,0,0,1,.1.51v.47a1.56,1.56,0,0,1-.1.64,1,1,0,0,1-.35.39l-4.07,2.34A.62.62,0,0,1,304.67,193.16Z"/><path class="cls-5" d="M310.14,184.83q0-5.45,4-7.74c1.3-.75,2.28-.88,2.95-.38s1,1.67,1,3.53a9.82,9.82,0,0,1-1,4.7,7.53,7.53,0,0,1-2.95,3Q310.15,190.27,310.14,184.83Zm4.88.32a3.82,3.82,0,0,0,.5-1.34,12.24,12.24,0,0,0,.16-2.18,9,9,0,0,0-.16-2c-.11-.44-.28-.69-.5-.77a1.18,1.18,0,0,0-.89.21,2.62,2.62,0,0,0-.88.81,3.7,3.7,0,0,0-.52,1.36,11.22,11.22,0,0,0-.18,2.17,8.42,8.42,0,0,0,.18,2c.12.44.29.7.52.77a1.15,1.15,0,0,0,.88-.21,2.53,2.53,0,0,0,.87-.82Z"/><path class="cls-5" d="M320.7,184a.14.14,0,0,1-.19-.09.08.08,0,0,1,0,0l-2-8.6a.28.28,0,0,1,0-.13V175c0-.26.3-.57.9-.91l.44-.26c.6-.35.93-.38,1-.09l.71,5.2.14,1,.14,1.11.27-2a4,4,0,0,0,.07-.48l.93-6.3a.58.58,0,0,1,.19-.35,2.45,2.45,0,0,1,.53-.38l.76-.44a1.72,1.72,0,0,1,.52-.23c.11,0,.17,0,.19.14l.91,5.23.34,2.14.21-1.75.09-.75.73-6c0-.34.36-.68,1-1l.35-.21q.9-.51.9-.12a1,1,0,0,1,0,.24l-2,10.92c0,.23-.28.48-.71.73l-1,.58c-.4.23-.63.26-.68.07l-1-4.76-.17-1.53-.26,1.7-1.05,6c0,.23-.27.47-.68.71l-1,.58A1.63,1.63,0,0,1,320.7,184Z"/></g></g><g id="freepik--Envelopes--inject-8"><g id="freepik--Mails--inject-8"><g id="freepik--Letter--inject-8"><path class="cls-3" d="M215.33,136.75l42-24.25a.86.86,0,0,1,1.05,0c.25.2,2.62,1.45,2.88,1.64a1.33,1.33,0,0,1,.44,1.13v37.8a3.47,3.47,0,0,1-1.45,2.77l-7.37,4.26-38.55-22.25A2.79,2.79,0,0,1,215.33,136.75Z"/><path class="cls-14" d="M215.33,136.75l42-24.25a.86.86,0,0,1,1.05,0c.25.2,2.62,1.45,2.88,1.64a1.33,1.33,0,0,1,.44,1.13v37.8a3.47,3.47,0,0,1-1.45,2.77l-7.37,4.26-38.55-22.25A2.79,2.79,0,0,1,215.33,136.75Z"/><path class="cls-3" d="M217.28,180.15c-.29-.19-2.68-1.51-2.94-1.69a1.34,1.34,0,0,1-.46-1.14V139.54a3.49,3.49,0,0,1,.46-1.67l38.55,22.25-34.63,20A.91.91,0,0,1,217.28,180.15Z"/><path class="cls-12" d="M217.28,180.15c-.29-.19-2.68-1.51-2.94-1.69a1.34,1.34,0,0,1-.46-1.14V139.54a3.49,3.49,0,0,1,.46-1.67l38.55,22.25-34.63,20A.91.91,0,0,1,217.28,180.15Z"/><path class="cls-3" d="M218.26,180.09l42-24.25a3.47,3.47,0,0,0,1.45-2.77v-37.8c0-1.06-.65-1.55-1.45-1.09l-42,24.25a3.47,3.47,0,0,0-1.45,2.77V179C216.81,180.06,217.46,180.54,218.26,180.09Z"/><path class="cls-12" d="M216.81,179v-.75l17.37-28.78L217,140l.13-.31,21.39,8.88c.45.18,1-.15,1.49-.86l21.33-33.52a.64.64,0,0,1,.13.15l-17.12,29.26,17.36,8.73V153a3.93,3.93,0,0,1-.43,1.71l-17.81-9.67-2.53,4.31c-1,1.71-2.36,2.5-3.36,1.94l-2.52-1.4-17.78,30.19A1.35,1.35,0,0,1,216.81,179Z"/></g><g id="freepik--letter--inject-8-2" data-name="freepik--letter--inject-8"><path class="cls-3" d="M225.76,142.88l42-24.25a.87.87,0,0,1,1.06,0c.24.21,2.62,1.46,2.88,1.64a1.36,1.36,0,0,1,.44,1.14v37.8a3.51,3.51,0,0,1-1.45,2.77l-7.38,4.25L224.77,144A2.84,2.84,0,0,1,225.76,142.88Z"/><path class="cls-14" d="M225.76,142.88l42-24.25a.87.87,0,0,1,1.06,0c.24.21,2.62,1.46,2.88,1.64a1.36,1.36,0,0,1,.44,1.14v37.8a3.51,3.51,0,0,1-1.45,2.77l-7.38,4.25L224.77,144A2.84,2.84,0,0,1,225.76,142.88Z"/><path class="cls-3" d="M227.7,186.28c-.28-.18-2.67-1.51-2.93-1.68a1.37,1.37,0,0,1-.46-1.15v-37.8a3.61,3.61,0,0,1,.46-1.67l38.54,22.25-34.62,20A.91.91,0,0,1,227.7,186.28Z"/><path class="cls-12" d="M227.7,186.28c-.28-.18-2.67-1.51-2.93-1.68a1.37,1.37,0,0,1-.46-1.15v-37.8a3.61,3.61,0,0,1,.46-1.67l38.54,22.25-34.62,20A.91.91,0,0,1,227.7,186.28Z"/><path class="cls-3" d="M228.69,186.23l42-24.25a3.51,3.51,0,0,0,1.45-2.77v-37.8c0-1.07-.65-1.56-1.45-1.1l-42,24.25a3.5,3.5,0,0,0-1.45,2.77v37.8C227.24,186.2,227.89,186.69,228.69,186.23Z"/><path class="cls-12" d="M227.24,185.13v-.74l17.36-28.78-17.14-9.5a2.88,2.88,0,0,1,.13-.31l21.35,8.9c.46.19,1-.15,1.49-.86l21.33-33.51a.58.58,0,0,1,.13.14l-17.11,29.27,17.36,8.72v.75a3.77,3.77,0,0,1-.44,1.7l-17.81-9.67-2.52,4.3c-1,1.71-2.36,2.5-3.36,2l-2.53-1.4L227.7,186.28A1.37,1.37,0,0,1,227.24,185.13Z"/></g><g id="freepik--letter--inject-8-3" data-name="freepik--letter--inject-8"><path class="cls-3" d="M236.18,149l42-24.25a.87.87,0,0,1,1.06,0c.24.2,2.61,1.45,2.87,1.64a1.3,1.3,0,0,1,.44,1.13v37.8a3.44,3.44,0,0,1-1.45,2.77l-7.37,4.26-38.55-22.25A2.79,2.79,0,0,1,236.18,149Z"/><path class="cls-14" d="M236.18,149l42-24.25a.87.87,0,0,1,1.06,0c.24.2,2.61,1.45,2.87,1.64a1.3,1.3,0,0,1,.44,1.13v37.8a3.44,3.44,0,0,1-1.45,2.77l-7.37,4.26-38.55-22.25A2.79,2.79,0,0,1,236.18,149Z"/><path class="cls-3" d="M238.13,192.42c-.29-.19-2.68-1.51-2.94-1.69a1.34,1.34,0,0,1-.46-1.14v-37.8a3.49,3.49,0,0,1,.46-1.67l38.55,22.25-34.63,20A.9.9,0,0,1,238.13,192.42Z"/><path class="cls-12" d="M238.13,192.42c-.29-.19-2.68-1.51-2.94-1.69a1.34,1.34,0,0,1-.46-1.14v-37.8a3.49,3.49,0,0,1,.46-1.67l38.55,22.25-34.63,20A.9.9,0,0,1,238.13,192.42Z"/><path class="cls-3" d="M239.11,192.36l42-24.25a3.44,3.44,0,0,0,1.45-2.77v-37.8c0-1.06-.64-1.55-1.45-1.09l-42,24.25a3.47,3.47,0,0,0-1.45,2.77v37.8C237.66,192.33,238.31,192.82,239.11,192.36Z"/><path class="cls-12" d="M237.66,191.27v-.73L255,161.74l-17.15-9.5.13-.31,21.36,8.91c.45.18,1-.15,1.49-.86l21.33-33.52a.86.86,0,0,1,.13.14L265.2,155.87l17.36,8.73v.74a3.93,3.93,0,0,1-.43,1.71l-17.81-9.67-2.52,4.31c-1,1.71-2.37,2.5-3.37,1.94l-2.52-1.4-17.78,30.19A1.38,1.38,0,0,1,237.66,191.27Z"/></g></g></g><g id="freepik--Device--inject-8"><g id="freepik--Mobile--inject-8"><g id="freepik--mobile--inject-8-2" data-name="freepik--mobile--inject-8"><path class="cls-3" d="M419.31,336.38,299.63,405.47a12.93,12.93,0,0,1-12.49.24L46.19,266.54c-3.8-2.19-6.88-7.09-6.88-11s3.08-8.75,6.87-10.95l119.25-68.75a15.25,15.25,0,0,1,13.74,0l240.14,138.7c3.8,2.19,6.88,7.09,6.88,10.95S423.11,334.19,419.31,336.38Z"/><path class="cls-15" d="M165.43,175.84,46.18,244.68c-3.79,2.2-6.87,7.1-6.87,10.95s3.08,8.76,6.88,11l241,139.13a13.47,13.47,0,0,0,6,1.48V241.63l-114-65.79A15.23,15.23,0,0,0,165.43,175.84Z"/><path class="cls-16" d="M299.63,405.47l119.68-69.09c3.8-2.19,6.88-7.09,6.88-10.94s-3.08-8.76-6.88-10.95L293.12,241.63V407.19A12.71,12.71,0,0,0,299.63,405.47Z"/><path class="cls-3" d="M296.78,393.16a13.41,13.41,0,0,1-12.12,0L46.16,255.46c-5.13-3-5.13-7.8,0-10.76l119.26-68.86a15.25,15.25,0,0,1,13.74,0L419.3,314.54c3.78,2.18,3.78,5.75,0,7.93Z"/><path class="cls-8" d="M296.78,393.16a13.41,13.41,0,0,1-12.12,0L46.16,255.46c-5.13-3-5.13-7.8,0-10.76l119.26-68.86a15.25,15.25,0,0,1,13.74,0L419.3,314.54c3.78,2.18,3.78,5.75,0,7.93Z"/><path class="cls-9" d="M285.2,379.3a14.45,14.45,0,0,1-13.06,0L66.91,260.81c-3.61-2.08-3.61-5.46,0-7.54L179.1,188.54a14.51,14.51,0,0,1,13.06,0L397.39,307c3.59,2.07,3.59,5.47,0,7.54Z"/><path class="cls-10" d="M185.23,187a13,13,0,0,0-6.13,1.57L66.91,253.27c-3.61,2.08-3.61,5.46,0,7.54l22.24,12.84,96.08-61.36Z"/><path class="cls-11" d="M192.24,193.4a14.51,14.51,0,0,0-13.06,0L67,258.17a6.34,6.34,0,0,0-1.72,1.37,7.16,7.16,0,0,0,1.63,1.27L272.14,379.3a14.45,14.45,0,0,0,13.06,0l112.19-64.76a6.88,6.88,0,0,0,1.69-1.35,6.67,6.67,0,0,0-1.61-1.29Z"/><path class="cls-9" d="M107.92,223l19.88-11.43c1.19-.68,1.25-1.76.13-2.4a4.59,4.59,0,0,0-4.16.08L103.89,220.7c-1.19.68-1.25,1.76-.13,2.4A4.62,4.62,0,0,0,107.92,223Z"/><path class="cls-9" d="M142.06,203.29a1.23,1.23,0,0,0,0-2.33,4.47,4.47,0,0,0-4,0,1.23,1.23,0,0,0,0,2.33A4.47,4.47,0,0,0,142.06,203.29Z"/><path class="cls-9" d="M150.12,198.63a1.23,1.23,0,0,0,0-2.33,4.47,4.47,0,0,0-4,0,1.23,1.23,0,0,0,0,2.33A4.47,4.47,0,0,0,150.12,198.63Z"/><path class="cls-9" d="M85.64,235.86a1.23,1.23,0,0,0,0-2.33,4.47,4.47,0,0,0-4,0,1.23,1.23,0,0,0,0,2.33A4.47,4.47,0,0,0,85.64,235.86Z"/><path class="cls-9" d="M93.7,231.2a1.23,1.23,0,0,0,0-2.33,4.47,4.47,0,0,0-4,0,1.23,1.23,0,0,0,0,2.33A4.47,4.47,0,0,0,93.7,231.2Z"/><path class="cls-3" d="M121.77,302.34a4.6,4.6,0,0,1,2.15,3.56,1.37,1.37,0,0,1-.59,1.26l-1.51.87a1.57,1.57,0,0,1-1.55-.17L92.33,291.72a4.62,4.62,0,0,1-2.15-3.56,1.37,1.37,0,0,1,.54-1.23c.27-.17,1.29-.75,1.55-.9a1.59,1.59,0,0,1,1.56.17Z"/><path class="cls-16" d="M121.77,302.34a4.6,4.6,0,0,1,2.15,3.56,1.37,1.37,0,0,1-.59,1.26l-1.51.87a1.57,1.57,0,0,1-1.55-.17L92.33,291.72a4.62,4.62,0,0,1-2.15-3.56,1.37,1.37,0,0,1,.54-1.23c.27-.17,1.29-.75,1.55-.9a1.59,1.59,0,0,1,1.56.17Z"/><path class="cls-3" d="M120.27,303.2,92.33,287.07c-1.19-.69-2.15-.2-2.15,1.09a4.62,4.62,0,0,0,2.15,3.56l27.94,16.14c1.19.68,2.15.19,2.15-1.09A4.59,4.59,0,0,0,120.27,303.2Z"/><path class="cls-8" d="M120.27,303.2,92.33,287.07c-1.19-.69-2.15-.2-2.15,1.09a4.62,4.62,0,0,0,2.15,3.56l27.94,16.14c1.19.68,2.15.19,2.15-1.09A4.59,4.59,0,0,0,120.27,303.2Z"/><path class="cls-3" d="M84.37,280.74a4.63,4.63,0,0,1,2.14,3.57,1.32,1.32,0,0,1-.59,1.25c-.26.14-1.23.73-1.5.88a1.62,1.62,0,0,1-1.55-.18L69.7,278.65a4.62,4.62,0,0,1-2.15-3.56,1.37,1.37,0,0,1,.54-1.23l1.55-.9a1.52,1.52,0,0,1,1.55.18Z"/><path class="cls-16" d="M84.37,280.74a4.63,4.63,0,0,1,2.14,3.57,1.32,1.32,0,0,1-.59,1.25c-.26.14-1.23.73-1.5.88a1.62,1.62,0,0,1-1.55-.18L69.7,278.65a4.62,4.62,0,0,1-2.15-3.56,1.37,1.37,0,0,1,.54-1.23l1.55-.9a1.52,1.52,0,0,1,1.55.18Z"/><path class="cls-3" d="M82.87,281.61,69.7,274c-1.19-.68-2.15-.2-2.15,1.09a4.62,4.62,0,0,0,2.15,3.56l13.17,7.61c1.19.69,2.15.2,2.15-1.09A4.6,4.6,0,0,0,82.87,281.61Z"/><path class="cls-8" d="M82.87,281.61,69.7,274c-1.19-.68-2.15-.2-2.15,1.09a4.62,4.62,0,0,0,2.15,3.56l13.17,7.61c1.19.69,2.15.2,2.15-1.09A4.6,4.6,0,0,0,82.87,281.61Z"/></g></g><g id="freepik--Message--inject-8"><g id="freepik--message--inject-8-2" data-name="freepik--message--inject-8"><path class="cls-3" d="M232.17,326.32v.81a4.47,4.47,0,0,0,2,3.51l43.51,25.12a4.47,4.47,0,0,0,4.06,0l72.05-41.6a4.47,4.47,0,0,0,2-3.51v-.81a4.47,4.47,0,0,0-2-3.51l-43.51-25.12a4.47,4.47,0,0,0-4.06,0l-72.05,41.6A4.46,4.46,0,0,0,232.17,326.32Z"/><path class="cls-3" d="M232.17,326.32v.81a4.47,4.47,0,0,0,2,3.51l43.51,25.12a4.47,4.47,0,0,0,4.06,0l72.05-41.6a4.47,4.47,0,0,0,2-3.51v-.81a4.47,4.47,0,0,0-2-3.51l-43.51-25.12a4.47,4.47,0,0,0-4.06,0l-72.05,41.6A4.46,4.46,0,0,0,232.17,326.32Z"/><path class="cls-17" d="M353.82,306.33l-43.51-25.12a4.47,4.47,0,0,0-4.06,0l-26.51,15.33v59.74h0a4.09,4.09,0,0,0,2-.49l72.05-41.6a4.47,4.47,0,0,0,2-3.51v-.81A4.5,4.5,0,0,0,353.82,306.33Z"/><path class="cls-4" d="M353.82,306.33l-43.51-25.12a4.47,4.47,0,0,0-4.06,0l-26.51,15.33v59.74h0a4.09,4.09,0,0,0,2-.49l72.05-41.6a4.47,4.47,0,0,0,2-3.51v-.81A4.5,4.5,0,0,0,353.82,306.33Z"/><path class="cls-17" d="M279.74,296.54l-45.54,26.3a4.46,4.46,0,0,0-2,3.51v.81a4.47,4.47,0,0,0,2,3.51l43.51,25.12a4.09,4.09,0,0,0,2,.49h0Z"/><path class="cls-12" d="M279.74,296.54l-45.54,26.3a4.46,4.46,0,0,0-2,3.51v.81a4.47,4.47,0,0,0,2,3.51l43.51,25.12a4.09,4.09,0,0,0,2,.49h0Z"/><path class="cls-3" d="M270.74,346.25l-36.54-21.1a1.23,1.23,0,0,1,0-2.34l72.05-41.6a4.47,4.47,0,0,1,4.06,0l43.51,25.12a1.23,1.23,0,0,1,.79,1.55,1.24,1.24,0,0,1-.79.79l-11.95,6.87L337.68,318l-55.91,32.28a4.47,4.47,0,0,1-4.06,0l-3.54-2.05Z"/><path class="cls-17" d="M270.74,346.25l-36.54-21.1a1.23,1.23,0,0,1,0-2.34l72.05-41.6a4.47,4.47,0,0,1,4.06,0l43.51,25.12a1.23,1.23,0,0,1,.79,1.55,1.24,1.24,0,0,1-.79.79l-11.95,6.87L337.68,318l-55.91,32.28a4.47,4.47,0,0,1-4.06,0l-3.54-2.05Z"/><path class="cls-4" d="M303.92,311.2l49.9-4.87-49.46,2.8,5.95-27.92a4.13,4.13,0,0,0-2.21-.47l-9.33,37.8-65.39,5.39a1.35,1.35,0,0,0,.82,1.27l52.8-3.12-7.27,28.68L289,322h0l9-.53a4.86,4.86,0,0,0,3-1.24h0a4.86,4.86,0,0,0,1.52-2.62Z"/><path class="cls-17" d="M249,322.59l49.79-4.1,1.78-7.14,1-4,6.58-26.64a4.14,4.14,0,0,0-1.86.47l-36,20.8-36,20.8a1.45,1.45,0,0,0-.82,1.07l10-.82Z"/><path class="cls-18" d="M300,275.25c4.55-2.63,11.93-2.63,16.48,0s4.55,6.89,0,9.51-11.93,2.63-16.48,0S295.49,277.88,300,275.25Z"/><path class="cls-19" d="M302.52,281.54a.7.7,0,0,1-.34-.12.21.21,0,0,1-.09-.23l.68-3a.41.41,0,0,1,.08-.27.47.47,0,0,1,.25-.27l1.66-1a.68.68,0,0,1,.37-.09.6.6,0,0,1,.37.09l8.83,5.1a.22.22,0,0,1,.15.21.25.25,0,0,1-.15.21l-1.79,1a.81.81,0,0,1-.74,0l-6-3.44-.4,1.65c0,.08-.08.15-.19.2a.86.86,0,0,1-.39.06Z"/></g><path class="cls-19" d="M190.64,309.87l32.23-18.6,22,5.45a2.37,2.37,0,0,0,2.47-3.71l-8.26-11.12,32.22-18.61c2.38-1.38,2.38-3.63,0-5L206.85,221a9.64,9.64,0,0,0-8.66,0l-80.67,46.62c-2.38,1.37-2.38,3.62,0,5L182,309.87A9.6,9.6,0,0,0,190.64,309.87Z"/><path class="cls-3" d="M150.85,260.81a25.64,25.64,0,0,1,6.05-2.58,27.56,27.56,0,0,1,5.77-1,20.23,20.23,0,0,1,5.15.31,18,18,0,0,1,4.18,1.33c1.33.66,2.71,1.39,4.12,2.19a41.59,41.59,0,0,1,3.78,2.37,7.93,7.93,0,0,1,2.3,2.42,4.2,4.2,0,0,1,.55,3,7.07,7.07,0,0,1-1.75,3.29,17.19,17.19,0,0,1-4.52,3.47,27.34,27.34,0,0,1-6,2.61,26.66,26.66,0,0,1-5.74,1,20.7,20.7,0,0,1-5.15-.32,18.07,18.07,0,0,1-4.19-1.32q-2-1-4.11-2.19T147.5,273a7.75,7.75,0,0,1-2.29-2.41,4.27,4.27,0,0,1-.55-3,7.47,7.47,0,0,1,1.71-3.33A16.76,16.76,0,0,1,150.85,260.81Zm20.45,6.78a8.94,8.94,0,0,0-1.27-.83l-1.92-1.11-1.93-1.11a9.62,9.62,0,0,0-1.43-.73,8.62,8.62,0,0,0-3.49-.78,8.16,8.16,0,0,0-4.28,1.32c-1.59.92-2.36,1.74-2.3,2.47a2.92,2.92,0,0,0,1.36,2,11.68,11.68,0,0,0,1.23.85c.58.37,1.21.75,1.88,1.13s1.32.75,2,1.09a15.48,15.48,0,0,0,1.48.71,8.79,8.79,0,0,0,3.49.78,8.25,8.25,0,0,0,4.28-1.32c1.59-.92,2.36-1.74,2.29-2.48A2.82,2.82,0,0,0,171.3,267.59Zm14.23-24.82a2.41,2.41,0,0,1,.19-1.27,3.43,3.43,0,0,1,1.42-1.22l4.93-2.85a4.41,4.41,0,0,1,1.83-.61,2.67,2.67,0,0,1,1.57.29,1.27,1.27,0,0,1,.27.25.93.93,0,0,1,.18.39l5.67,50.17a2.49,2.49,0,0,1-.2,1.26,3.3,3.3,0,0,1-1.41,1.23l-4.93,2.85a4.4,4.4,0,0,1-1.83.6,2.67,2.67,0,0,1-1.57-.28,1.16,1.16,0,0,1-.28-.26,1.38,1.38,0,0,1-.18-.39Zm25.91,11.92a26.53,26.53,0,0,1,6.05-2.59,26.93,26.93,0,0,1,5.77-1,20.23,20.23,0,0,1,5.15.31,18,18,0,0,1,4.18,1.33c1.33.66,2.71,1.39,4.12,2.18a37.6,37.6,0,0,1,3.78,2.38,7.9,7.9,0,0,1,2.3,2.41,4.26,4.26,0,0,1,.55,3,7.14,7.14,0,0,1-1.75,3.31,17.57,17.57,0,0,1-4.52,3.47,26.64,26.64,0,0,1-6,2.6,26,26,0,0,1-5.73,1,20.69,20.69,0,0,1-5.15-.31,18.09,18.09,0,0,1-4.19-1.33c-1.34-.65-2.71-1.37-4.11-2.18s-2.66-1.6-3.79-2.38a8.14,8.14,0,0,1-2.29-2.42,4.22,4.22,0,0,1-.55-3,7.47,7.47,0,0,1,1.71-3.33A16.32,16.32,0,0,1,211.44,254.69Zm20.45,6.77a9.48,9.48,0,0,0-1.27-.82l-1.92-1.1-1.93-1.11a11.39,11.39,0,0,0-1.43-.74,9,9,0,0,0-3.49-.78,8.38,8.38,0,0,0-4.29,1.32c-1.58.92-2.35,1.75-2.29,2.48a2.92,2.92,0,0,0,1.36,2,14.87,14.87,0,0,0,1.22.86c.59.37,1.22.75,1.89,1.13s1.32.75,2,1.09,1.14.57,1.48.71a9.14,9.14,0,0,0,3.49.78A8.45,8.45,0,0,0,231,266c1.59-.91,2.35-1.74,2.29-2.47a2.87,2.87,0,0,0-1.39-2Z"/></g></g><g id="megaphone"><g id="freepik--megaphone--inject-8"><path class="cls-9" d="M69.75,65.12l13.12-7.58V117.9c0,2.27,2.63,4.54,2.63,4.54L72.38,130s-2.63-2.28-2.63-4.55Z"/><path class="cls-11" d="M53.8,65l5.53,7V98.22a39.09,39.09,0,0,1-6,20.75h0l19,11a7,7,0,0,1-2.63-4.55V74.2Z"/><polygon class="cls-3" points="53.33 119.02 53.33 122.05 72.38 133.05 72.38 130.02 53.33 119.02"/><polygon class="cls-3" points="72.38 133.05 85.5 125.47 85.5 122.44 72.38 130.02 72.38 133.05"/><polygon class="cls-7" points="72.38 133.05 85.5 125.47 85.5 122.44 72.38 130.02 72.38 133.05"/><path class="cls-3" d="M69.15,33.25h0c-2.23-1.34-5.33-1.17-8.76.81l-.13.07C53.48,38.06,48,47.54,48,55.41v.13c0,4,1.48,6.86,3.84,8.08h0l9.93,5.84L78.33,38.67Z"/><path class="cls-20" d="M69.15,33.25h0c-2.23-1.34-5.33-1.17-8.76.81l-.13.07C53.48,38.06,48,47.54,48,55.41v.13c0,4,1.48,6.86,3.84,8.08h0l9.93,5.84L78.33,38.67Z"/><path class="cls-21" d="M51.82,63.64h0l9.93,5.84,5.5-10.21L49.12,48.8A21.83,21.83,0,0,0,48,55.41v.13C48,59.61,49.46,62.42,51.82,63.64Z"/><path class="cls-3" d="M90.59,40.8h0c-2.52-1.44-5.92-1.39-9.68.45-.4.19-.8.4-1.2.64s-.95.57-1.41.89a23.88,23.88,0,0,0-2.25,1.76,30.79,30.79,0,0,0-3.78,3.88,36.85,36.85,0,0,0-6.94,13.21,25.91,25.91,0,0,0-1,7c0,4.79,1.64,8.19,4.31,9.85L59.15,73h0a12.23,12.23,0,0,1-5.6-10.57,25.87,25.87,0,0,1,.94-6.66,36.69,36.69,0,0,1,7-13.52,30.13,30.13,0,0,1,3.78-3.88,23.4,23.4,0,0,1,2.27-1.84c.47-.32.94-.62,1.41-.89s.81-.44,1.22-.63a12.14,12.14,0,0,1,10.74.18h0l.27.15.34.2Z"/><path class="cls-7" d="M59.13,73h0a12.23,12.23,0,0,1-5.6-10.57,25.87,25.87,0,0,1,.94-6.66l10.84,5.9a25.91,25.91,0,0,0-1,7c0,4.79,1.64,8.19,4.31,9.85Z"/><path class="cls-3" d="M95.11,50.78c0,9.83-6.89,21.77-15.4,26.68-4.27,2.48-8.15,2.69-10.94,1l-.15-.09c-2.67-1.66-4.31-5.06-4.31-9.85,0-9.82,6.89-21.77,15.4-26.68,4.24-2.45,8.09-2.69,10.88-1.09S95.11,45.86,95.11,50.78Z"/><path class="cls-12" d="M95.11,50.78c0,9.83-6.89,21.77-15.4,26.68-4.27,2.48-8.15,2.69-10.94,1l-.15-.09c-2.67-1.66-4.31-5.06-4.31-9.85,0-9.82,6.89-21.77,15.4-26.68,4.24-2.45,8.09-2.69,10.88-1.09S95.11,45.86,95.11,50.78Z"/><path class="cls-3" d="M142.34,48.24s-15.54,8-28.81,31a105,105,0,0,0-6.3,12.82c-6.66,16.35-6.11,27.62-6.11,27.62-4.63-11.35-10.39-23.09-20-32.08a144.66,144.66,0,0,0-11.81-9.88h0c-2.54-1.48-4-4.68-4-9.1A26.56,26.56,0,0,1,67,59.54a35.32,35.32,0,0,1,2.64-5.64A30.45,30.45,0,0,1,80.2,42.75c3.83-2.21,7.35-2.53,9.89-1.07h0A145.31,145.31,0,0,0,104.55,47C117.15,50.79,130.2,49.9,142.34,48.24Z"/><path class="cls-20" d="M142.34,48.24s-15.54,8-28.81,31a105,105,0,0,0-6.3,12.82c-6.66,16.35-6.11,27.62-6.11,27.62-4.63-11.35-10.39-23.09-20-32.08a144.66,144.66,0,0,0-11.81-9.88h0c-2.54-1.48-4-4.68-4-9.1A26.56,26.56,0,0,1,67,59.54a35.32,35.32,0,0,1,2.64-5.64A30.45,30.45,0,0,1,80.2,42.75c3.83-2.21,7.35-2.53,9.89-1.07h0A145.31,145.31,0,0,0,104.55,47C117.15,50.79,130.2,49.9,142.34,48.24Z"/><path class="cls-21" d="M107.23,92c-6.66,16.35-6.11,27.62-6.11,27.62-4.63-11.35-10.39-23.09-20-32.08a144.66,144.66,0,0,0-11.81-9.88h0c-2.54-1.48-4-4.68-4-9.1a26.82,26.82,0,0,1,1.69-9C78.81,65.42,97.86,76.29,107.23,92Z"/><path class="cls-3" d="M171.62,70.41c0,10.25-3.16,21.46-8.41,31.82h0c-6.73,13.31-16.88,25.11-28.21,31.67-20.25,11.69-36.66,2.21-36.66-21.16a62,62,0,0,1,2.43-16.57,87.25,87.25,0,0,1,22.17-37.63q2.15-2.11,4.41-4c.63-.52,1.27-1,1.91-1.51h0c.91-.69,1.82-1.35,2.75-2s2-1.21,3-1.78C155.2,37.54,171.62,47,171.62,70.41Z"/><path class="cls-7" d="M163.21,102.23c-6.73,13.31-16.88,25.11-28.21,31.67-20.25,11.69-36.66,2.21-36.66-21.16a62,62,0,0,1,2.43-16.57h0c1.37,3,6.29,7.34,8.5,4.31a55.81,55.81,0,0,0-2.13,14.7c0,6.72,1.5,12.14,4.33,15.68a12,12,0,0,0,9.86,4.56c4,0,8.68-1.47,13.49-4.25,9.67-5.58,18.56-15.61,24.87-27C159.65,104.2,160.91,105.26,163.21,102.23Z"/><path class="cls-3" d="M169.11,71.72c0,10.32-3.62,22-9.46,32.48-6.31,11.36-15.2,21.39-24.87,27-4.81,2.78-9.47,4.25-13.49,4.25a12,12,0,0,1-9.86-4.56c-2.83-3.54-4.33-9-4.33-15.68a55.81,55.81,0,0,1,2.13-14.7c.51-1.9,1.12-3.8,1.81-5.7A83.17,83.17,0,0,1,115.36,85l1-2c.59-1.08,1.2-2.15,1.84-3.2a82.49,82.49,0,0,1,7.23-10.17l.09-.1A72.37,72.37,0,0,1,131,63.65,49.75,49.75,0,0,1,135.17,60q.9-.72,1.8-1.38c.73-.53,1.47-1,2.21-1.53s1.46-.92,2.19-1.35c4.82-2.79,9.49-4.25,13.5-4.25C163.81,51.54,169.11,59.06,169.11,71.72Z"/><path class="cls-8" d="M169.11,71.72c0,10.32-3.62,22-9.46,32.48-6.31,11.36-15.2,21.39-24.87,27-4.81,2.78-9.47,4.25-13.49,4.25a12,12,0,0,1-9.86-4.56c-2.83-3.54-4.33-9-4.33-15.68a55.81,55.81,0,0,1,2.13-14.7c.51-1.9,1.12-3.8,1.81-5.7A83.17,83.17,0,0,1,115.36,85l1-2c.59-1.08,1.2-2.15,1.84-3.2a82.49,82.49,0,0,1,7.23-10.17l.09-.1A72.37,72.37,0,0,1,131,63.65,49.75,49.75,0,0,1,135.17,60q.9-.72,1.8-1.38c.73-.53,1.47-1,2.21-1.53s1.46-.92,2.19-1.35c4.82-2.79,9.49-4.25,13.5-4.25C163.81,51.54,169.11,59.06,169.11,71.72Z"/><path class="cls-3" d="M138,77.46l-12.86,24c-3.62-1.36-9.73-3.53-14.71-4.8.2-.64.42-1.26.66-1.9A81.56,81.56,0,0,1,115.41,85c.34-.66.69-1.31,1-2,.59-1.08,1.2-2.15,1.84-3.19a82.49,82.49,0,0,1,7.23-10.17.31.31,0,0,0,.09-.11c.39-.46.78-.92,1.17-1.36A84,84,0,0,0,138,77.46Z"/><g class="cls-22"><path class="cls-19" d="M138,77.46l-12.86,24c-3.62-1.36-9.73-3.53-14.71-4.8.2-.64.42-1.26.66-1.9A81.56,81.56,0,0,1,115.41,85c.34-.66.69-1.31,1-2,.59-1.08,1.2-2.15,1.84-3.19a82.49,82.49,0,0,1,7.23-10.17.31.31,0,0,0,.09-.11c.39-.46.78-.92,1.17-1.36A84,84,0,0,0,138,77.46Z"/></g><path class="cls-3" d="M126.17,101.41c-2.91,0-4.64-2.35-4.64-6.28V95c0-6.18,4.35-13.73,9.71-16.82l.1-.06a8.35,8.35,0,0,1,4.06-1.26c2.9,0,4.64,2.35,4.64,6.29v.12c0,6.18-4.36,13.72-9.71,16.81l-.1.06A8.35,8.35,0,0,1,126.17,101.41Z"/><g class="cls-23"><path class="cls-19" d="M126.17,101.41c-2.91,0-4.64-2.35-4.64-6.28V95c0-6.18,4.35-13.73,9.71-16.82l.1-.06a8.35,8.35,0,0,1,4.06-1.26c2.9,0,4.64,2.35,4.64,6.29v.12c0,6.18-4.36,13.72-9.71,16.81l-.1.06A8.35,8.35,0,0,1,126.17,101.41Z"/></g><path class="cls-2" d="M140,33.78a2.89,2.89,0,0,1-2.89-2.89v-28a2.89,2.89,0,1,1,5.78,0v28A2.89,2.89,0,0,1,140,33.78Z"/><path class="cls-2" d="M114.59,40.6a2.9,2.9,0,0,1-2.5-1.44l-14-24.22a2.89,2.89,0,0,1,5-2.9l14,24.22a2.89,2.89,0,0,1-2.51,4.34Z"/><path class="cls-2" d="M88.12,175.38a2.9,2.9,0,0,1-2.88-2.92,2.82,2.82,0,0,1,.38-1.42l14-24.22a2.89,2.89,0,0,1,5.12,2.68l-.12.21-14,24.22A2.93,2.93,0,0,1,88.12,175.38Z"/><path class="cls-2" d="M140,179.12a2.89,2.89,0,0,1-2.89-2.89v-28a2.89,2.89,0,0,1,5.78,0h0v28A2.89,2.89,0,0,1,140,179.12Z"/><path class="cls-2" d="M179.48,153a2.91,2.91,0,0,1-2.48-1.44l-14-24.22a2.89,2.89,0,0,1,5-2.89l14,24.22a2.9,2.9,0,0,1-2.5,4.34Z"/><path class="cls-2" d="M208.33,124.11a2.92,2.92,0,0,1-1.44-.38l-24.22-14a2.89,2.89,0,1,1,2.9-5h0l24.21,14a2.89,2.89,0,0,1-1.45,5.39Z"/><path class="cls-2" d="M218.9,84.68h-28a2.89,2.89,0,0,1,0-5.78h28a2.89,2.89,0,0,1,0,5.78Z"/><path class="cls-2" d="M184.12,59.23a2.89,2.89,0,0,1-1.45-5.4l24.22-14a2.89,2.89,0,0,1,3.1,4.88l-.21.12-24.21,14A2.85,2.85,0,0,1,184.12,59.23Z"/><path class="cls-2" d="M165.49,40.6A2.89,2.89,0,0,1,163,36.26L177,12a2.89,2.89,0,1,1,5,2.9L168,39.16A2.91,2.91,0,0,1,165.49,40.6Z"/></g></g><use id="b-nino" transform="translate(1.78 280.73) scale(0.15)" xlink:href="#image"/><use id="m-nino" transform="matrix(-0.1, 0, 0, 0.1, 480.38, 330.37)" xlink:href="#image"/></g></g></svg>