<?xml version="1.0" encoding="utf-8"?>
<!-- Generator: Adobe Illustrator 26.0.2, SVG Export Plug-In . SVG Version: 6.00 Build 0)  -->
<svg version="1.1" id="Layer_1" xmlns="http://www.w3.org/2000/svg" xmlns:xlink="http://www.w3.org/1999/xlink" x="0px" y="0px"
	 viewBox="0 0 500 500" style="enable-background:new 0 0 500 500;" xml:space="preserve">
<style type="text/css">
	.st0{fill:#F5F5F5;}
	.st1{fill:#E0E0E0;}
	.st2{fill:#3FCEDB;}
	.st3{opacity:0.15;enable-background:new    ;}
	.st4{fill:#FFFFFF;}
	.st5{opacity:0.2;fill:#FFFFFF;enable-background:new    ;}
	.st6{opacity:0.1;enable-background:new    ;}
	.st7{opacity:0.3;enable-background:new    ;}
	.st8{fill:#37474F;}
	.st9{fill:#263238;}
	.st10{fill:#455A64;}
	.st11{opacity:0.2;enable-background:new    ;}
	.st12{opacity:0.3;}
	.st13{opacity:0.5;fill:#FFFFFF;enable-background:new    ;}
	.st14{opacity:0.5;enable-background:new    ;}
	.st15{opacity:0.4;enable-background:new    ;}
	.st16{opacity:0.3;fill:#FFFFFF;enable-background:new    ;}
	.st17{fill:#F28F8F;}
	.st18{fill:#FAFAFA;}
	.st19{opacity:0.8;fill:#FAFAFA;enable-background:new    ;}
	.st20{opacity:0.2;fill:#3FCEDB;enable-background:new    ;}
	.st21{opacity:0.6;}
	.st22{opacity:0.8;}
</style>
<g id="freepik--Floor--inject-8">
	<ellipse id="freepik--floor--inject-8" class="st0" cx="250" cy="333.5" rx="236" ry="136.2"/>
</g>
<g id="freepik--Shadow--inject-8">
	<path id="freepik--shadow--inject-8" class="st1" d="M41.1,306.5l257.4,148.6c3.1,1.6,6.9,1.6,10,0l140.1-80.9
		c2.8-1.6,2.8-4.2,0-5.8L191.3,219.8c-3.1-1.6-6.9-1.6-10,0L41.1,300.7C38.3,302.3,38.3,304.9,41.1,306.5z"/>
</g>
<g id="plant">
	<g id="freepik--Plants--inject-8">
		<path class="st2" d="M60.5,290.4l10.4-4.7c0,0,4.5-20.7,4.6-37.1c0.1-23-11.9-52-30.1-47.3s5.1,30.5,8.8,50.4
			S60.5,290.4,60.5,290.4z"/>
		<path class="st3" d="M60.5,290.4l10.4-4.7c0,0,4.5-20.7,4.6-37.1c0.1-23-11.9-52-30.1-47.3s5.1,30.5,8.8,50.4
			S60.5,290.4,60.5,290.4z"/>
		<path class="st4" d="M65.8,288.6L65.8,288.6c-0.3,0-0.6-0.3-0.5-0.7c0,0,0,0,0,0c6.8-50.5-15.8-78.6-16-78.9
			c-0.2-0.2-0.2-0.6,0.1-0.8c0,0,0,0,0,0c0.3-0.2,0.6-0.2,0.8,0.1c0.2,0.3,23.2,28.8,16.3,79.8C66.5,288.4,66.2,288.6,65.8,288.6
			C65.9,288.6,65.9,288.6,65.8,288.6z"/>
		<path class="st2" d="M54,293.3l7.3-3.3c0,0,2.6-14.3-2.7-32.5c-4.6-15.8-18.6-30-26.5-28.1s-8.3,7.3-5.1,13.4S51.6,264.8,54,293.3
			z"/>
		<path class="st5" d="M54,293.3l7.3-3.3c0,0,2.6-14.3-2.7-32.5c-4.6-15.8-18.6-30-26.5-28.1s-8.3,7.3-5.1,13.4S51.6,264.8,54,293.3
			z"/>
		<path class="st4" d="M57.8,292.2L57.8,292.2c-0.3,0-0.6-0.3-0.5-0.6c3.4-32.1-24.5-56.8-24.8-57c-0.2-0.2-0.3-0.6-0.1-0.8
			c0.2-0.2,0.6-0.3,0.8-0.1c0.3,0.2,28.7,25.4,25.2,58C58.4,292,58.1,292.2,57.8,292.2C57.8,292.2,57.8,292.2,57.8,292.2z"/>
	</g>
</g>
<g id="freepik--Icons--inject-8">
	<g id="laik">
		<path class="st2" d="M399,114.8c0-0.5-0.1-1.1-0.2-1.6l5.9-6.7l-7.5-4.2c-0.7-0.5-1.7-0.6-3.1,0.2l-13,7.6l-1.8,1
			c0.3-1.5,0.5-3,0.6-4.6c0-0.6,0.1-1.2,0.1-1.9l0.2,0.1l4.4-5.1l-7.5-4.2l0,0c-2.5-1.5-6.8,1.5-6.8,2.7c0,1.5,0.6,9.2,0,11.4
			s-7.3,17.5-7.3,17.5v1V159l24.5-14.1c3.2-1.9,5.4-5.8,5.4-8.5c0-1.2-0.2-2.4-0.6-3.5c2.1-1.2,4.1-5.5,4.1-7.4c0-2.8-1-3.5-1-3.5
			C397.5,120.1,398.8,117.5,399,114.8z"/>
		<path class="st6" d="M399,114.8c0-0.5-0.1-1.1-0.2-1.6l5.9-6.7l-7.5-4.2c-0.7-0.5-1.7-0.6-3.1,0.2l-13,7.6l-1.8,1
			c0.3-1.5,0.5-3,0.6-4.6c0-0.6,0.1-1.2,0.1-1.9l0.2,0.1l4.4-5.1l-7.5-4.2l0,0c-2.5-1.5-6.8,1.5-6.8,2.7c0,1.5,0.6,9.2,0,11.4
			s-7.3,17.5-7.3,17.5v1V159l24.5-14.1c3.2-1.9,5.4-5.8,5.4-8.5c0-1.2-0.2-2.4-0.6-3.5c2.1-1.2,4.1-5.5,4.1-7.4c0-2.8-1-3.5-1-3.5
			C397.5,120.1,398.8,117.5,399,114.8z"/>
		<polygon class="st1" points="371,164.1 363,159.4 363,126.3 371,130.9 		"/>
		<polygon class="st2" points="371,164.1 363,159.4 363,126.3 371,130.9 		"/>
		<polygon class="st7" points="371,164.1 363,159.4 363,126.3 371,130.9 		"/>
		<path class="st2" d="M404.7,130.4c0,4.1-2.4,5.6-4.4,6.8c0.5,1.1,0.7,2.3,0.6,3.5c0,2.7-2.2,6.6-5.4,8.5L371,163.4v-30.6v-1.4
			c0,0,6.7-15.3,7.4-17.5s0-10,0-11.4s6.1-5.5,8-1.3s2.1,8.6,1,14.2l14.8-8.6c3.1-1.8,4.4,0.8,4.4,2.8c0,2.9-1.3,5.7-3.1,6.8
			c0,0,3.4,0.2,3.4,4.1c-0.1,2.5-1.3,4.9-3.3,6.4C403.5,127,404.7,127.7,404.7,130.4z"/>
		<polygon class="st8" points="356,176.5 367,170.2 367,131.9 356,138.3 		"/>
		<polygon class="st9" points="357,176.6 349,172 349,133.6 357,138.2 		"/>
		<polygon class="st10" points="359.6,128.1 367.3,132.6 356.7,138.7 348.9,134.3 		"/>
		<path class="st2" d="M378.2,113.9c-0.6,2.2-7.4,17.5-7.4,17.5l-7.7-4.3c0,0,6.7-15.3,7.3-17.5s0-10,0-11.4l7.7,4.4
			C378.2,104,378.8,111.7,378.2,113.9z"/>
		<path class="st11" d="M378.2,113.9c-0.6,2.2-7.4,17.5-7.4,17.5l-7.7-4.3c0,0,6.7-15.3,7.3-17.5s0-10,0-11.4l7.7,4.4
			C378.2,104,378.8,111.7,378.2,113.9z"/>
	</g>
	<g id="hert">
		<path class="st2" d="M468.9,146.4L468.9,146.4l-7.4-4.6l0,0c-2.7-1.7-6.9-1.6-11.6,1c-6.5,3.5-12.2,12.2-14.7,19.7l-5.3-3.3l0,0
			c-2.7-1.9-6.4-2.3-10.6-0.1c-0.5,0.3-1,0.6-1.6,0.9l-0.8,0.6c-0.2,0.2-0.5,0.3-0.7,0.5s-0.7,0.6-1.1,0.8l-0.4,0.3
			c-0.4,0.3-0.8,0.7-1.2,1.1l-0.2,0.2c-0.5,0.4-0.9,0.8-1.3,1.3l0,0c-1.3,1.4-2.5,2.8-3.6,4.4l0,0c-3,4.3-4.9,9.1-5,13.4
			c-0.3,7.9,4.5,13.1,10.4,16.6l0,0l5.8,3.6l0,0c3.4,2.2,7.2,3.9,11.1,5l9.7,2.9l10.2-13.5c9.7-12.9,21.4-30.8,21.8-42.7
			C472.6,150.4,471.2,147.7,468.9,146.4z"/>
		<path class="st2" d="M419.6,202.6l-5.7-3.6c-5.9-3.4-10.6-8.6-10.4-16.6c0.1-4.2,2.1-9.1,5-13.4l7.5,4.7c-3,4.3-4.9,9.1-5,13.4
			C410.8,194.2,414.5,199.2,419.6,202.6z"/>
		<g class="st12">
			<path d="M419.6,202.6l-5.7-3.6c-5.9-3.4-10.6-8.6-10.4-16.6c0.1-4.2,2.1-9.1,5-13.4l7.5,4.7c-3,4.3-4.9,9.1-5,13.4
				C410.8,194.2,414.5,199.2,419.6,202.6z"/>
		</g>
		<path class="st2" d="M468.9,146.3c-2.7-1.6-6.8-1.3-11.3,1.1c-7.8,4.2-14.6,16.1-15.8,24c-0.7-6.9-6.9-11.9-14.8-7.7
			c-4.4,2.4-8.1,5.9-10.9,10l-7.5-4.7l0.4-0.5c0.1-0.1,0.2-0.3,0.3-0.4l0.8-1.1c0.8-1,1.7-2,2.6-2.9c0.2-0.2,0.5-0.5,0.7-0.7
			l0.5-0.5c1.7-1.5,3.5-2.8,5.5-3.9c1.8-1,3.8-1.5,5.9-1.5c1.7,0,3.4,0.6,4.8,1.6l5.2,3.2c2.5-7.4,8.2-16.2,14.7-19.6
			c4.7-2.5,8.8-2.7,11.5-1l0,0L468.9,146.3z"/>
		<path class="st6" d="M468.9,146.3c-2.7-1.6-6.8-1.3-11.3,1.1c-7.8,4.2-14.6,16.1-15.8,24c-0.7-6.9-6.9-11.9-14.8-7.7
			c-4.4,2.4-8.1,5.9-10.9,10l-7.5-4.7l0.4-0.5c0.1-0.1,0.2-0.3,0.3-0.4l0.8-1.1c0.8-1,1.7-2,2.6-2.9c0.2-0.2,0.5-0.5,0.7-0.7
			l0.5-0.5c1.7-1.5,3.5-2.8,5.5-3.9c1.8-1,3.8-1.5,5.9-1.5c1.7,0,3.4,0.6,4.8,1.6l5.2,3.2c2.5-7.4,8.2-16.2,14.7-19.6
			c4.7-2.5,8.8-2.7,11.5-1l0,0L468.9,146.3z"/>
	</g>
	<g id="twit">
		<path class="st2" d="M349.5,69.3l-7.4-4.6l-2.8,5.7l4,4.4c0,0,0.2,0.9,2.2-0.7C347,72.7,348.3,71.1,349.5,69.3z"/>
		<path class="st7" d="M349.5,69.3l-7.4-4.6l-2.8,5.7l4,4.4c0,0,0.2,0.9,2.2-0.7C347,72.7,348.3,71.1,349.5,69.3z"/>
		<path class="st2" d="M343.9,79.4c0,9-2.6,20-7.4,30.1c-5.5,11.6-13.8,22.2-24.4,27.8c-6.1,3.2-11.6,3.9-16.2,2.5l-7.4-4.6
			c4.8-1.8,9.7-5.8,13.9-11.2l-4.5-2.8c-1.6-1.1-2.6-2.7-3-4.6c1.1-0.3,2.1-0.8,3.1-1.5l-3-1.9c-2.3-1.4-3.5-4.6-3.3-8.8
			c1.6,0.3,3.3,0,4.8-0.8c-0.5-0.2-0.9-0.4-1.3-0.7c-3.5-2.5-4.1-9.3-1.4-16.3l7.4,4.6c4.1,1.1,9,0.7,14.2-1.7
			c-1.3-7.9,4.1-19.1,11-22.8c3.1-1.6,5.8-1.4,7.7,0.3c2.6-2.1,4.9-4.4,6.9-7l7.4,4.6c-0.9,3.7-2.6,7.2-5,10.3
			c2.3-1.6,4.4-3.4,6.2-5.5C347.9,72.9,346,76.3,343.9,79.4z"/>
		<path class="st2" d="M343.9,79.4c0,9-2.6,20-7.4,30.1c-5.5,11.6-13.8,22.2-24.4,27.8c-6.1,3.2-11.6,3.9-16.2,2.5
			c5.6-2.2,11.4-7.2,16-14.3c-4.7,2.4-8.5,0.5-9.7-4.4c1.8-0.6,3.5-1.5,4.8-2.8c-5.1,1.4-8.5-2.8-8.1-9.3c1.6,0.3,3.3,0,4.8-0.8
			c-0.4-0.1-0.7-0.3-1.1-0.5c-3.7-2.3-4.4-9.3-1.6-16.4c0.8,3.7,7.7,6.6,13.7,6.5c5.8-0.1,7.8-3.4,7.9-3.7l0,0
			c-1.3-7.9,4.1-19.1,11-22.8c3.1-1.6,5.8-1.4,7.7,0.2c2.6-2,4.9-4.4,6.9-7c-0.9,3.7-2.6,7.2-5,10.3c2.3-1.6,4.4-3.4,6.2-5.5
			C347.9,72.9,346,76.3,343.9,79.4z"/>
		<path class="st6" d="M348.2,64.5L348.2,64.5c-2,2.6-4.3,4.9-6.9,7c-0.5-0.4-1-0.8-1.6-1l-5.8-3.5c2.6-2.1,4.9-4.4,6.9-7
			L348.2,64.5z"/>
		<path class="st7" d="M307.1,118.3c-1.4,1.3-3,2.2-4.8,2.8l-7.4-4.6c1.1-0.3,2.1-0.8,3.1-1.5l4.2,2.6l0.1,0.1l0.2,0.1
			C303.8,118.7,305.5,118.8,307.1,118.3z"/>
		<path class="st6" d="M322.6,94.1L322.6,94.1L322.6,94.1c-0.2,0.4-2.3,3.5-7.9,3.6c-6,0.1-12.9-2.8-13.7-6.5l0,0
			c1.3,0.3,2.6,0.5,3.9,0.6c3.6,0.1,7.1-0.7,10.3-2.3L322.6,94.1z"/>
		<path class="st11" d="M301,91.2L301,91.2l-7.4-4.6c-2.7,7-2.1,13.8,1.4,16.3l0.5,0.3l0.7,0.4l6.5,4C299,105.3,298.3,98.4,301,91.2
			z"/>
		<path class="st7" d="M303.7,108.2c-1.5,0.8-3.2,1.1-4.8,0.8l-7.4-4.6c1.6,0.3,3.2,0,4.7-0.8l6.5,4
			C303,107.9,303.4,108,303.7,108.2z"/>
		<path class="st7" d="M311.9,125.6c-4.6,7-10.4,12.1-16,14.3l-7.4-4.6c4.8-1.8,9.7-5.8,13.9-11.2l2.9,1.8
			C307,126.9,309.3,126.9,311.9,125.6z"/>
		<path class="st11" d="M339.7,70.6c-1.7-0.7-3.8-0.5-6.1,0.7c-6.9,3.7-12.3,14.8-11,22.8l-7.4-4.6c-1.3-7.9,4.1-19.1,11-22.8
			c3.1-1.6,5.8-1.4,7.7,0.3L339.7,70.6z"/>
		<path class="st11" d="M302.1,117.7l-4.2-2.6l-3-1.9c-2.3-1.4-3.5-4.6-3.3-8.8l7.4,4.6C298.7,113.1,299.9,116.2,302.1,117.7z"/>
		<path class="st11" d="M305,125.6l-2.7-1.6l-4.5-2.8c-1.6-1.1-2.6-2.7-3-4.6l7.4,4.6C302.5,123,303.5,124.6,305,125.6z"/>
	</g>
</g>
<g id="freepik--Target--inject-8">
	<g id="freepik--target--inject-8">
		<path class="st2" d="M442.4,255.5l1.1-1.8l-5.6-3.7c-4.8-3.4-11.7-3.2-19.4,1.2c-14.4,8.4-26,28.6-26,45.3c0,7.9,2.7,13.5,7,16.4
			l0,0l5.5,3.6l0.9-1.5c3.8,0.3,8.1-0.9,12.7-3.5c14.4-8.4,26-28.6,26-45.3C444.7,262.6,444,258.9,442.4,255.5z"/>
		<path class="st11" d="M442.4,255.5l1.1-1.8l-5.6-3.7c-4.8-3.4-11.7-3.2-19.4,1.2c-14.4,8.4-26,28.6-26,45.3c0,7.9,2.7,13.5,7,16.4
			l0,0l5.5,3.6l0.9-1.5c3.8,0.3,8.1-0.9,12.7-3.5c14.4-8.4,26-28.6,26-45.3C444.7,262.6,444,258.9,442.4,255.5z"/>
		<path class="st2" d="M450.3,270c0,16.6-11.6,36.9-26,45.3s-26.1,1.6-26.1-15s11.6-36.9,26-45.3S450.3,253.4,450.3,270z"/>
		<path class="st4" d="M446,272.5c0,13.9-9.6,30.8-21.6,37.7s-21.7,1.4-21.8-12.5s9.6-30.8,21.6-37.7S445.9,258.7,446,272.5z"/>
		<path class="st2" d="M441.6,275c0,11.1-7.7,24.6-17.3,30.2s-17.4,1.1-17.4-10s7.7-24.6,17.3-30.2S441.6,264,441.6,275z"/>
		<path class="st4" d="M437.3,277.6c0,8.3-5.8,18.5-13,22.6s-13,0.8-13.1-7.5s5.8-18.5,13-22.6S437.3,269.3,437.3,277.6z"/>
		<path class="st2" d="M424.2,275.1c-4.8,2.8-8.7,9.5-8.6,15.1s3.9,7.8,8.7,5s8.7-9.5,8.6-15.1S429,272.3,424.2,275.1z"/>
		<path class="st4" d="M424.3,280.1c-2.6,1.7-4.2,4.5-4.3,7.5c0,2.8,2,3.9,4.4,2.5c2.6-1.7,4.2-4.5,4.3-7.5
			C428.6,279.9,426.7,278.7,424.3,280.1z"/>
		<polygon class="st2" points="468,307.5 462.4,305.2 459,305.1 459,305.7 464.3,308.7 468,308.1 		"/>
		<polygon class="st2" points="458.3,305 461.9,305.1 467.7,307.5 463.8,308.1 		"/>
		<polygon class="st11" points="464,308.8 464,308.1 468,307.5 468,308.2 		"/>
		<polygon class="st6" points="464,308.3 458,304.8 458,305.5 464,309 		"/>
		<polygon class="st8" points="434,287.6 425,285.1 425,286.4 429,291.7 431.1,289.7 431.1,289.7 434,288.8 		"/>
		<polygon class="st10" points="424.7,285.1 428.6,290.5 430.8,288.4 430.8,288.4 433.6,287.6 		"/>
		<polygon class="st9" points="429,290.4 429,291.6 431,289.7 431,288.5 		"/>
		<polygon class="st9" points="431,288.4 434,287.5 434,288.8 431,289.7 		"/>
		<path class="st10" d="M431.2,288.4c-0.1-0.1-0.3-0.1-0.4,0c-0.3,0.2-0.6,0.6-0.6,1c0,0.2,0.1,0.3,0.2,0.4l0,0l36.3,21l0.8-1.5
			L431.2,288.4z"/>
		<path class="st8" d="M430.3,289c-0.1,0.2-0.1,0.3-0.1,0.5c0,0.2,0.1,0.3,0.2,0.4l0,0l36.3,21l0.4-0.7L430.3,289z"/>
		<path class="st9" d="M467,309.4c-0.3,0.2-0.6,0.6-0.6,1c0,0.4,0.3,0.5,0.6,0.4c0.3-0.2,0.6-0.6,0.6-1
			C467.6,309.4,467.3,309.2,467,309.4z"/>
		<polygon class="st2" points="463,308.9 463,308.9 463,308.4 458,305.5 458,306.1 458.3,307.9 462.1,311 463,309 		"/>
		<polygon class="st11" points="459,305.2 458,307.3 458,307.9 459,305.9 		"/>
		<polygon class="st11" points="463,308.4 462,310.6 462,311.2 463,309.1 		"/>
		<polygon class="st6" points="458,307.3 462,310.6 462,311.2 458,308 		"/>
		<polygon class="st2" points="467,261.5 461.4,263.8 458,264 458,263.3 463.3,260.3 467,260.9 		"/>
		<polygon class="st2" points="458.1,264 461.7,263.9 467.5,261.5 463.6,260.9 		"/>
		<polygon class="st11" points="464,260.2 464,260.9 468,261.5 468,260.8 		"/>
		<polygon class="st6" points="463,261 458,263.9 458,263.3 463,260.4 		"/>
		<polygon class="st8" points="433,281.4 424,283.9 424,282.6 428,277.3 430.1,279.3 430.1,279.3 433,280.2 		"/>
		<polygon class="st10" points="424.5,283.9 428.4,278.5 430.5,280.6 430.5,280.6 433.4,281.4 		"/>
		<polygon class="st9" points="428,278.6 428,277.4 430,279.3 430,280.5 		"/>
		<polygon class="st9" points="430,280.6 433,281.5 433,280.2 430,279.3 		"/>
		<path class="st10" d="M430.9,280.6c-0.1,0.1-0.3,0.1-0.4,0c-0.3-0.2-0.6-0.6-0.6-1c0-0.2,0.1-0.3,0.2-0.4l0,0l36.3-21l0.8,1.5
			L430.9,280.6z"/>
		<path class="st8" d="M430,280c-0.1-0.2-0.1-0.3-0.1-0.5c0-0.2,0.1-0.3,0.2-0.4l0,0l36.3-21l0.4,0.7L430,280z"/>
		<path class="st9" d="M466.8,259.6c-0.3-0.2-0.6-0.6-0.6-1c0-0.4,0.3-0.5,0.6-0.4c0.3,0.2,0.6,0.6,0.6,1
			C467.4,259.6,467.1,259.8,466.8,259.6z"/>
		<polygon class="st2" points="463,260.1 463,260.1 463,260.6 458,263.5 458,262.9 458.3,261.1 462.1,258 463,260.1 		"/>
		<polygon class="st11" points="458,263.8 457,261.7 457,261.1 458,263.1 		"/>
		<polygon class="st11" points="463,260.6 462,258.4 462,257.8 463,259.9 		"/>
		<polygon class="st6" points="458,261.7 462,258.4 462,257.8 458,261 		"/>
	</g>
</g>
<g id="box">
	<g id="freepik--speech-bubble--inject-8_00000071540352993707660340000004769685051665313983_">
		<g id="freepik--speech-bubble--inject-8">
			<path class="st2" d="M363.9,279.7l-4.5-11.4l3.6-10.4v-6.4l-11,6.3v6.3l4.7,11.2c0.1,0.1,0.2,0.2,0.3,0.3l0,0L363.9,279.7z"/>
			<path class="st11" d="M363.9,279.7l-4.5-11.4l3.6-10.4v-6.4l-11,6.3v6.3l4.7,11.2c0.1,0.1,0.2,0.2,0.3,0.3l0,0L363.9,279.7z"/>
			<path class="st2" d="M389,232.4c-0.1-2.2-1.3-4.3-3.2-5.5l-1.2-0.8c-2-1-4.3-1-6.3,0L335.2,251c-1.9,1.2-3.1,3.3-3.2,5.5v14.6
				c0.1,2.2,1.3,4.3,3.2,5.5l1.2,0.7c2,1,4.3,1,6.3,0l16-9.2l4.5,10.8c0.2,0.3,0.6,0.4,0.9,0.3c0.1-0.1,0.2-0.2,0.3-0.4l4.8-16.8
				l16.6-9.6c1.9-1.2,3.1-3.3,3.2-5.5V232.4z"/>
			<path class="st11" d="M332,271.4c0.1,2.4,1.4,4.5,3.4,5.8l1.3,0.8c1.9,1,4.2,1.1,6.1,0.3c-1.6,0.6-2.8-0.3-2.8-2.2v-15.4
				c0-1.2,0.4-2.3,1-3.3l-8-4.7c-0.6,1-0.9,2.1-1,3.3V271.4z"/>
			<path class="st13" d="M389.3,231.4c-0.4-1.4-1.6-1.8-3.1-0.9l-43.3,25c-0.9,0.6-1.7,1.4-2.2,2.4l-7.6-4.4c0.5-1,1.3-1.8,2.2-2.4
				l43.3-25c2-1,4.4-1,6.4,0l1.2,0.8C387.8,227.8,388.9,229.5,389.3,231.4z"/>
		</g>
		<path class="st4" d="M345.7,270.4c-0.4,0.1-0.8,0.1-1.2,0c-0.1-0.1-0.2-0.3-0.2-0.5c0-0.4,0.1-0.7,0.2-1.1
			c0.1-0.3,0.3-0.6,0.5-0.8c0.1-0.1,0.3-0.1,0.4-0.1h0.3c0.3,0,0.5,0,0.8-0.1c0.5-0.2,1-0.5,1.4-1c0.3-0.3,0.4-0.7,0.4-1.1
			c0-0.2-0.1-0.5-0.2-0.6c-0.1-0.1-0.3-0.2-0.5-0.2c-0.3,0-0.6,0-0.8,0c-0.6,0.1-1.3-0.1-1.8-0.5c-0.4-0.5-0.6-1.2-0.6-1.8
			c0-1,0.4-2,1-2.9c0.7-0.9,1.5-1.7,2.5-2.3c0.4-0.2,0.8-0.4,1.2-0.5c0.3-0.1,0.6-0.2,1-0.1c0.2,0,0.3,0.2,0.3,0.4
			c0,0.3-0.1,0.7-0.2,1c-0.1,0.3-0.2,0.6-0.5,0.8c-0.2,0.1-0.3,0.1-0.5,0.1c-0.4,0.1-0.7,0.2-1.1,0.4c-0.4,0.2-0.7,0.5-0.9,0.8
			c-0.2,0.2-0.2,0.5-0.3,0.8c0,0.4,0.1,0.7,0.3,0.8c0.3,0.1,0.6,0.1,1,0.1h0.4c0.6-0.1,1.2,0.1,1.6,0.5c0.4,0.5,0.6,1.1,0.5,1.7
			c0,0.7-0.1,1.3-0.4,2c-0.3,0.7-0.7,1.4-1.2,2c-0.6,0.7-1.3,1.2-2,1.6C346.8,270,346.2,270.3,345.7,270.4z"/>
		<path class="st4" d="M352,266.5v-10.8c0.1-0.4,0.5-0.7,1.1-1.1l0.7-0.4c0.6-0.4,1.2,0,1.2,0v4.2l3-1.7v-4.1c0,0,0.1-0.7,0.7-1.1
			l0.7-0.4c0.6-0.4,1-0.4,1.6,0v10.8c-0.6,0.4-0.9,0.7-1.6,1.1l-0.7,0.4c-0.6,0.4-0.7,0-0.7,0v-4.4l-3,1.7v4.3c0,0-0.5,0.7-1.2,1.1
			l-0.7,0.4C352.5,266.9,352.1,266.9,352,266.5z"/>
		<path class="st4" d="M361.6,261.4c0-0.1,0-0.2,0-0.3l2.6-12.2c0.1-0.4,0.4-0.7,1-1.1l1.1-0.6c0.6-0.4,1-0.4,1-0.1l2.6,9.2
			c0,0.1,0,0.2,0,0.3c0,0.2-0.2,0.5-0.7,0.8l-0.9,0.5c-0.5,0.3-0.8,0.4-0.9,0.2l-0.4-1.8l-2.6,1.5L364,260c0,0.3-0.3,0.5-0.8,0.8
			l-0.9,0.5C361.9,261.6,361.6,261.6,361.6,261.4z M366.5,254.3l-0.8-3.1c-0.1-0.4-0.1-0.7-0.2-1.2l-0.1,0.1
			c-0.1,0.5-0.1,0.9-0.2,1.4l-0.8,4L366.5,254.3z"/>
		<path class="st4" d="M371,255.8v-10.7c0-0.2,0-0.4,0.2-0.6c0.1-0.2,0.3-0.3,0.5-0.4l2.6-1.5c0.7-0.5,1.5-0.7,2.3-0.6
			c0.6,0.1,0.9,0.8,0.9,1.9c0,1.3-0.6,2.6-1.5,3.5v0.3c0,0,0.6,0.1,0.7,0.3c0.2,0.2,0.4,0.5,0.5,0.8l1,2.7l0,0.2
			c0,0.3-0.4,0.6-1,1.1l-0.6,0.4c-0.6,0.3-0.9,0.4-1,0.1l-0.9-2.7c-0.1-0.2-0.2-0.3-0.4-0.3c-0.2,0-0.4,0.1-0.6,0.2l0.3,0.2v3.8
			c0,0-1,0.7-1.7,1.1l-0.6,0.3C371.1,256.1,371,255.8,371,255.8z M373.9,247.5c0.3-0.2,0.5-0.4,0.6-0.7c0.2-0.4,0.3-0.8,0.3-1.2
			c0-0.5-0.1-0.8-0.3-0.9c-0.2-0.1-0.5-0.1-0.7,0.1l-0.9,0.5v2.8L373.9,247.5z"/>
		<path class="st4" d="M379.1,251c-0.1,0-0.1-0.2-0.1-0.4v-10.4c0-0.2,0-0.4,0.1-0.6c0.1-0.2,0.3-0.3,0.5-0.4l4.9-2.8
			c0.2-0.1,0.3-0.1,0.4,0c0.1,0.2,0.1,0.4,0.1,0.6v0.5c0,0,0.5,0.5,0.4,0.7c-0.1,0.2-0.2,0.3-0.4,0.4l-3.1,1.7v2.5l2.5-1.5
			c0.2-0.1,0.3-0.1,0.4,0c0.1,0.2,0.1,0.4,0.1,0.5v0.5c0,0.2,0,0.5-0.1,0.7c-0.1,0.2-0.2,0.3-0.4,0.4l-2.5,1.5v2.8l3.1-1.7
			c0.2-0.1,0.3-0.1,0.4,0c0.1,0.2-0.4,0.6-0.4,0.6v0.6c0,0.2,0,0.5-0.1,0.7c-0.1,0.2-0.2,0.3-0.4,0.4l-4.9,2.8
			C379.5,251,379.3,251,379.1,251z"/>
	</g>
	<g id="freepik--speech-bubble--inject-8_00000154409457795498926700000012434966377875220613_">
		<g id="freepik--speech-bubble--inject-8_00000181804905898843456030000007632192366601368469_">
			<path class="st2" d="M318.9,250l-4.5-11.5l3.6-10.4v-6.4l-11,6.4v6.3l4.7,11.2c0.1,0.1,0.2,0.2,0.3,0.3l0,0L318.9,250z"/>
			<path class="st11" d="M318.9,250l-4.5-11.5l3.6-10.4v-6.4l-11,6.4v6.3l4.7,11.2c0.1,0.1,0.2,0.2,0.3,0.3l0,0L318.9,250z"/>
			<path class="st2" d="M348,200.6c-0.1-2.2-1.3-4.3-3.2-5.5l-1.2-0.8c-2-1-4.4-1-6.4,0l-50,28.9c-1.9,1.2-3.1,3.3-3.2,5.5v14.6
				c0.1,2.2,1.3,4.3,3.2,5.5l1.2,0.7c2,1,4.4,1,6.4,0l19.4-11.2l4.6,10.9c0.2,0.3,0.6,0.4,0.9,0.2c0.1-0.1,0.2-0.2,0.3-0.4l4.8-16.9
				l20-11.6c1.9-1.2,3.1-3.3,3.2-5.5L348,200.6z"/>
			<path class="st11" d="M284,243.6c0.1,2.4,1.4,4.5,3.4,5.8l1.3,0.8c1.9,1,4.2,1.1,6.2,0.3c-1.6,0.6-2.8-0.3-2.8-2.2v-15.5
				c0-1.2,0.4-2.3,1-3.3l-8-4.7c-0.6,1-0.9,2.1-1,3.3L284,243.6z"/>
			<path class="st13" d="M347.8,199.7c-0.4-1.4-1.6-1.8-3.1-0.9l-49.9,28.8c-0.9,0.6-1.7,1.4-2.2,2.4l-7.6-4.4
				c0.5-1,1.3-1.8,2.2-2.4l49.9-28.8c2-1,4.4-1,6.4,0l1.2,0.8C346.4,196.2,347.5,197.8,347.8,199.7z"/>
		</g>
		<path class="st4" d="M297,241.9v-9.6c0-0.2,0-0.4,0.1-0.5c0.1-0.2,0.2-0.3,0.4-0.4l4-2.3c0.1-0.1,0.3-0.1,0.3,0
			c0.1,0.2,0.1,0.3,0.1,0.5v0.4c0,0.2,0,0.5-0.1,0.7c-0.1,0.2-0.2,0.3-0.4,0.4l-2.5,1.5v2.1l2.4-1.3c0.1-0.1,0.3-0.1,0.3,0
			c0.1,0.2,0.1,0.3,0.2,0.5v0.5c-0.1,0.2-0.2,0.4-0.2,0.6c-0.1,0.2-0.2,0.3-0.3,0.4l-2.4,1.3v4c0,0-0.1,0.6-0.7,1l-0.6,0.4
			C297.1,242.2,297,241.9,297,241.9z"/>
		<path class="st4" d="M303,233.5c0-3.6,1.3-6.2,4-7.7c1.3-0.7,2.3-0.9,3-0.4s1,1.7,1,3.5c0.1,1.6-0.3,3.2-1,4.7
			c-0.7,1.3-1.7,2.3-3,3C304.3,238.2,303,237.1,303,233.5z M307.9,234c0.3-0.4,0.4-0.9,0.5-1.3c0.1-0.7,0.2-1.5,0.2-2.2
			c0-0.7,0-1.3-0.2-2c-0.1-0.4-0.3-0.7-0.5-0.8c-0.3-0.1-0.6,0-0.9,0.2c-0.4,0.2-0.7,0.5-0.9,0.8c-0.3,0.4-0.4,0.9-0.5,1.4
			c-0.1,0.7-0.2,1.4-0.2,2.2c0,0.7,0,1.3,0.2,2c0.1,0.4,0.3,0.7,0.5,0.8c0.3,0.1,0.6,0,0.9-0.2C307.3,234.6,307.6,234.3,307.9,234
			L307.9,234z"/>
		<path class="st4" d="M313.1,233.2c-0.1,0-0.1-0.2-0.1-0.4v-9.5c0,0-0.4-0.7,0.2-1l0.6-0.4c0.6-0.3,1.2,0,1.2,0v8.2l2-1.3
			c0.2-0.1,0.3-0.1,0.4,0c0.1,0.2,0.7,0.5,0.7,0.5v0.5c0,0.2,0,0.4-0.1,0.6c-0.1,0.2-0.2,0.3-0.3,0.4l-4,2.3
			C313.4,233.2,313.2,233.2,313.1,233.2z"/>
		<path class="st4" d="M319.1,229.6c-0.1,0-0.1-0.2-0.1-0.4v-9.5c0,0-0.2-0.6,0.4-1l0.6-0.4c0.6-0.3,1,0,1,0v8.2l2.2-1.3
			c0.2-0.1,0.3-0.1,0.4,0c0.1,0.2,0.5,0.5,0.5,0.5v0.5c0,0.2,0,0.4-0.1,0.6c-0.1,0.2-0.2,0.3-0.3,0.4l-4,2.3
			C319.4,229.6,319.2,229.6,319.1,229.6z"/>
		<path class="st4" d="M324.1,221.3c0-3.6,1.3-6.2,4-7.7c1.3-0.8,2.3-0.9,3-0.4s1,1.7,1,3.5c0.1,1.6-0.3,3.2-1,4.7
			c-0.7,1.3-1.7,2.3-3,3C325.5,226,324.1,224.9,324.1,221.3z M329,222c0.3-0.4,0.4-0.9,0.5-1.3c0.1-0.7,0.2-1.4,0.2-2.2
			c0-0.7,0-1.3-0.2-2c-0.1-0.4-0.3-0.7-0.5-0.8c-0.3-0.1-0.6,0-0.9,0.2c-0.4,0.2-0.7,0.5-0.9,0.8c-0.3,0.4-0.4,0.9-0.5,1.4
			c-0.1,0.7-0.2,1.4-0.2,2.2c0,0.7,0,1.3,0.2,2c0.1,0.4,0.3,0.7,0.5,0.8c0.3,0.1,0.6,0,0.9-0.2C328.5,222.6,328.8,222.3,329,222
			L329,222z"/>
		<path class="st4" d="M334.7,220.5c-0.1,0-0.2,0-0.2-0.1c0,0,0,0,0,0l-2-8.6c0,0,0-0.1,0-0.1c0,0,0-0.1,0-0.1
			c0-0.3,0.3-0.6,0.9-0.9l0.4-0.3c0.6-0.4,0.9-0.4,1-0.1l0.7,5.2l0.1,1l0.1,1.1l0.3-2c0-0.2,0.1-0.3,0.1-0.5l0.9-6.3
			c0-0.1,0.1-0.3,0.2-0.4c0.2-0.1,0.3-0.3,0.5-0.4l0.8-0.4c0.2-0.1,0.3-0.2,0.5-0.2c0.1,0,0.2,0,0.2,0.1l0.9,5.2l0.3,2.1l0.2-1.8
			l0.1-0.8l0.7-6c0-0.3,0.4-0.7,1-1l0.4-0.2c0.6-0.3,0.9-0.4,0.9-0.1c0,0.1,0,0.2,0,0.2l-2,10.9c0,0.2-0.3,0.5-0.7,0.7l-1,0.6
			c-0.4,0.2-0.6,0.3-0.7,0.1l-1-4.8l-0.2-1.5L338,213l-1,6c0,0.2-0.3,0.5-0.7,0.7l-1,0.6C335.1,220.4,334.9,220.4,334.7,220.5z"/>
	</g>
</g>
<g id="freepik--Envelopes--inject-8">
	<g id="freepik--Mails--inject-8">
		<g id="freepik--Letter--inject-8">
			<path class="st2" d="M229.6,173.2l42-24.2c0.3-0.2,0.7-0.2,1,0c0.2,0.2,2.6,1.4,2.9,1.6c0.3,0.3,0.5,0.7,0.4,1.1v37.8
				c0,1.1-0.6,2.1-1.5,2.8l-7.4,4.3l-38.6-22.2C228.9,173.9,229.2,173.5,229.6,173.2z"/>
			<path class="st13" d="M229.6,173.2l42-24.2c0.3-0.2,0.7-0.2,1,0c0.2,0.2,2.6,1.4,2.9,1.6c0.3,0.3,0.5,0.7,0.4,1.1v37.8
				c0,1.1-0.6,2.1-1.5,2.8l-7.4,4.3l-38.6-22.2C228.9,173.9,229.2,173.5,229.6,173.2z"/>
			<path class="st2" d="M231.4,216.6c-0.3-0.2-2.7-1.5-2.9-1.7c-0.3-0.3-0.5-0.7-0.5-1.1V176c0-0.6,0.2-1.2,0.5-1.7l38.6,22.2
				l-34.6,20C232.1,216.8,231.7,216.8,231.4,216.6z"/>
			<path class="st11" d="M231.4,216.6c-0.3-0.2-2.7-1.5-2.9-1.7c-0.3-0.3-0.5-0.7-0.5-1.1V176c0-0.6,0.2-1.2,0.5-1.7l38.6,22.2
				l-34.6,20C232.1,216.8,231.7,216.8,231.4,216.6z"/>
			<path class="st2" d="M232.5,216.6l42.1-24.3c0.9-0.6,1.4-1.7,1.5-2.8v-37.9c0-1.1-0.7-1.6-1.5-1.1l-42.1,24.3
				c-0.9,0.6-1.4,1.7-1.5,2.8v37.9C231,216.6,231.7,217.1,232.5,216.6z"/>
			<path class="st11" d="M231,215.5v-0.8l17.4-28.8l-17.2-9.5l0.1-0.3l21.4,8.9c0.5,0.2,1-0.2,1.5-0.9l21.4-33.6
				c0,0,0.1,0.1,0.1,0.2L258.6,180l17.4,8.7v0.7c0,0.6-0.2,1.2-0.4,1.7l-17.8-9.7l-2.5,4.3c-1,1.7-2.4,2.5-3.4,1.9l-2.5-1.4
				l-17.8,30.3C231.1,216.4,231,216,231,215.5z"/>
		</g>
		<g id="freepik--letter--inject-8">
			<path class="st2" d="M239.6,179.3l42-24.2c0.3-0.2,0.7-0.2,1.1,0c0.2,0.2,2.6,1.5,2.9,1.6c0.3,0.3,0.5,0.7,0.4,1.1v37.8
				c0,1.1-0.6,2.1-1.5,2.8l-7.4,4.2l-38.5-22.2C238.9,180,239.2,179.6,239.6,179.3z"/>
			<path class="st13" d="M239.6,179.3l42-24.2c0.3-0.2,0.7-0.2,1.1,0c0.2,0.2,2.6,1.5,2.9,1.6c0.3,0.3,0.5,0.7,0.4,1.1v37.8
				c0,1.1-0.6,2.1-1.5,2.8l-7.4,4.2l-38.5-22.2C238.9,180,239.2,179.6,239.6,179.3z"/>
			<path class="st2" d="M241.4,222.7c-0.3-0.2-2.7-1.5-2.9-1.7c-0.3-0.3-0.5-0.7-0.5-1.1v-37.8c0-0.6,0.2-1.2,0.5-1.7l38.5,22.2
				l-34.6,20C242.1,222.9,241.7,222.9,241.4,222.7z"/>
			<path class="st11" d="M241.4,222.7c-0.3-0.2-2.7-1.5-2.9-1.7c-0.3-0.3-0.5-0.7-0.5-1.1v-37.8c0-0.6,0.2-1.2,0.5-1.7l38.5,22.2
				l-34.6,20C242.1,222.9,241.7,222.9,241.4,222.7z"/>
			<path class="st2" d="M242.5,222.8l42.1-24.3c0.9-0.6,1.4-1.7,1.5-2.8v-37.9c0-1.1-0.7-1.6-1.5-1.1L242.5,181
				c-0.9,0.6-1.4,1.7-1.5,2.8v37.9C241,222.7,241.7,223.2,242.5,222.8z"/>
			<path class="st11" d="M241,221.7v-0.7l17.4-28.8l-17.2-9.5c0.1-0.2,0.1-0.1,0.1-0.3l21.4,8.9c0.5,0.2,1-0.2,1.5-0.9l21.4-33.6
				c0.1,0,0.1,0.1,0.1,0.1l-17.1,29.3l17.4,8.7v0.8c0,0.6-0.2,1.2-0.4,1.7l-17.8-9.7l-2.5,4.3c-1,1.7-2.4,2.5-3.4,2l-2.5-1.4
				l-17.8,30.2C241.1,222.5,241,222.1,241,221.7z"/>
		</g>
		<g id="freepik--letter--inject-8_00000118376313829591697300000013224757860856200832_">
			<path class="st2" d="M250.6,185.5l42-24.2c0.3-0.2,0.7-0.2,1.1,0c0.2,0.2,2.6,1.4,2.9,1.6c0.3,0.3,0.5,0.7,0.4,1.1v37.8
				c0,1.1-0.6,2.1-1.5,2.8l-7.4,4.3l-38.6-22.2C249.9,186.1,250.2,185.8,250.6,185.5z"/>
			<path class="st13" d="M250.6,185.5l42-24.2c0.3-0.2,0.7-0.2,1.1,0c0.2,0.2,2.6,1.4,2.9,1.6c0.3,0.3,0.5,0.7,0.4,1.1v37.8
				c0,1.1-0.6,2.1-1.5,2.8l-7.4,4.3l-38.6-22.2C249.9,186.1,250.2,185.8,250.6,185.5z"/>
			<path class="st2" d="M252.4,228.9c-0.3-0.2-2.7-1.5-2.9-1.7c-0.3-0.3-0.5-0.7-0.5-1.1v-37.8c0-0.6,0.2-1.2,0.5-1.7l38.6,22.2
				l-34.6,20C253.1,229,252.7,229.1,252.4,228.9z"/>
			<path class="st11" d="M252.4,228.9c-0.3-0.2-2.7-1.5-2.9-1.7c-0.3-0.3-0.5-0.7-0.5-1.1v-37.8c0-0.6,0.2-1.2,0.5-1.7l38.6,22.2
				l-34.6,20C253.1,229,252.7,229.1,252.4,228.9z"/>
			<path class="st2" d="M253.5,228.9l42.1-24.3c0.9-0.6,1.4-1.7,1.5-2.8v-37.9c0-1.1-0.6-1.6-1.5-1.1l-42.1,24.3
				c-0.9,0.6-1.4,1.7-1.5,2.8v37.9C252,228.9,252.7,229.4,253.5,228.9z"/>
			<path class="st11" d="M252,227.8v-0.7l17.4-28.9l-17.2-9.5l0.1-0.3l21.4,8.9c0.5,0.2,1-0.2,1.5-0.9l21.4-33.6
				c0,0,0.1,0.1,0.1,0.1l-17.1,29.3l17.4,8.7v0.7c0,0.6-0.2,1.2-0.4,1.7l-17.8-9.7l-2.5,4.3c-1,1.7-2.4,2.5-3.4,1.9l-2.5-1.4
				L252.5,229C252.1,228.7,252,228.2,252,227.8z"/>
		</g>
	</g>
</g>
<g id="freepik--Device--inject-8">
	<g id="freepik--Mobile--inject-8">
		<g id="freepik--mobile--inject-8">
			<path class="st2" d="M433.3,372.8l-119.7,69.1c-3.8,2.2-8.6,2.3-12.5,0.2L60.2,303c-3.8-2.2-6.9-7.1-6.9-11s3.1-8.8,6.9-11
				l119.2-68.7c4.3-2.2,9.4-2.2,13.7,0L433.3,351c3.8,2.2,6.9,7.1,6.9,11S437.1,370.6,433.3,372.8z"/>
			<path class="st14" d="M179.2,212.3L60,281.1c-3.8,2.2-6.9,7.1-6.9,11s3.1,8.8,6.9,11l241,139.1c1.9,1,3.9,1.5,6,1.5V278.1
				l-114-65.8C188.7,210.1,183.6,210.1,179.2,212.3z"/>
			<path class="st15" d="M313.5,441.9l119.7-69.1c3.8-2.2,6.9-7.1,6.9-10.9s-3.1-8.8-6.9-11L307,278.1v165.6
				C309.3,443.7,311.5,443.1,313.5,441.9z"/>
			<path class="st2" d="M310.8,429.6c-3.8,1.9-8.3,1.9-12.1,0L60.2,291.9c-5.1-3-5.1-7.8,0-10.8l119.3-68.9c4.3-2.2,9.4-2.2,13.7,0
				L433.3,351c3.8,2.2,3.8,5.8,0,7.9L310.8,429.6z"/>
			<path class="st7" d="M310.8,429.6c-3.8,1.9-8.3,1.9-12.1,0L60.2,291.9c-5.1-3-5.1-7.8,0-10.8l119.3-68.9c4.3-2.2,9.4-2.2,13.7,0
				L433.3,351c3.8,2.2,3.8,5.8,0,7.9L310.8,429.6z"/>
			<path class="st8" d="M299.2,415.8c-4.1,2.1-9,2.1-13.1,0L80.9,297.3c-3.6-2.1-3.6-5.5,0-7.5L193.1,225c4.1-2.1,9-2.1,13.1,0
				l205.2,118.5c3.6,2.1,3.6,5.5,0,7.5L299.2,415.8z"/>
			<path class="st9" d="M199,223.4c-2.1,0-4.2,0.6-6.1,1.6L80.7,289.7c-3.6,2.1-3.6,5.5,0,7.5l22.2,12.8l96.1-61.4L199,223.4z"/>
			<path class="st10" d="M206.2,229.9c-4.1-2.1-9-2.1-13.1,0L81,294.6c-0.6,0.4-1.2,0.8-1.7,1.4c0.5,0.5,1,0.9,1.6,1.3l205.2,118.5
				c4.1,2.1,9,2.1,13.1,0L411.4,351c0.6-0.4,1.2-0.8,1.7-1.4c-0.5-0.5-1-0.9-1.6-1.3L206.2,229.9z"/>
			<path class="st8" d="M121.9,259.4l19.9-11.4c1.2-0.7,1.2-1.8,0.1-2.4c-1.3-0.6-2.9-0.6-4.2,0.1l-19.9,11.5
				c-1.2,0.7-1.2,1.8-0.1,2.4C119.1,260.2,120.6,260.1,121.9,259.4z"/>
			<path class="st8" d="M156.1,239.8c0.6-0.2,1-0.9,0.8-1.6c-0.1-0.4-0.4-0.6-0.8-0.8c-1.3-0.6-2.7-0.6-4,0c-0.6,0.2-1,0.9-0.8,1.6
				c0.1,0.4,0.4,0.6,0.8,0.8C153.3,240.4,154.8,240.4,156.1,239.8z"/>
			<path class="st8" d="M164.1,235.1c0.6-0.2,1-0.9,0.8-1.6c-0.1-0.4-0.4-0.6-0.8-0.8c-1.3-0.6-2.7-0.6-4,0c-0.6,0.2-1,0.9-0.8,1.6
				c0.1,0.4,0.4,0.6,0.8,0.8C161.4,235.7,162.9,235.7,164.1,235.1z"/>
			<path class="st8" d="M99.6,272.3c0.6-0.2,1-0.9,0.8-1.6c-0.1-0.4-0.4-0.6-0.8-0.8c-1.3-0.6-2.7-0.6-4,0c-0.6,0.2-1,0.9-0.8,1.6
				c0.1,0.4,0.4,0.6,0.8,0.8C96.9,272.9,98.4,272.9,99.6,272.3z"/>
			<path class="st8" d="M107.7,267.7c0.6-0.2,1-0.9,0.8-1.6c-0.1-0.4-0.4-0.6-0.8-0.8c-1.3-0.6-2.7-0.6-4,0c-0.6,0.2-1,0.9-0.8,1.6
				c0.1,0.4,0.4,0.6,0.8,0.8C105,268.3,106.4,268.3,107.7,267.7z"/>
			<path class="st2" d="M135.8,338.8c1.2,0.8,2,2.1,2.1,3.6c0,0.5-0.2,1-0.6,1.3l-1.5,0.9c-0.5,0.2-1.1,0.2-1.6-0.2l-27.9-16.1
				c-1.2-0.8-2-2.1-2.2-3.6c0-0.5,0.2-0.9,0.5-1.2c0.3-0.2,1.3-0.8,1.6-0.9c0.5-0.2,1.1-0.2,1.6,0.2L135.8,338.8z"/>
			<path class="st15" d="M135.8,338.8c1.2,0.8,2,2.1,2.1,3.6c0,0.5-0.2,1-0.6,1.3l-1.5,0.9c-0.5,0.2-1.1,0.2-1.6-0.2l-27.9-16.1
				c-1.2-0.8-2-2.1-2.2-3.6c0-0.5,0.2-0.9,0.5-1.2c0.3-0.2,1.3-0.8,1.6-0.9c0.5-0.2,1.1-0.2,1.6,0.2L135.8,338.8z"/>
			<path class="st2" d="M134.3,339.7l-27.9-16.1c-1.2-0.7-2.2-0.2-2.2,1.1c0.1,1.5,0.9,2.8,2.2,3.6l27.9,16.1
				c1.2,0.7,2.1,0.2,2.1-1.1C136.3,341.8,135.5,340.4,134.3,339.7z"/>
			<path class="st7" d="M134.3,339.7l-27.9-16.1c-1.2-0.7-2.2-0.2-2.2,1.1c0.1,1.5,0.9,2.8,2.2,3.6l27.9,16.1
				c1.2,0.7,2.1,0.2,2.1-1.1C136.3,341.8,135.5,340.4,134.3,339.7z"/>
			<path class="st2" d="M98.4,317.2c1.2,0.8,2,2.1,2.1,3.6c0.1,0.5-0.2,1-0.6,1.2c-0.3,0.1-1.2,0.7-1.5,0.9
				c-0.5,0.2-1.1,0.1-1.6-0.2l-13.2-7.6c-1.2-0.8-2-2.1-2.2-3.6c0-0.5,0.2-0.9,0.5-1.2l1.6-0.9c0.5-0.2,1.1-0.2,1.6,0.2L98.4,317.2z
				"/>
			<path class="st15" d="M98.4,317.2c1.2,0.8,2,2.1,2.1,3.6c0.1,0.5-0.2,1-0.6,1.2c-0.3,0.1-1.2,0.7-1.5,0.9
				c-0.5,0.2-1.1,0.1-1.6-0.2l-13.2-7.6c-1.2-0.8-2-2.1-2.2-3.6c0-0.5,0.2-0.9,0.5-1.2l1.6-0.9c0.5-0.2,1.1-0.2,1.6,0.2L98.4,317.2z
				"/>
			<path class="st2" d="M96.9,318.1l-13.2-7.6c-1.2-0.7-2.2-0.2-2.2,1.1c0.1,1.5,0.9,2.8,2.2,3.6l13.2,7.6c1.2,0.7,2.2,0.2,2.2-1.1
				C98.9,320.2,98.1,318.8,96.9,318.1z"/>
			<path class="st7" d="M96.9,318.1l-13.2-7.6c-1.2-0.7-2.2-0.2-2.2,1.1c0.1,1.5,0.9,2.8,2.2,3.6l13.2,7.6c1.2,0.7,2.2,0.2,2.2-1.1
				C98.9,320.2,98.1,318.8,96.9,318.1z"/>
		</g>
	</g>
	<g id="freepik--Message--inject-8">
		<g id="freepik--message--inject-8">
			<path class="st2" d="M246,362.8v0.8c0.1,1.4,0.8,2.7,2,3.5l43.6,25.2c1.3,0.7,2.8,0.7,4.1,0l72.3-41.7c1.2-0.8,1.9-2.1,2-3.5
				v-0.8c-0.1-1.4-0.8-2.7-2-3.5l-43.6-25.2c-1.3-0.7-2.8-0.7-4.1,0L248,359.3C246.8,360.1,246.1,361.4,246,362.8z"/>
			<path class="st2" d="M246,362.8v0.8c0.1,1.4,0.8,2.7,2,3.5l43.6,25.2c1.3,0.7,2.8,0.7,4.1,0l72.3-41.7c1.2-0.8,1.9-2.1,2-3.5
				v-0.8c-0.1-1.4-0.8-2.7-2-3.5l-43.6-25.2c-1.3-0.7-2.8-0.7-4.1,0L248,359.3C246.8,360.1,246.1,361.4,246,362.8z"/>
			<path class="st16" d="M368,342.8l-43.5-25.1c-1.3-0.6-2.8-0.6-4.1,0L294,333v59.7l0,0c0.7,0,1.4-0.2,2-0.5l72-41.6
				c1.2-0.8,1.9-2.1,2-3.5v-0.8C369.9,344.9,369.2,343.6,368,342.8z"/>
			<path class="st3" d="M368,342.8l-43.5-25.1c-1.3-0.6-2.8-0.6-4.1,0L294,333v59.7l0,0c0.7,0,1.4-0.2,2-0.5l72-41.6
				c1.2-0.8,1.9-2.1,2-3.5v-0.8C369.9,344.9,369.2,343.6,368,342.8z"/>
			<path class="st16" d="M294,332.7l-46,26.6c-1.2,0.8-2,2.1-2,3.5v0.8c0.1,1.4,0.8,2.8,2,3.5l44,25.4c0.6,0.3,1.3,0.5,2,0.5l0,0
				L294,332.7z"/>
			<path class="st11" d="M294,332.7l-46,26.6c-1.2,0.8-2,2.1-2,3.5v0.8c0.1,1.4,0.8,2.8,2,3.5l44,25.4c0.6,0.3,1.3,0.5,2,0.5l0,0
				L294,332.7z"/>
			<path class="st2" d="M284.7,382.7l-36.5-21.1c-0.6-0.2-1-0.9-0.8-1.5c0.1-0.4,0.4-0.7,0.8-0.8l72.1-41.6c1.3-0.7,2.8-0.7,4.1,0
				l43.5,25.1c0.6,0.2,1,0.9,0.8,1.5c-0.1,0.4-0.4,0.7-0.8,0.8l-12,6.9l-4.2,2.4l-55.9,32.3c-1.3,0.7-2.8,0.7-4.1,0l-3.5-2
				L284.7,382.7z"/>
			<path class="st16" d="M284.7,382.7l-36.5-21.1c-0.6-0.2-1-0.9-0.8-1.5c0.1-0.4,0.4-0.7,0.8-0.8l72.1-41.6c1.3-0.7,2.8-0.7,4.1,0
				l43.5,25.1c0.6,0.2,1,0.9,0.8,1.5c-0.1,0.4-0.4,0.7-0.8,0.8l-12,6.9l-4.2,2.4l-55.9,32.3c-1.3,0.7-2.8,0.7-4.1,0l-3.5-2
				L284.7,382.7z"/>
			<path class="st3" d="M317.9,347.7l49.9-4.9l-49.5,2.8l6-27.9c-0.7-0.4-1.4-0.5-2.2-0.5l-9.3,37.8l-65.4,5.4
				c0,0.6,0.3,1.1,0.8,1.3l52.8-3.1l-7.3,28.7l9.3-28.8l0,0l9-0.5c1.1-0.1,2.2-0.5,3-1.2l0,0c0.8-0.7,1.3-1.6,1.5-2.6L317.9,347.7z"
				/>
			<path class="st16" d="M263,359l49.8-4.1l1.8-7.1l1-4l6.6-26.6c-0.6,0-1.3,0.2-1.9,0.5l-36,20.8l-36,20.8
				c-0.4,0.2-0.7,0.6-0.8,1.1l10-0.8L263,359z"/>
			<path class="st17" d="M314,311.7c4.5-2.6,11.9-2.6,16.5,0s4.5,6.9,0,9.5s-11.9,2.6-16.5,0S309.5,314.3,314,311.7z"/>
			<path class="st18" d="M316.5,318c-0.1,0-0.2,0-0.3-0.1c-0.1,0-0.1-0.1-0.1-0.2l0.7-3c0-0.1,0-0.2,0.1-0.3c0-0.1,0.1-0.2,0.2-0.3
				l1.7-1c0.1-0.1,0.2-0.1,0.4-0.1c0.1,0,0.3,0,0.4,0.1l8.8,5.1c0.1,0,0.1,0.1,0.1,0.2c0,0.1-0.1,0.2-0.1,0.2l-1.8,1
				c-0.1,0.1-0.2,0.1-0.4,0.1c-0.1,0-0.3,0-0.4-0.1l-6-3.4l-0.4,1.6c0,0.1-0.1,0.1-0.2,0.2c-0.1,0.1-0.3,0.1-0.4,0.1L316.5,318z"/>
		</g>
		<path class="st18" d="M204.6,346.3l32.2-18.6l22,5.5c1.3,0.3,2.6-0.5,2.9-1.7c0.2-0.7,0-1.4-0.4-2l-8.3-11.1l32.2-18.6
			c2.4-1.4,2.4-3.6,0-5l-64.4-37.2c-2.7-1.4-5.9-1.4-8.7,0l-80.7,46.6c-2.4,1.4-2.4,3.6,0,5l64.5,37.2
			C198.7,347.7,201.9,347.7,204.6,346.3z"/>
		<path class="st2" d="M164.9,297.3c1.9-1.1,3.9-2,6.1-2.6c1.9-0.5,3.8-0.9,5.8-1c1.7-0.1,3.5,0,5.1,0.3c1.4,0.3,2.8,0.7,4.2,1.3
			c1.3,0.7,2.7,1.4,4.1,2.2s2.7,1.6,3.8,2.4c0.9,0.6,1.7,1.5,2.3,2.4c0.6,0.9,0.7,2,0.6,3c-0.3,1.2-0.9,2.4-1.8,3.3
			c-1.3,1.4-2.8,2.6-4.5,3.5c-1.9,1.1-3.9,2-6,2.6c-1.9,0.5-3.8,0.9-5.7,1c-1.7,0.1-3.5,0-5.1-0.3c-1.4-0.3-2.9-0.7-4.2-1.3
			c-1.3-0.7-2.7-1.4-4.1-2.2c-1.4-0.8-2.7-1.6-3.8-2.4c-0.9-0.6-1.7-1.5-2.3-2.4c-0.5-0.9-0.7-2-0.6-3c0.3-1.2,0.9-2.4,1.7-3.3
			C161.7,299.3,163.2,298.2,164.9,297.3z M185.3,304c-0.4-0.3-0.8-0.6-1.3-0.8l-1.9-1.1l-1.9-1.1c-0.5-0.3-0.9-0.5-1.4-0.7
			c-1.1-0.5-2.3-0.8-3.5-0.8c-1.5,0-3,0.5-4.3,1.3c-1.6,0.9-2.4,1.7-2.3,2.5c0.1,0.8,0.6,1.6,1.4,2c0.4,0.3,0.8,0.6,1.2,0.9
			c0.6,0.4,1.2,0.8,1.9,1.1s1.3,0.8,2,1.1c0.5,0.3,1,0.5,1.5,0.7c1.1,0.5,2.3,0.8,3.5,0.8c1.5,0,3-0.5,4.3-1.3
			c1.6-0.9,2.4-1.7,2.3-2.5C186.5,305.2,186,304.5,185.3,304z M199.5,279.2c-0.1-0.4,0-0.9,0.2-1.3c0.4-0.5,0.8-1,1.4-1.2l4.9-2.9
			c0.6-0.3,1.2-0.5,1.8-0.6c0.5-0.1,1.1,0,1.6,0.3c0.1,0.1,0.2,0.2,0.3,0.2c0.1,0.1,0.1,0.2,0.2,0.4l5.7,50.2c0,0.4,0,0.9-0.2,1.3
			c-0.3,0.5-0.8,1-1.4,1.2l-4.9,2.9c-0.6,0.3-1.2,0.5-1.8,0.6c-0.5,0.1-1.1,0-1.6-0.3c-0.1-0.1-0.2-0.2-0.3-0.3
			c-0.1-0.1-0.1-0.3-0.2-0.4L199.5,279.2z M225.4,291.1c1.9-1.1,3.9-2,6.1-2.6c1.9-0.5,3.8-0.9,5.8-1c1.7-0.1,3.5,0,5.1,0.3
			c1.4,0.3,2.8,0.7,4.2,1.3c1.3,0.7,2.7,1.4,4.1,2.2c1.4,0.8,2.7,1.6,3.8,2.4c0.9,0.6,1.7,1.5,2.3,2.4c0.5,0.9,0.7,2,0.5,3
			c-0.3,1.2-0.9,2.4-1.8,3.3c-1.3,1.4-2.8,2.6-4.5,3.5c-1.9,1.1-3.9,2-6,2.6c-1.9,0.6-3.8,0.9-5.7,1c-1.7,0.1-3.5,0-5.1-0.3
			c-1.4-0.3-2.9-0.7-4.2-1.3c-1.3-0.6-2.7-1.4-4.1-2.2s-2.7-1.6-3.8-2.4c-0.9-0.6-1.7-1.5-2.3-2.4c-0.6-0.9-0.7-2-0.6-3
			c0.3-1.2,0.9-2.4,1.7-3.3C222.3,293.2,223.8,292,225.4,291.1z M245.9,297.9c-0.4-0.3-0.8-0.6-1.3-0.8l-1.9-1.1l-1.9-1.1
			c-0.5-0.3-0.9-0.5-1.4-0.7c-1.1-0.5-2.3-0.8-3.5-0.8c-1.5,0-3,0.5-4.3,1.3c-1.6,0.9-2.4,1.8-2.3,2.5c0.1,0.8,0.6,1.6,1.4,2
			c0.4,0.3,0.8,0.6,1.2,0.9c0.6,0.4,1.2,0.8,1.9,1.1s1.3,0.8,2,1.1s1.1,0.6,1.5,0.7c1.1,0.5,2.3,0.8,3.5,0.8c1.5,0,3-0.5,4.3-1.3
			c1.6-0.9,2.4-1.7,2.3-2.5C247.1,299.1,246.6,298.4,245.9,297.9L245.9,297.9z"/>
	</g>
</g>
<g id="megaphone">
	<g id="freepik--megaphone--inject-8">
		<path class="st8" d="M84,101.8l13-7.5v59.8c0,2.2,2.6,4.5,2.6,4.5l-13,7.5c0,0-2.6-2.3-2.6-4.5V101.8z"/>
		<path class="st10" d="M68.7,102.6l5.3,6.8v25.3c0,7.1-2,14-5.8,20l0,0l18.3,10.6c-1.4-1.1-2.3-2.7-2.5-4.4v-49.4L68.7,102.6z"/>
		<polygon class="st2" points="67,155.5 67,158.5 86,169.5 86,166.5 		"/>
		<polygon class="st2" points="86,169.5 99,162 99,158.9 86,166.5 		"/>
		<polygon class="st6" points="86,169.5 99,162 99,158.9 86,166.5 		"/>
		<path class="st2" d="M83.2,69.7L83.2,69.7c-2.2-1.3-5.3-1.2-8.8,0.8l-0.1,0.1C67.5,74.5,62,84,62,91.9V92c0,4,1.5,6.9,3.8,8.1l0,0
			l9.9,5.8l16.6-30.8L83.2,69.7z"/>
		<path class="st19" d="M83.2,69.7L83.2,69.7c-2.2-1.3-5.3-1.2-8.8,0.8l-0.1,0.1C67.5,74.5,62,84,62,91.9V92c0,4,1.5,6.9,3.8,8.1
			l0,0l9.9,5.8l16.6-30.8L83.2,69.7z"/>
		<path class="st20" d="M65.8,100.1L65.8,100.1l9.9,5.8l5.5-10.2L63.1,85.3c-0.7,2.1-1.1,4.4-1.1,6.6V92
			C62,96.1,63.5,98.9,65.8,100.1z"/>
		<path class="st2" d="M104.6,77.3L104.6,77.3c-2.5-1.4-5.9-1.4-9.7,0.4c-0.4,0.2-0.8,0.4-1.2,0.6s-0.9,0.6-1.4,0.9
			c-0.8,0.5-1.5,1.1-2.2,1.8c-1.4,1.2-2.6,2.5-3.8,3.9c-3.2,3.9-5.5,8.4-6.9,13.2c-0.6,2.3-1,4.6-1,7c0,4.8,1.6,8.2,4.3,9.8
			l-9.5-5.5l0,0c-3.6-2.3-5.7-6.3-5.6-10.6c0-2.3,0.3-4.5,0.9-6.7c1.4-4.9,3.7-9.6,7-13.5c1.1-1.4,2.4-2.7,3.8-3.9
			c0.7-0.7,1.5-1.3,2.3-1.8c0.5-0.3,0.9-0.6,1.4-0.9s0.8-0.4,1.2-0.6c3.4-1.6,7.4-1.5,10.7,0.2l0,0l0.3,0.2l0.3,0.2L104.6,77.3z"/>
		<path class="st6" d="M73.1,109.4L73.1,109.4c-3.6-2.3-5.7-6.3-5.6-10.6c0-2.3,0.3-4.5,0.9-6.7l10.8,5.9c-0.6,2.3-1,4.6-1,7
			c0,4.8,1.6,8.2,4.3,9.8L73.1,109.4z"/>
		<path class="st2" d="M109.1,87.2c0,9.8-6.9,21.8-15.4,26.7c-4.3,2.5-8.2,2.7-10.9,1l-0.2-0.1c-2.7-1.7-4.3-5.1-4.3-9.8
			c0-9.8,6.9-21.8,15.4-26.7c4.2-2.4,8.1-2.7,10.9-1.1S109.1,82.3,109.1,87.2z"/>
		<path class="st11" d="M109.1,87.2c0,9.8-6.9,21.8-15.4,26.7c-4.3,2.5-8.2,2.7-10.9,1l-0.2-0.1c-2.7-1.7-4.3-5.1-4.3-9.8
			c0-9.8,6.9-21.8,15.4-26.7c4.2-2.4,8.1-2.7,10.9-1.1S109.1,82.3,109.1,87.2z"/>
		<path class="st2" d="M156.3,84.7c0,0-15.5,8-28.8,31c-2.4,4.1-4.5,8.4-6.3,12.8c-6.7,16.4-6.1,27.6-6.1,27.6
			c-4.6-11.4-10.4-23.1-20-32.1c-3.8-3.5-7.7-6.8-11.8-9.9l0,0c-2.5-1.5-4-4.7-4-9.1c0-3.1,0.6-6.2,1.7-9.1c0.7-2,1.6-3.8,2.6-5.6
			c2.5-4.6,6.1-8.4,10.6-11.2c3.8-2.2,7.3-2.5,9.9-1.1l0,0c4.7,2,9.5,3.8,14.5,5.3C131.1,87.2,144.2,86.4,156.3,84.7z"/>
		<path class="st19" d="M156.3,84.7c0,0-15.5,8-28.8,31c-2.4,4.1-4.5,8.4-6.3,12.8c-6.7,16.4-6.1,27.6-6.1,27.6
			c-4.6-11.4-10.4-23.1-20-32.1c-3.8-3.5-7.7-6.8-11.8-9.9l0,0c-2.5-1.5-4-4.7-4-9.1c0-3.1,0.6-6.2,1.7-9.1c0.7-2,1.6-3.8,2.6-5.6
			c2.5-4.6,6.1-8.4,10.6-11.2c3.8-2.2,7.3-2.5,9.9-1.1l0,0c4.7,2,9.5,3.8,14.5,5.3C131.1,87.2,144.2,86.4,156.3,84.7z"/>
		<path class="st20" d="M121.2,128.5c-6.7,16.4-6.1,27.6-6.1,27.6c-4.6-11.4-10.4-23.1-20-32.1c-3.8-3.5-7.7-6.8-11.8-9.9l0,0
			c-2.5-1.5-4-4.7-4-9.1c0-3.1,0.6-6.1,1.7-9C92.8,101.9,111.9,112.8,121.2,128.5z"/>
		<path class="st2" d="M185.6,106.9c0,10.2-3.2,21.5-8.4,31.8l0,0c-6.7,13.3-16.9,25.1-28.2,31.7c-20.2,11.7-36.7,2.2-36.7-21.2
			c0.1-5.6,0.9-11.2,2.4-16.6c4.1-14.2,11.7-27.2,22.2-37.6c1.4-1.4,2.9-2.7,4.4-4c0.6-0.5,1.3-1,1.9-1.5l0,0c0.9-0.7,1.8-1.3,2.8-2
			s2-1.2,3-1.8C169.2,74,185.6,83.5,185.6,106.9z"/>
		<path class="st6" d="M177.2,138.7c-6.7,13.3-16.9,25.1-28.2,31.7c-20.2,11.7-36.7,2.2-36.7-21.2c0.1-5.6,0.9-11.2,2.4-16.6l0,0
			c1.4,3,6.3,7.3,8.5,4.3c-1.4,4.8-2.1,9.7-2.1,14.7c0,6.7,1.5,12.1,4.3,15.7c2.4,3,6,4.7,9.9,4.6c4,0,8.7-1.5,13.5-4.2
			c9.7-5.6,18.6-15.6,24.9-27C173.6,140.7,174.9,141.7,177.2,138.7z"/>
		<path class="st2" d="M183.1,108.2c0,10.3-3.6,22-9.5,32.5c-6.3,11.4-15.2,21.4-24.9,27c-4.8,2.8-9.5,4.2-13.5,4.2
			c-3.8,0.1-7.5-1.6-9.9-4.6c-2.8-3.5-4.3-9-4.3-15.7c0.1-5,0.8-9.9,2.1-14.7c0.5-1.9,1.1-3.8,1.8-5.7c1.2-3.4,2.7-6.6,4.3-9.8l1-2
			c0.6-1.1,1.2-2.2,1.8-3.2c2.2-3.6,4.6-7,7.2-10.2l0.1-0.1c1.7-2.1,3.5-4,5.5-5.9c1.4-1.3,2.8-2.6,4.2-3.7c0.6-0.5,1.2-0.9,1.8-1.4
			c0.7-0.5,1.5-1,2.2-1.5s1.5-0.9,2.2-1.3c4.8-2.8,9.5-4.2,13.5-4.2C177.8,88,183.1,95.5,183.1,108.2z"/>
		<path class="st7" d="M183.1,108.2c0,10.3-3.6,22-9.5,32.5c-6.3,11.4-15.2,21.4-24.9,27c-4.8,2.8-9.5,4.2-13.5,4.2
			c-3.8,0.1-7.5-1.6-9.9-4.6c-2.8-3.5-4.3-9-4.3-15.7c0.1-5,0.8-9.9,2.1-14.7c0.5-1.9,1.1-3.8,1.8-5.7c1.2-3.4,2.7-6.6,4.3-9.8l1-2
			c0.6-1.1,1.2-2.2,1.8-3.2c2.2-3.6,4.6-7,7.2-10.2l0.1-0.1c1.7-2.1,3.5-4,5.5-5.9c1.4-1.3,2.8-2.6,4.2-3.7c0.6-0.5,1.2-0.9,1.8-1.4
			c0.7-0.5,1.5-1,2.2-1.5s1.5-0.9,2.2-1.3c4.8-2.8,9.5-4.2,13.5-4.2C177.8,88,183.1,95.5,183.1,108.2z"/>
		<path class="st2" d="M152,113.9l-12.9,24c-3.6-1.4-9.7-3.5-14.7-4.8c0.2-0.6,0.4-1.3,0.7-1.9c1.2-3.4,2.7-6.6,4.3-9.8
			c0.3-0.7,0.7-1.3,1-2c0.6-1.1,1.2-2.2,1.8-3.2c2.1-3.6,4.6-7,7.2-10.2c0,0,0.1-0.1,0.1-0.1c0.4-0.5,0.8-0.9,1.2-1.4
			C144.2,108,148,111.1,152,113.9z"/>
		<g class="st21">
			<path class="st18" d="M152,113.9l-12.9,24c-3.6-1.4-9.7-3.5-14.7-4.8c0.2-0.6,0.4-1.3,0.7-1.9c1.2-3.4,2.7-6.6,4.3-9.8
				c0.3-0.7,0.7-1.3,1-2c0.6-1.1,1.2-2.2,1.8-3.2c2.1-3.6,4.6-7,7.2-10.2c0,0,0.1-0.1,0.1-0.1c0.4-0.5,0.8-0.9,1.2-1.4
				C144.2,108,148,111.1,152,113.9z"/>
		</g>
		<path class="st2" d="M139.8,138.2c-3,0-4.8-2.4-4.8-6.4v-0.1c0-6.3,4.5-14.1,10-17.3l0.1-0.1c1.3-0.8,2.7-1.2,4.2-1.3
			c3,0,4.8,2.4,4.8,6.5v0.1c0,6.3-4.5,14.1-10,17.3l-0.1,0.1C142.7,137.7,141.2,138.1,139.8,138.2z"/>
		<g class="st22">
			<path class="st18" d="M139.8,138.2c-3,0-4.8-2.4-4.8-6.4v-0.1c0-6.3,4.5-14.1,10-17.3l0.1-0.1c1.3-0.8,2.7-1.2,4.2-1.3
				c3,0,4.8,2.4,4.8,6.5v0.1c0,6.3-4.5,14.1-10,17.3l-0.1,0.1C142.7,137.7,141.2,138.1,139.8,138.2z"/>
		</g>
		<path class="st1" d="M153,70.7c-1.2-0.4-2-1.6-2-2.9v-29c0-1.7,1.3-3,3-3c1.7,0,3,1.3,3,3v29.1C157,69.9,155.1,71.4,153,70.7z"/>
		<path class="st1" d="M128.6,77c-1,0-2-0.5-2.5-1.4l-14-24.2c-0.8-1.4-0.3-3.1,1-4c1.4-0.8,3.1-0.3,4,1l14,24.2
			c0.8,1.4,0.3,3.1-1,3.9C129.6,76.9,129.1,77,128.6,77L128.6,77z"/>
		<path class="st1" d="M102.1,211.8c-1.6,0-2.9-1.3-2.9-2.9c0-0.5,0.1-1,0.4-1.4l14-24.2c0.7-1.4,2.5-2,3.9-1.2
			c1.4,0.7,2,2.5,1.2,3.9c0,0.1-0.1,0.1-0.1,0.2l-14,24.2C104.1,211.3,103.2,211.8,102.1,211.8z"/>
		<path class="st1" d="M153,216.1c-1.2-0.4-2-1.6-2-2.9v-29c0-2.1,2.2-3.7,4.4-2.7c1,0.5,1.6,1.5,1.6,2.6v0.1v29.1
			C157,215.2,155.1,216.7,153,216.1z"/>
		<path class="st1" d="M193.5,189.4c-1,0-2-0.6-2.5-1.4l-14-24.2c-0.7-1.4-0.2-3.2,1.2-3.9c1.3-0.7,3-0.3,3.8,1l14,24.2
			c0.8,1.4,0.3,3.2-1.1,4C194.5,189.3,194,189.4,193.5,189.4L193.5,189.4z"/>
		<path class="st1" d="M222,160.6c-0.5,0-1-0.1-1.4-0.4l-24.2-14c-1.4-0.8-1.9-2.6-1.1-3.9s2.6-1.9,3.9-1.1l0,0l24.2,14
			c1.4,0.8,1.9,2.6,1.1,3.9C224,160,223,160.6,222,160.6L222,160.6z"/>
		<path class="st1" d="M233.4,121h-29.1c-2.1,0-3.7-2.2-2.7-4.4c0.5-1,1.5-1.6,2.6-1.6h0.1h29.1c2.1,0,3.7,2.2,2.7,4.4
			C235.6,120.4,234.6,121,233.4,121L233.4,121z"/>
		<path class="st1" d="M198.1,95.7c-1.6,0-2.9-1.3-2.9-2.9c0-1,0.6-2,1.5-2.5l24.2-14c1.3-0.9,3.1-0.5,4,0.9c0.9,1.3,0.5,3.1-0.9,4
			c-0.1,0-0.1,0.1-0.2,0.1l-24.2,14C199.1,95.6,198.6,95.7,198.1,95.7z"/>
		<path class="st1" d="M179.5,77.1c-1.6,0-2.9-1.3-2.9-2.9c0-0.5,0.1-1,0.4-1.4l14-24.2c0.8-1.4,2.6-1.9,3.9-1
			c1.4,0.8,1.9,2.6,1.1,4l-14,24.2C181.5,76.5,180.5,77.1,179.5,77.1z"/>
	</g>
</g>
<image style="overflow:visible;" width="855" height="1155" id="mbot" xlink:href="C:\Users\User\Downloads\Asset 31.png"  transform="matrix(0.1249 0 0 0.1249 32.6158 327.1636)">
</image>
<image style="overflow:visible;" width="855" height="1155" id="bbot" xlink:href="C:\Users\User\Downloads\Asset 31.png"  transform="matrix(-0.1074 0 0 0.1074 479.9172 360.31)">
</image>
</svg>
